<svg width="374" height="604" viewBox="0 0 374 604" fill="none" xmlns="http://www.w3.org/2000/svg">
<g style="mix-blend-mode:screen" opacity="0.6">
<path d="M131.573 557.169L123.797 596.163L25.2138 598.042L22.8418 589.2L21.1163 598.042L0.524194 600.563C0.524194 600.563 4.4076 500.257 3.00538 415.05C1.60316 329.842 1.69489 301.204 1.69489 301.204L13.1529 293.412L1.72547 285.863L2.69523 243.099L18.1109 227.381H2.69523L0.537298 69.2357L9.05547 77.7244L0.537298 61.2997L0 4.1117C0 4.1117 122.749 3.48168 142.463 4.1117C162.177 4.74172 173.631 3.82432 173.631 3.82432L176.973 25.4771L177.527 3.82432L275.451 8.82026L278.579 44.3445L281.493 7.86971L373.476 0L371.86 69.8105L362.909 80.4987L371.536 77.6691L370.352 149.038L370.789 229.526L367.985 242.413L371.327 262.861L370.252 423.207L363.027 433.585L369.282 444.904L374 604L350.276 601.48L348.013 579.783L346.183 600.22L286.001 590.792L276.827 594.251L270.79 579.474L266.693 594.561L184.94 598.982L148.273 597.103C148.273 597.103 149.029 578.545 148.273 579.805C147.517 581.065 144.835 597.368 144.835 597.368L137.177 595.489L134.915 579.451L132.534 596.782H129.944L131.573 557.169Z" fill="#EEB980"/>
</g>
</svg>
