<svg width="414" height="548" viewBox="0 0 414 548" fill="none" xmlns="http://www.w3.org/2000/svg">
<path d="M412.251 530.923C412.251 530.923 410.076 533.364 409.752 533.718C409.429 534.072 408.266 535.776 408.266 535.776C408.266 535.776 410.797 534.062 412.251 530.923Z" fill="#6D390C"/>
<path opacity="0.32" d="M12.1316 0.568359C11.2618 1.91126 10.3437 3.12564 9.38465 4.20176C8.44713 5.27314 7.46743 6.25136 6.47835 7.15505C5.48926 8.05875 4.48143 8.87859 3.45485 9.59595C2.41882 10.3482 1.35456 10.937 0.271973 11.3567C1.14219 10.0106 2.06198 8.79607 3.02359 7.72336C3.96111 6.65197 4.94082 5.67375 5.9299 4.77006C6.91898 3.86637 7.92212 3.05584 8.95339 2.32916C9.9887 1.58236 11.0512 0.993714 12.1316 0.568359Z" fill="#6D390C"/>
<g style="mix-blend-mode:overlay">
<path d="M12.4596 0C12.4596 0 8.31579 6.03703 5.21729 8.27296C3.51561 9.52382 1.77233 10.5386 0 11.3101C2.03703 10.966 4.04638 10.1435 5.98606 8.85989C8.6533 6.86619 12.4596 0 12.4596 0Z" fill="#FAEFD2"/>
</g>
<path d="M9.4877 3.36353C9.4877 3.36353 5.29699 6.52179 4.67354 7.09009C4.05009 7.65839 1.75317 9.94091 1.75317 9.94091C1.75317 9.94091 6.48295 8.20805 9.4877 3.36353Z" fill="#6D390C"/>
<path d="M416.3 20.2349L414.318 23.2254L413.089 24.3993C413.089 24.3993 413.98 23.8776 414.313 23.7285C414.646 23.5795 415.639 22.713 415.855 23.1416C416.071 23.5701 416.061 25.9365 416.197 25.4893C416.333 25.0421 416.3 20.2349 416.3 20.2349Z" fill="#6D390C"/>
<path d="M414.327 23.7285L413.08 24.5856C413.08 24.5856 414.261 24.1664 414.322 24.1291C414.806 23.8412 415.276 23.4735 415.729 23.0298C415.253 23.1884 414.784 23.422 414.327 23.7285Z" fill="#F3D632"/>
<path d="M416.31 16.6582C416.31 16.6582 414.557 21.9872 414.435 22.248L413.089 24.4001L414.303 23.2263L416.282 20.627L416.31 16.6582Z" fill="#B06518"/>
<path d="M12.6846 543.305L13.4768 542.047L11.4143 542.103L11.9346 543.146L11.8502 547.6H12.6659L13.4534 546.696L12.7643 546.184L12.6846 543.305Z" fill="#6D390C"/>
<path d="M15.9614 547.246C15.9614 547.246 14.002 547.525 14.1614 547.134C14.3207 546.743 14.2832 546.146 14.0535 546.1C13.8239 546.053 12.9285 545.084 13.0035 544.954C13.0905 544.345 13.147 543.721 13.1723 543.09C13.9341 543.152 14.6969 543.04 15.4458 542.755C16.9739 542.28 12.8629 542.913 13.9879 542L13.477 542.056L12.6895 543.314L12.7645 546.193L13.4535 546.705L12.7223 548L15.9614 547.246Z" fill="#AB5C16"/>
<g style="mix-blend-mode:multiply" opacity="0.38">
<path d="M411.889 525.063L413.614 525.203L408.364 391.103L407.675 390.171L408.013 374.399L409.419 372.833L410.408 260.627L412.241 260.496H410.413L410.614 237.662L407.591 223.575L409.381 218.917V211.809L410.024 209.554L409.555 141.712L410.867 81.5562L409.546 81.8823L409.724 76.2924L411.224 74.9322L412.93 18.8102L413.014 16.0898L311.575 22.7231L310.867 29.4868L305.565 29.3005L305.2 26.1422L304.895 23.515L197.549 19.304H197.357L197.165 25.2013L194.352 24.8286L193.241 19.3133L193.058 19.3599V19.3133C193.058 19.3133 192.121 19.7419 182.577 19.7326C179.357 19.7326 164.525 19.6767 159.097 19.5462C151.756 19.3692 135.26 19.3133 116.594 19.3133H81.1563C52.9276 19.3133 11.3112 19.4996 4.05478 19.5369H2.29224L2.88756 67.7679L6.32357 72.7988L7.17671 77.457L3.07976 74.4198V74.5596L2.88288 74.4198L5.26886 207.71H7.76266L8.08141 218.824L5.26886 220.985L4.20009 257.021L6.10325 257.953L6.28138 268.89L4.20009 269.98C4.20009 269.98 4.0829 294.101 5.63449 365.939C7.18608 437.778 2.88756 522.296 2.88756 522.296H3.07976L3.92821 522.213L5.10011 522.101C5.01104 523.386 4.93136 524.532 4.86104 525.464H4.92667C4.74385 528.035 4.63135 529.535 4.63135 529.535L7.09702 529.386V535.908C7.09702 535.908 110.468 528.315 112.216 528.315C113.965 528.315 123.509 528.837 123.509 528.837L124.095 526.191L124.563 524.076L130.301 523.722L142.751 528.762L205.565 532.386L206.592 527.83L206.662 527.523V531.678C206.662 531.678 280.051 532.386 280.051 531.855C280.051 531.687 280.234 529.47 280.491 526.479C280.566 525.622 280.646 524.691 280.726 523.685L284.152 523.535L284.574 526.256L285.442 531.846L296.415 530.914L297.442 523.284L297.85 520.275C298.684 519.716 299.467 519.213 300.006 518.896L300.254 521.495L301.323 531.855L405.12 536.42V533.718L412.278 534.818L411.889 525.063Z" fill="#6D390C"/>
</g>
<path d="M267.333 439.697H23.8316L10.022 512.076V524.858C10.022 524.858 111.274 517.265 112.943 517.265C114.612 517.265 123.898 517.796 123.898 517.796L125.44 510.548L142.573 517.703L203.826 521.327L204.909 516.38V520.619C204.909 520.619 277.051 521.327 277.051 520.796C277.051 520.265 278.926 498.353 278.926 498.353L282.305 520.796L292.951 519.865L295.642 499.247L297.648 520.806L398.633 525.399V503.477L267.333 439.697Z" fill="#A15542"/>
<g style="mix-blend-mode:multiply" opacity="0.4">
<path d="M398.633 525.333V503.57L267.333 439.79H23.8316L10.022 512.169V521.066L124.484 515.132L125.421 510.641L139.615 514.545L146.201 487.443L143.857 514.815L152.951 516.911C152.951 516.911 166.386 516.995 193.077 516.911C196.804 516.911 200.76 516.846 204.796 516.771L204.862 516.464V516.771C219.276 516.501 266.832 515.886 277.435 515.421C277.983 508.778 278.841 498.446 278.841 498.446L281.382 515.216C286.862 514.964 290.26 514.787 290.26 514.787C290.26 514.787 292.135 513.464 293.893 512.244L295.581 499.303L296.617 510.483C296.757 510.388 296.901 510.322 297.048 510.287C297.517 510.287 301.21 511.694 301.21 511.694L398.633 525.333Z" fill="#A15542"/>
</g>
<path d="M401.839 343.589L400.775 395.174L405.589 523.796L301.272 508.955C301.272 508.955 297.568 507.548 297.109 507.548C296.65 507.548 290.321 512.076 290.321 512.076C290.321 512.076 219.792 514.079 193.105 514.153C166.419 514.228 152.98 514.153 152.98 514.153L143.886 512.057L146.23 484.686L139.573 512.057L7.61279 518.495C7.61279 518.495 11.316 466.556 11.316 449.237C11.316 431.917 9.3097 264.082 9.3097 264.082L8.73781 226.277L11.0441 211.035L10.4253 186.346L11.0582 71.8572L7.61279 52.4232L188.615 13.2012L208.823 15.9961L314.214 18.7072L403.414 55.6001L402.646 80.6892L402.8 207.895L398.169 220.267L401.839 343.589Z" fill="#D07956"/>
<g style="mix-blend-mode:multiply" opacity="0.26">
<path d="M202.251 513.222L206.254 513.148L208.321 513.008L206.418 321.174V14.7951L195.796 13.3045L195.271 29.8783L191.91 12.7641L188.629 12.3076L7.61279 51.5483L10.266 66.6595L15.0614 73.889L10.9925 70.6935L11.0441 70.9823L10.4253 185.472L10.8004 200.042H24.8163L10.9082 211.222L8.75187 225.467L9.14095 250.37L19.4911 255.736L9.3097 261.242L9.34252 263.254C9.34252 263.254 11.3488 431.098 11.3488 448.408C11.3488 463.137 8.6675 502.919 7.87061 514.48L28.0554 512.542L29.907 505.089L32.4523 512.542L138.237 510.949L146.567 478.09L144.833 511.462H144.898H147.608L150.153 496.891L152.572 510.428L160.785 512.011C160.785 512.011 163.677 498.232 164.488 497.17C165.299 496.108 164.488 511.75 164.488 511.75L202.251 513.222Z" fill="#A15542"/>
</g>
<path opacity="0.55" d="M5.55005 8.51493L6.12662 56.718L15.2674 70.5063L6.12662 63.3513L6.6235 91.9433L14.1237 81.3692L82.1734 8.27271C50.9306 8.27271 5.55005 8.51493 5.55005 8.51493Z" fill="#C48A57"/>
<path opacity="0.29" d="M312.456 503.039L377.037 510.986L379.001 493.76L381.434 512.048L406.888 514.172L401.872 382.131L311.209 503.412L312.456 503.039Z" fill="#FFEAB6"/>
<g style="mix-blend-mode:overlay" opacity="0.43">
<path d="M196.152 29.1885L196.729 10.9283L301.412 15.1207L301.117 12.4935L196.035 8.28247L195.482 25.7787L196.152 29.1885Z" fill="#FFEAB6"/>
</g>
<g style="mix-blend-mode:overlay" opacity="0.43">
<path d="M21.6751 199.324L8.44201 209.926L7.40137 245.971L8.16075 246.363L9.13577 212.581L25.6783 199.324H21.6751Z" fill="#FFEAB6"/>
</g>
<g style="mix-blend-mode:overlay" opacity="0.43">
<path d="M6.80164 57.7712L6.24381 11.1892C6.24381 11.1892 137.965 10.6581 159.12 11.1892C177.163 11.6363 191.657 11.1892 192.402 10.9935L191.872 8.27313C191.872 8.27313 179.6 9.03707 158.426 8.50604C137.253 7.975 5.55005 8.50604 5.55005 8.50604L6.12662 56.7184L6.80164 57.7712Z" fill="#FFEAB6"/>
</g>
<g style="mix-blend-mode:overlay" opacity="0.43">
<path d="M305.167 45.0909L308.289 14.3468L406.226 7.78801L406.306 5.06763L307.599 11.7009L304.665 40.5817L305.167 45.0909Z" fill="#FFEAB6"/>
</g>
<g style="mix-blend-mode:overlay" opacity="0.43">
<path d="M401.797 380.072L396.429 372.442L395.778 373.178L401.858 381.823L401.797 380.072Z" fill="#FFEAB6"/>
</g>
<g style="mix-blend-mode:overlay" opacity="0.43">
<path d="M404.164 73.3764L404.225 70.5349L399.819 71.6715L395.661 75.5658L404.164 73.3764Z" fill="#FFEAB6"/>
</g>
<g style="mix-blend-mode:overlay" opacity="0.43">
<path d="M379.695 496.415L379.535 497.794L381.434 512.048L381.776 512.076L379.695 496.415Z" fill="#FFEAB6"/>
</g>
<g style="mix-blend-mode:overlay" opacity="0.43">
<path d="M151.02 496.145L150.912 496.76L152.754 507.018L152.979 507.055L151.02 496.145Z" fill="#FFEAB6"/>
</g>
<g style="mix-blend-mode:overlay" opacity="0.43">
<path d="M165.486 508.387C165.678 503.99 165.955 495.633 165.364 496.416C165.233 496.636 165.121 496.898 165.031 497.189C165.031 501.512 164.67 508.369 164.67 508.369L165.486 508.387Z" fill="#FFEAB6"/>
</g>
<g style="mix-blend-mode:overlay" opacity="0.43">
<path d="M9.48766 357.545C7.98295 285.725 8.08139 261.586 8.08139 261.586L20.3441 254.962L17.4894 253.481L7.38763 258.94C7.38763 258.94 7.27044 283.06 8.7939 354.899C10.3174 426.738 6.13135 511.266 6.13135 511.266L6.95637 511.182C7.64076 496.145 10.8283 421.763 9.48766 357.545Z" fill="#FFEAB6"/>
</g>
<g style="mix-blend-mode:overlay" opacity="0.43">
<path d="M8.44214 196.679H9.08902L6.82023 66.0257L15.961 73.1807L13.0547 68.802L6.12646 63.3799L8.44214 196.679Z" fill="#FFEAB6"/>
</g>
<g style="mix-blend-mode:overlay" opacity="0.43">
<path d="M147.434 477.335L146.388 481.462L145.001 508.079H145.835L147.434 477.335Z" fill="#FFEAB6"/>
</g>
<path opacity="0.63" d="M79.4499 11.748L6.44067 91.9715L36.6335 56.3084L43.7305 69.7333L37.6178 54.1842L79.4499 11.748Z" fill="#A57142"/>
<path opacity="0.29" d="M401.098 408.608L405.575 511.257L383.361 506.841L378.729 487.761L375.185 506.487L360.527 504.251L401.098 408.608Z" fill="#FFEAB6"/>
<path opacity="0.1" d="M78.0859 18.9778L78.3906 130.998L78.0859 397.289L79.6938 502.611V246.121L78.0859 18.9778Z" fill="#A57142"/>
<path opacity="0.1" d="M162.453 18.9778L162.758 130.998L162.453 397.289L164.061 502.611V246.121L162.453 18.9778Z" fill="#A57142"/>
<path opacity="0.1" d="M246.82 18.9778L247.13 130.998L246.82 397.289L248.428 502.611V246.121L246.82 18.9778Z" fill="#A57142"/>
<path opacity="0.1" d="M331.188 18.9778L331.492 130.998L331.188 397.289L332.795 502.611V246.121L331.188 18.9778Z" fill="#A57142"/>
<path d="M146.74 474.68L138.396 507.549L32.6068 509.132L30.0615 501.679L28.2099 509.132L6.11256 511.257C6.11256 511.257 10.2798 426.71 8.77511 354.89C7.27039 283.07 7.36883 258.931 7.36883 258.931L19.6644 252.363L7.40165 246L8.44229 209.955L24.9848 196.707H8.44229L6.12662 63.408L15.2674 70.563L6.12662 56.7188L5.55005 8.51575C5.55005 8.51575 137.271 7.98472 158.426 8.51575C179.582 9.04678 191.872 8.27352 191.872 8.27352L195.458 26.5243L196.054 8.27352L301.135 12.4845L304.492 42.4274L307.618 11.6833L406.325 5.05005L404.591 63.8924L394.986 72.9014L404.244 70.5164L402.973 130.672L403.442 198.514L400.433 209.377L404.019 226.613L402.866 361.766L395.112 370.514L401.825 380.054L406.888 514.154L381.429 512.03L379.001 493.742L377.037 510.968L312.456 503.021L302.612 505.937L296.134 493.481L291.737 506.198L204.009 509.924L164.661 508.341C164.661 508.341 165.472 492.698 164.661 493.76C163.85 494.822 160.972 508.564 160.972 508.564L152.754 506.98L150.326 493.462L147.772 508.07H144.992L146.74 474.68Z" fill="#EEB980"/>
<g style="mix-blend-mode:multiply" opacity="0.82">
<path d="M324.728 89.8943C331.371 89.6055 328.066 80.4941 323.655 81.789C321.152 82.5343 322.174 89.0931 324.728 89.8943Z" fill="#E7D9C9"/>
</g>
<g style="mix-blend-mode:multiply" opacity="0.82">
<path d="M337.15 102.201C339.447 102.472 339.902 101.046 342.119 101.27C343.666 102.583 346.216 107.54 348.508 104.829C351.176 101.689 340.272 98.624 341.768 94.4689C339.833 93.1176 337.795 92.4461 335.744 92.4845C331.31 94.3664 334.722 100.105 337.15 102.201Z" fill="#E7D9C9"/>
</g>
<g style="mix-blend-mode:multiply" opacity="0.82">
<path d="M307.337 100.58C309.2 102.444 311.306 103.124 313.37 102.527C316.825 98.4746 307.684 95.9033 307.337 100.58Z" fill="#E7D9C9"/>
</g>
<g style="mix-blend-mode:multiply" opacity="0.82">
<path d="M102.602 136.839C99.1988 137.091 97.4691 138.852 97.2722 142.029C99.7801 143.305 102.827 144.088 105.082 145.587C105.865 142.187 102.541 139.904 102.602 136.839Z" fill="#E7D9C9"/>
</g>
<g style="mix-blend-mode:multiply" opacity="0.82">
<path d="M110.051 135.572C108.968 135.815 109.01 135.013 107.918 135.256V136.541C108.513 136.113 110.182 136.662 110.051 135.572Z" fill="#E7D9C9"/>
</g>
<g style="mix-blend-mode:multiply" opacity="0.82">
<path d="M129.926 92.485C130.864 93.6682 131.553 94.4135 133.47 94.1061C139.714 93.0999 131.665 86.1406 129.926 92.485Z" fill="#E7D9C9"/>
</g>
<g style="mix-blend-mode:multiply" opacity="0.82">
<path d="M246.31 98.642C246.732 100.645 244.777 100.505 244.903 102.201C252.947 107.204 239.503 113.967 245.611 120.666C248.217 119.054 248.499 112.505 253.411 111.927C254.897 112.514 256.379 113.101 257.677 113.874C264.179 111.62 257.677 106.589 257.316 102.201C256.205 101.502 254.504 101.316 253.772 100.254C254.968 95.0831 246.446 90.397 243.83 96.052C243.816 97.7104 246.103 97.2073 246.31 98.642Z" fill="#E7D9C9"/>
</g>
<g style="mix-blend-mode:multiply" opacity="0.82">
<path d="M224.301 145.299C224.208 146.026 224.395 146.51 225.014 146.594C225.126 146.147 225.515 145.97 225.365 145.299H224.301Z" fill="#E7D9C9"/>
</g>
<g style="mix-blend-mode:multiply" opacity="0.82">
<path d="M285.685 262.247C288.737 261.465 290.415 259.452 291.728 257.058C288.554 255.158 284.181 259.909 285.685 262.247Z" fill="#E7D9C9"/>
</g>
<g style="mix-blend-mode:multiply" opacity="0.82">
<path d="M209.751 108.36C208.021 111.825 211.34 113.353 211.889 115.813C210.6 117.462 207.342 118.608 208.692 121.645C211.95 122.409 211.218 116.856 215.081 117.108C214.917 118.878 217.008 118.589 216.853 120.35C216.459 121.393 214.378 120.899 213.309 121.281C212.606 122.986 213.722 124.365 212.236 125.166C210.679 123.871 208.19 124.98 205.86 124.84C203.479 123.965 203.334 121.524 203.728 119.66C203.357 119.559 202.998 119.339 202.664 119.008C199.237 119.567 198.913 122.93 198.759 126.461C201.81 128.325 206.446 127.645 210.815 129.061C213.628 127.794 215.329 124.104 219.337 125.818C221.344 123.685 222.619 117.704 218.625 117.07C219.89 115.207 223.439 113.884 220.397 111.564C220.148 110.148 221.006 109.701 220.758 108.322C217.697 105.518 213.576 109.077 209.751 108.36ZM217.922 121.645C218.128 123.135 217.12 123.508 217.204 124.878C215.798 124.747 217.551 123.34 216.501 122.614C215.175 122.781 217.026 124.561 214.72 124.235C214.687 123.229 215.151 122.688 215.442 121.962C216.679 122.232 216.792 121.477 217.922 121.645Z" fill="#E7D9C9"/>
</g>
<g style="mix-blend-mode:multiply" opacity="0.82">
<path d="M112.535 238.277C113.243 235.482 110.505 235.482 111.471 233.414C110.065 232.566 106.165 232.184 106.146 234.345C106.587 236.078 107.576 236.824 106.854 238.882C108.649 240.345 111.288 239.814 112.535 238.277Z" fill="#E7D9C9"/>
</g>
<g style="mix-blend-mode:multiply" opacity="0.82">
<path d="M112.896 228.224C114.935 227.991 115.54 225.578 113.955 224.339C112.605 223.286 106.174 223.025 105.433 221.749C105.373 222.289 104.435 222.578 104.374 223.053C103.962 225.997 107.609 225.187 109.338 225.969C111.209 226.789 111.288 228.41 112.896 228.224Z" fill="#E7D9C9"/>
</g>
<g style="mix-blend-mode:multiply" opacity="0.82">
<path d="M135.954 197.451C131.946 197.61 131.267 204.858 128.145 205.231C126.063 205.473 125.074 203.293 123.176 202.315H115.376C112.596 205.389 106.61 205.538 103.657 208.463C103.985 211.193 108.405 210.178 110.046 211.705C110.365 212.637 109.315 214.752 110.754 214.622C113.641 213.587 115.352 208.035 118.915 207.168C121.806 206.551 124.729 207.327 127.437 209.432C127.118 210.364 127.118 210.42 127.437 211.379C131.928 211.147 131.656 215.292 134.525 216.559C139.47 214.743 134.557 210.615 134.525 207.485C134.501 203.917 140.632 199.426 135.954 197.451Z" fill="#E7D9C9"/>
</g>
<g style="mix-blend-mode:multiply" opacity="0.82">
<path d="M218.986 140.1C220.551 140.1 222.037 140.1 222.53 139.169C220.842 137.035 218.09 135.88 216.14 133.979C213.422 134.24 214.265 136.318 211.889 136.569C209.353 136.849 206.015 133.56 203.376 136.569C203.334 137.902 203.306 139.234 203.728 140.128C205.973 140.585 209.897 141.144 213.661 141.116C214.35 140.184 213.567 137.995 215.442 138.191C217.87 137.669 217.111 140.082 218.986 140.1Z" fill="#E7D9C9"/>
</g>
<g style="mix-blend-mode:multiply" opacity="0.82">
<path d="M219.698 259.332C219.698 259.136 219.75 258.95 220.045 259.006V258.363C219.829 258.363 219.623 258.316 219.698 258.037H218.986C218.986 258.232 218.925 258.419 218.625 258.363V259.006C218.84 259.006 219.047 259.061 218.986 259.332H219.698Z" fill="#E7D9C9"/>
</g>
<g style="mix-blend-mode:multiply" opacity="0.82">
<path d="M301.661 248.319C301.773 247.882 302.162 247.705 302.017 247.015H300.611C300.287 248.068 301.145 248.04 301.661 248.319Z" fill="#E7D9C9"/>
</g>
<g style="mix-blend-mode:multiply" opacity="0.82">
<path d="M113.955 251.552C114.738 249.829 113.885 248.916 112.896 247.993C110.285 248.748 106.455 248.375 105.082 250.267C108.091 254.17 109.235 258.064 110.412 263.869C120.691 264.716 119.177 254.711 113.955 251.552Z" fill="#E7D9C9"/>
</g>
<g style="mix-blend-mode:multiply" opacity="0.82">
<path d="M38.729 201.989C37.7212 204.961 40.6041 208.576 42.6385 208.464C46.9886 208.241 42.0713 202.213 38.729 201.989Z" fill="#E7D9C9"/>
</g>
<g style="mix-blend-mode:multiply" opacity="0.82">
<path d="M14.9535 189.011C12.2722 189.784 11.1003 193.353 11.0581 195.533C14.9722 195.533 18.3614 190.977 14.9535 189.011Z" fill="#E7D9C9"/>
</g>
<g style="mix-blend-mode:multiply" opacity="0.82">
<path d="M111.471 116.456C110.759 116.996 109.821 117.331 109.699 118.403C112.277 119.418 115.615 121.375 118.212 121.319C118.826 118.375 113.731 117.853 111.471 116.456Z" fill="#E7D9C9"/>
</g>
<g style="mix-blend-mode:multiply" opacity="0.82">
<path d="M82.0141 128.772C86.2329 131.12 83.9501 139.263 78.1093 136.542C76.8625 137.968 78.0672 139.701 77.7578 142.058C79.5297 141.787 80.6547 143.8 83.0876 142.384C82.2532 139.84 84.6813 137.912 86.6314 136.868C85.9423 140.465 84.6954 146.315 79.5297 146.911C78.9437 150.685 80.0594 154.42 80.6031 156.955C81.686 157.187 81.8922 156.628 82.7266 156.628C82.9844 155.026 83.0126 154.905 82.375 153.712C84.4376 149.818 94.83 149.185 88.4033 144.322C89.083 139.663 91.2159 136.319 93.0206 132.657C93.0815 131.633 92.083 131.577 92.3081 130.393C92.8237 129.788 93.1003 128.959 94.4409 129.099C95.4909 130.077 96.1519 131.418 98.3457 131.362C98.791 127.235 102.354 125.959 102.602 121.645C101.899 121.198 100.572 121.338 99.7566 120.993C96.7566 122.148 96.705 125.978 94.08 127.515C89.5658 127.105 86.2517 125.596 86.9923 120.388C84.7329 117.658 77.9265 118.823 77.4109 122.335C79.3047 124.124 83.0126 124.301 82.0141 128.772Z" fill="#E7D9C9"/>
</g>
<g style="mix-blend-mode:multiply" opacity="0.82">
<path d="M151.212 129.741C153.809 126.676 151.086 124.775 148.015 123.583C146.501 123.927 145.915 125.12 146.244 127.151C148.283 127.663 148.709 129.657 151.212 129.741Z" fill="#E7D9C9"/>
</g>
<g style="mix-blend-mode:multiply" opacity="0.82">
<path d="M83.7859 168.301C83.9313 162.553 78.5124 161.882 74.2139 160.187C74.917 163.196 71.7716 163.364 72.8076 165.702C74.7342 166.867 78.6483 166.205 80.2562 167.649V169.587C79.4335 169.13 78.5571 169.245 77.7718 169.913C77.303 171.87 78.8358 171.972 79.9046 172.503C81.4375 171.311 82.2625 169.494 83.7859 168.301Z" fill="#E7D9C9"/>
</g>
<g style="mix-blend-mode:multiply" opacity="0.82">
<path d="M250.205 252.531C251.204 258.12 254.602 253.788 258.015 253.509C260.508 253.294 261.577 255.186 263.691 253.826C264.568 251.385 265.618 248.236 262.979 247.993C261.197 247.798 260.218 250.742 258.015 251.226C254.316 252.055 250.936 249.792 250.205 252.531Z" fill="#E7D9C9"/>
</g>
<g style="mix-blend-mode:multiply" opacity="0.82">
<path d="M50.795 207.178C49.0387 207.072 48.2121 207.827 48.3152 209.442C49.159 210.178 50.4574 209.497 51.1278 209.115C51.2075 208.314 51.2075 207.55 50.795 207.178Z" fill="#E7D9C9"/>
</g>
<g style="mix-blend-mode:multiply" opacity="0.82">
<path d="M15.3146 185.145C18.9381 185.816 20.4709 182.015 20.2787 179.965C19.4537 170.322 9.15038 184.008 15.3146 185.145Z" fill="#E7D9C9"/>
</g>
<g style="mix-blend-mode:multiply" opacity="0.82">
<path d="M403.33 186.347L403.302 181.745C402.106 183.161 401.624 185.425 403.33 186.347Z" fill="#E7D9C9"/>
</g>
<g style="mix-blend-mode:multiply" opacity="0.82">
<path d="M238.139 141.088C241.219 143.007 245.372 143.445 248.082 144.963C252.769 143.678 251.719 139.951 251.625 136.225C249.577 136.038 249.75 133.821 249.854 131.687C251.729 131.687 251.813 130.02 253.046 129.414C252.261 128.782 251.407 128.56 250.566 128.771C249.502 129.209 249.225 130.355 248.433 131.035C247.589 130.402 246.741 131.361 245.949 130.392C245.044 129.526 246.164 128.688 245.949 127.476C240.169 124.682 239.653 132.945 241.336 137.52C239.775 138.256 238.017 138.805 238.139 141.088Z" fill="#E7D9C9"/>
</g>
<g style="mix-blend-mode:multiply" opacity="0.82">
<path d="M304.14 143.668C305.875 138.414 295.234 137.678 296.692 131.687C298.098 130.159 300.615 129.656 302.72 128.771C304.759 125.119 303.812 120.228 307.337 118.402C313.281 120.507 319.853 122.753 323.655 117.47C320.72 113.464 328.849 108.21 324.367 107.101C320.411 106.169 320.308 112.877 316.919 114.228C312.808 113.343 314.106 107.073 309.817 107.427C306.067 107.725 306.77 114.489 302.368 115.523C300.39 115.29 300.053 113.539 297.756 113.576C293.537 115.579 297.826 118.952 297.404 122.976C295.496 125.343 293.654 127.774 290.302 128.808C290.19 128.044 289.201 128.082 288.896 127.513C288.896 126.451 289.895 126.274 289.595 124.914C288.61 123.982 286.96 123.656 286.056 122.65C286.463 120.442 285.498 119.473 284.649 118.439C288.606 118.318 290.368 113.557 291.751 110.054C290.738 108.387 289.243 107.157 287.495 106.16C285.474 107.306 283.36 106.496 281.105 107.092C279.634 108.21 281.809 111.126 279.699 111.955C277.257 111.023 273.352 108.834 270.465 110.334C269.527 111.648 271.402 112.356 270.465 113.902C269.058 114.75 266.246 114.349 265.149 115.514C265.458 117.778 267.305 119.315 270.118 118.756C271.993 118.393 272.776 115.346 274.383 115.188C278.246 114.824 280.112 120.778 276.502 123.293C272.691 122.65 271.632 121.802 267.994 123.293C265.561 122.268 261.225 116.902 259.472 121.989C261.666 124.159 265.51 125.939 264.441 130.094C265.739 130.094 266.035 131.026 266.921 131.389C268.28 130.793 269.157 129.759 270.465 129.125C273.31 130.293 276.263 129.844 278.987 127.83C282.493 129.498 286.674 130.532 288.207 133.979C286.581 136.122 283.304 136.289 283.604 138.842C283.768 140.333 286.81 141.311 287.86 142.727C289.806 145.345 289.899 148.736 292.463 148.885C291.32 145.485 289.806 139.243 292.126 136.895C294.587 137.361 294.381 140.035 293.888 142.41C295.59 145.14 303.039 147.031 304.14 143.668Z" fill="#E7D9C9"/>
</g>
<g style="mix-blend-mode:multiply" opacity="0.82">
<path d="M344.951 148.858C344.51 151.289 345.49 153.73 343.882 155.985C345.241 160.96 343.521 168.525 348.499 171.534C350.59 171.888 352.999 171.962 354.532 172.829C356.191 172.083 357.256 170.788 358.788 169.913C359.768 170.211 361.282 170.015 361.981 170.565C363.293 169.549 366.096 168.608 366.237 166.354C366.321 165.031 364.878 164.258 364.465 162.786C362.59 156.041 365.928 153.264 373.69 153.711C375.832 152.426 377.004 150.255 378.303 148.205C378.654 143.696 376.161 140.939 373.69 138.162C370.784 138.442 372.143 142.56 372.626 144.32C368.946 151.112 362.829 140.78 357.368 145.299C356.566 144.302 356.749 142.401 355.596 141.731C349.671 142.373 345.827 143.976 344.951 148.858Z" fill="#E7D9C9"/>
</g>
<g style="mix-blend-mode:multiply" opacity="0.82">
<path d="M340.685 115.159C344.932 114.749 341.121 108.805 338.913 107.706C335.327 109.737 337.699 115.411 340.685 115.159Z" fill="#E7D9C9"/>
</g>
<g style="mix-blend-mode:multiply" opacity="0.82">
<path d="M344.951 121.934C344.416 120.173 343.544 119.679 342.471 119.67C337.835 119.67 338.721 126.294 342.818 125.828C344.252 125.66 345.705 124.505 344.951 121.934Z" fill="#E7D9C9"/>
</g>
<g style="mix-blend-mode:multiply" opacity="0.82">
<path d="M392.853 134.604C391.039 135.927 388.452 136.691 386.816 138.163C384.898 139.905 384.092 143.752 382.92 146.911C382.114 149.072 379.17 154.541 383.267 154.69C384.805 154.746 384.762 153.06 386.112 151.448C387.012 150.367 390.144 147.013 391.428 145.942C393.036 144.619 394.616 144.61 394.977 143.026C395.445 141.041 393.463 140.156 394.273 138.815C398.052 139.178 399.402 141.768 403.03 142.28L402.974 133.737C402.157 132.83 401.238 132.346 400.302 132.331C397.48 132.256 396.603 136.43 392.853 134.604Z" fill="#E7D9C9"/>
</g>
<g style="mix-blend-mode:multiply" opacity="0.82">
<path d="M258.015 239.571C259.89 240.642 262.093 239.273 262.979 237.624C262.238 234.54 257.016 236.292 258.015 239.571Z" fill="#E7D9C9"/>
</g>
<g style="mix-blend-mode:multiply" opacity="0.82">
<path d="M333.597 155.985C330.93 152.752 329.21 149.789 323.655 152.1C323.767 155.733 325.263 159.609 324.728 162.786C320.688 163.422 316.623 162.879 312.662 161.174C312.208 161.565 311.738 161.877 311.256 162.106C310.647 170.109 324.527 164.901 324.381 172.466C324.1 172.54 323.969 172.745 324.03 173.118C322.698 173.984 320.805 172.726 319.764 173.444C318.358 174.152 320.528 177.17 318.002 177.329C315.766 177.422 316.126 175.149 314.448 174.739C308.453 177.934 305.856 173.425 301.675 171.497C300.268 172.903 301.468 175.223 301.675 177.012C302.64 178.065 304.712 178.121 305.579 179.276C305.486 180.599 304.258 180.878 304.515 182.509C305.537 183.589 309.09 183.85 310.895 183.161C313.665 184.092 312.719 187.13 314.097 188.993C315.034 190.269 316.994 190.409 318.353 191.266C320.477 192.589 322.431 195.803 325.094 194.499C325.68 191.797 325.774 188.648 326.866 186.403C323.959 184.54 318.559 184.912 317.641 181.223C319.745 180.552 321.391 179.453 323.317 178.624C326.453 183.282 329.411 178.624 331.131 175.708C330.925 174.385 329.491 174.18 329.345 172.792C331.572 169.419 327.058 168.739 326.866 165.665C327.402 164.967 328.011 164.524 328.647 164.37C331.347 165.786 330.696 170.267 334.675 170.528C337.3 168.171 341.824 167.556 341.411 162.423C339.822 160.224 335.917 158.808 333.597 155.985Z" fill="#E7D9C9"/>
</g>
<g style="mix-blend-mode:multiply" opacity="0.82">
<path d="M172.86 247.016C174.35 247.016 174.889 246.084 175.672 245.404C174.992 243.541 179.61 239.441 175.672 238.277C173.436 239.814 170.624 244.426 172.86 247.016Z" fill="#E7D9C9"/>
</g>
<g style="mix-blend-mode:multiply" opacity="0.82">
<path d="M253.758 136.225C256.388 135.815 258.066 134.687 257.302 132.014C255.563 132.684 253.936 133.467 253.046 134.93C252.774 135.815 253.749 135.582 253.758 136.225Z" fill="#E7D9C9"/>
</g>
<g style="mix-blend-mode:multiply" opacity="0.82">
<path d="M303.789 245.403C305.42 244.09 307.665 243.326 308.045 240.866C305.172 239.58 300.845 243.363 303.789 245.403Z" fill="#E7D9C9"/>
</g>
<g style="mix-blend-mode:multiply" opacity="0.82">
<path d="M316.919 233.097C315.906 234.159 313.788 233.879 314.786 235.677C319.825 234.448 322.253 230.833 324.728 227.293C320.453 226.37 319.338 230.525 316.919 233.097Z" fill="#E7D9C9"/>
</g>
<g style="mix-blend-mode:multiply" opacity="0.82">
<path d="M137.023 240.252C135.2 239.46 134.82 242.767 132.05 242.19C131.112 239.236 132.439 235.668 133.456 233.442C133.076 232.398 131.712 232.23 130.972 231.494C132.176 228.364 137.483 227.321 136.297 223.11C131.14 222.355 129.439 229.538 126.354 229.585C121.099 229.668 126.532 226.51 127.067 225.047C127.925 222.718 126.551 221.572 127.067 218.899C125.267 215.834 121.296 216.709 117.485 215.647C115.61 216.942 116.154 220.492 116.782 222.458C117.846 222.886 119.595 222.681 120.678 223.11C121.354 224.744 122.202 226.067 123.162 226.985C122.693 228.718 120.307 228.699 118.906 229.585C117.26 231.345 117.157 235.174 118.906 237.038C120.256 237.643 122.398 237.522 123.162 238.649C124.193 240.764 123.059 244.239 124.568 246.429C124.17 247.901 122.717 248.413 122.449 249.997C123.844 252.067 124.837 255.027 125.262 258.382C129.95 257.99 131.065 253.22 128.806 249.997C129.546 248.283 132.134 247.947 133.423 246.429C134.093 245.637 133.892 244.323 134.483 243.513C135.387 242.273 138.486 241.901 137.023 240.252Z" fill="#E7D9C9"/>
</g>
<g style="mix-blend-mode:multiply" opacity="0.82">
<path d="M175.691 226.613C175.639 230.013 181.143 230.405 181.016 226.613C179.825 226.007 176.938 226.222 175.691 226.613Z" fill="#E7D9C9"/>
</g>
<g style="mix-blend-mode:multiply" opacity="0.82">
<path d="M211.888 123.583V122.297C210.951 122.204 210.36 122.409 210.482 123.229C210.939 123.489 211.413 123.608 211.888 123.583Z" fill="#E7D9C9"/>
</g>
<g style="mix-blend-mode:multiply" opacity="0.82">
<path d="M11.766 382.448C11.766 380.137 10.2332 378.023 9.27222 377.585H9.08472C9.08472 379.401 9.08472 381.218 9.10816 383.035C10.0043 383.334 10.9248 383.131 11.766 382.448Z" fill="#E7D9C9"/>
</g>
<g style="mix-blend-mode:multiply" opacity="0.82">
<path d="M39.0806 332.875C39.2446 335.418 42.1416 335.94 42.2775 339.024C42.3478 340.514 40.7822 341.94 41.2134 343.235C41.6447 344.53 43.2947 345.331 45.1182 344.856C46.1401 340.691 45.1182 336.359 45.8307 332.232C43.3556 331.962 40.3368 330.499 39.0806 332.875Z" fill="#E7D9C9"/>
</g>
<g style="mix-blend-mode:multiply" opacity="0.82">
<path d="M85.9189 293.355C74.3593 294.137 90.7189 302 85.9189 293.355V293.355Z" fill="#E7D9C9"/>
</g>
<g style="mix-blend-mode:multiply" opacity="0.82">
<path d="M31.6319 333.201C30.8725 333.201 29.0162 334.477 29.1475 336.117C32.4569 338.399 35.6117 333.042 31.6319 333.201Z" fill="#E7D9C9"/>
</g>
<g style="mix-blend-mode:multiply" opacity="0.82">
<path d="M39.4414 328.338C42.6055 328.338 44.7196 323.335 41.2133 322.832C39.4883 323.512 37.8242 326.652 39.4414 328.338Z" fill="#E7D9C9"/>
</g>
<g style="mix-blend-mode:multiply" opacity="0.82">
<path d="M71.0217 298.851C74.453 298.479 71.6404 294.547 69.6154 296.587C69.456 297.901 69.7326 298.851 71.0217 298.851Z" fill="#E7D9C9"/>
</g>
<g style="mix-blend-mode:multiply" opacity="0.82">
<path d="M17.7942 381.469C18.6802 381.209 19.6927 381.041 19.5661 379.858C18.873 379.411 18.1264 379.411 17.4333 379.858C17.3842 380.168 17.3938 380.503 17.4603 380.799C17.5267 381.096 17.6455 381.335 17.7942 381.469Z" fill="#E7D9C9"/>
</g>
<g style="mix-blend-mode:multiply" opacity="0.82">
<path d="M9.98469 420.674C10.0316 419.5 9.13154 418.876 8.90654 417.981C8.88466 419.844 8.85967 421.667 8.83154 423.45C9.3753 422.528 9.95656 421.615 9.98469 420.674Z" fill="#E7D9C9"/>
</g>
<g style="mix-blend-mode:multiply" opacity="0.82">
<path d="M9.63331 391.178C10.9646 390.879 10.974 389.379 12.4693 389.23C12.1084 388.299 12.2021 386.883 11.4052 386.314C10.6449 386.164 9.87937 386.148 9.11768 386.268V389.789C9.29112 390.246 9.28642 390.898 9.63331 391.178Z" fill="#E7D9C9"/>
</g>
<g style="mix-blend-mode:multiply" opacity="0.82">
<path d="M15.3145 365.604C16.9504 366.088 18.7552 366.032 19.2146 364.625C19.3599 363.088 18.0005 362.921 18.1458 361.383C16.7958 361.122 16.777 362.082 16.3739 362.678C14.7145 361.476 10.3034 360.508 12.4691 357.824C11.3207 357.368 10.0456 356.464 8.80811 355.784C8.87373 359.045 8.92842 362.33 8.97217 365.641C10.1034 366.582 11.2734 367.327 12.4691 367.868C13.6644 367.327 14.9723 366.955 15.3145 365.604Z" fill="#E7D9C9"/>
</g>
<g style="mix-blend-mode:multiply" opacity="0.82">
<path d="M23.1101 387.637C24.6242 387.925 24.9054 387.106 25.2429 386.332C24.4929 386.034 24.1929 385.345 23.1101 385.401C22.421 386.248 22.421 386.733 23.1101 387.637Z" fill="#E7D9C9"/>
</g>
<g style="mix-blend-mode:multiply" opacity="0.82">
<path d="M237.427 79.5256C236.734 79.1725 236.015 79.0622 235.303 79.1996V81.1467C236.531 81.0815 237.614 80.8765 237.427 79.5256Z" fill="#E7D9C9"/>
</g>
<g style="mix-blend-mode:multiply" opacity="0.82">
<path d="M152.38 504.838L152.755 506.925L153.153 506.999C152.967 506.187 152.705 505.453 152.38 504.838Z" fill="#E7D9C9"/>
</g>
<g style="mix-blend-mode:multiply" opacity="0.82">
<path d="M126.021 489.68C123.992 488.748 124.062 485.851 121.052 485.795C123.031 490.174 128.346 494.105 126.021 500.375C127.639 501.838 127.174 503.897 127.793 505.564C128.133 506.362 128.533 507.05 128.979 507.605L138.411 507.465L139.737 502.229C138.415 502.387 137.023 502.49 135.603 502.639C131.534 499.127 128.243 494.878 126.021 489.68Z" fill="#E7D9C9"/>
</g>
<g style="mix-blend-mode:multiply" opacity="0.82">
<path d="M156.538 502.638C157.756 504.753 157.377 506.123 156.702 507.697L160.972 508.526C160.419 507.837 160.128 506.998 160.442 506.216C160.788 506.041 161.147 505.987 161.502 506.057C161.722 505.042 161.971 503.803 162.289 502.499C160.649 503.253 158.352 502.126 156.538 502.638Z" fill="#E7D9C9"/>
</g>
<g style="mix-blend-mode:multiply" opacity="0.82">
<path d="M369.354 509.962L377.037 510.893L377.351 508.098C375.884 508.601 374.375 509.123 372.978 509.412C371.581 509.701 370.32 509.682 369.354 509.962Z" fill="#E7D9C9"/>
</g>
<g style="mix-blend-mode:multiply" opacity="0.82">
<path d="M398.53 507.176C395.249 507.558 395.788 511.126 392.853 512.682C391.109 511.806 389.253 511.983 387.523 510.744C385.709 509.44 385.648 507.222 383.267 506.85C382.437 506.768 381.605 506.843 380.783 507.073L381.43 511.974L406.888 514.089L406.761 510.791C403.471 509.71 401.497 506.84 398.53 507.176Z" fill="#E7D9C9"/>
</g>
<g style="mix-blend-mode:multiply" opacity="0.82">
<path d="M385.761 280.396C385.679 281.545 386.267 282.085 387.523 282.017C388.779 280.89 386.979 279.241 385.761 280.396Z" fill="#E7D9C9"/>
</g>
<g style="mix-blend-mode:multiply" opacity="0.82">
<path d="M364.807 13.4343C366.931 14.3659 368.506 12.3256 370.845 11.4872C375.532 9.81022 381.537 8.9438 385.376 6.95009C385.687 6.78294 385.992 6.57758 386.29 6.33521L364.399 7.8072C364.099 9.67048 364.629 11.9996 364.807 13.4343Z" fill="#E7D9C9"/>
</g>
<g style="mix-blend-mode:multiply" opacity="0.82">
<path d="M398.53 10.2023C399.303 8.41304 400.165 6.7837 401.103 5.33911L394.977 5.74904C395.633 7.51915 396.163 9.52218 398.53 10.2023Z" fill="#E7D9C9"/>
</g>
<g style="mix-blend-mode:multiply" opacity="0.82">
<path d="M308.397 21.8568C309.48 24.8008 307.014 28.3783 310.178 28.9838C313.342 29.5894 312.423 25.6113 315.855 25.7417C317.823 26.7479 316.792 30.5117 318.667 31.5738C325.886 32.1141 326.917 27.0181 331.792 25.425C333.944 23.4965 333.893 19.8351 336.405 17.3197C338.646 15.1117 343.497 14.9813 340.661 9.86657C340.749 9.67354 340.85 9.50716 340.961 9.3728L316.173 11.0684C318.892 12.1864 316.825 16.062 315.142 16.0527C312.437 16.0527 313.675 12.5031 315.142 11.1429L307.619 11.6181L306.784 19.7885C307.412 20.1503 307.972 20.8693 308.397 21.8568Z" fill="#E7D9C9"/>
</g>
<g style="mix-blend-mode:multiply" opacity="0.82">
<path d="M62.8607 244.425C62.9451 240.457 59.1106 234.28 53.6308 235.677C53.1339 236.422 52.4027 236.935 51.8589 237.624C51.2167 240.27 55.9699 239.637 57.184 243.14C58.5247 247.025 57.8965 252.67 54.6902 252.847C52.5386 252.978 52.7355 250.984 50.087 250.909C48.1182 251.273 48.5214 253.798 46.5291 254.152C46.2244 253.462 45.4604 253.22 45.4697 252.204C46.8104 250.714 50.2183 248.823 48.3151 246.372C43.8197 245.944 44.2556 250.015 40.8618 250.583C39.3618 250.434 38.9493 249.307 36.9571 249.652C32.3632 253.285 39.9899 258.037 44.0494 256.779C47.0166 259.527 43.2525 264.912 39.0806 265.164C37.5149 268.583 34.6836 270.856 29.4991 270.996C28.1303 272.374 28.8522 275.095 30.5726 275.533C32.1898 275.402 32.8507 274.378 34.468 274.238C36.1133 274.573 36.868 275.728 38.729 275.849C42.6056 273.716 45.9432 276.185 50.087 276.502C52.1449 274.992 50.3214 273.064 50.087 270.996C51.2917 269.328 53.1996 270.288 55.4027 269.71C56.5043 266.673 58.595 261.595 60.0153 256.415C60.8497 253.378 60.6341 250.183 61.4216 247.667C61.8529 246.382 62.8279 245.72 62.8607 244.425Z" fill="#E7D9C9"/>
</g>
<g style="mix-blend-mode:multiply" opacity="0.82">
<path d="M65.6969 292.703C68.0407 293.103 69.5266 290.225 68.5375 288.492C66.2594 284.486 60.9858 291.892 65.6969 292.703Z" fill="#E7D9C9"/>
</g>
<g style="mix-blend-mode:multiply" opacity="0.82">
<path d="M62.4997 268.079C61.0371 269.505 62.2418 271.564 64.2716 271.638C66.1372 270.558 65.1294 267.8 62.4997 268.079Z" fill="#E7D9C9"/>
</g>
<g style="mix-blend-mode:multiply" opacity="0.82">
<path d="M30.2117 261.931C27.9851 262.611 27.9851 266.095 30.2117 266.785C33.7743 266.477 33.3946 262.434 30.2117 261.931Z" fill="#E7D9C9"/>
</g>
<g style="mix-blend-mode:multiply" opacity="0.82">
<path d="M67.4687 255.763C66.7562 256.303 65.8187 256.639 65.6968 257.719C67.4171 258.949 66.7562 262.378 69.25 262.89C71.6406 261.427 70.7734 255.847 67.4687 255.763Z" fill="#E7D9C9"/>
</g>
<g style="mix-blend-mode:multiply" opacity="0.82">
<path d="M402.083 222.718C402.452 222.789 402.824 222.789 403.194 222.718L402.664 220.156C401.689 220.371 401.37 221.992 402.083 222.718Z" fill="#E7D9C9"/>
</g>
<g style="mix-blend-mode:multiply" opacity="0.82">
<path d="M148.709 35.1412C148.225 34.8318 147.708 34.7888 147.213 35.0168C146.718 35.2448 146.263 35.7353 145.896 36.4362C146.937 37.1536 149.131 36.753 148.709 35.1412Z" fill="#E7D9C9"/>
</g>
<g style="mix-blend-mode:multiply" opacity="0.82">
<path d="M192.721 34.4893C194.277 32.3465 195.454 25.9648 191.315 25.7412C188.919 27.884 190.148 33.1664 192.721 34.4893Z" fill="#E7D9C9"/>
</g>
<g style="mix-blend-mode:multiply" opacity="0.82">
<path d="M65.8703 8.27271H62.2046C63.422 8.56507 64.6529 8.56507 65.8703 8.27271Z" fill="#E7D9C9"/>
</g>
<g style="mix-blend-mode:multiply" opacity="0.82">
<path d="M122.459 65.597C120.757 65.6808 117.696 69.9384 120.326 72.0719C122.529 71.1868 127.526 65.3455 122.459 65.597Z" fill="#E7D9C9"/>
</g>
<g style="mix-blend-mode:multiply" opacity="0.82">
<path d="M206.559 45.1852C211.668 44.3747 208.561 34.4341 205.5 32.2261C202.757 31.9839 201.628 33.223 200.531 34.49C201.356 38.8873 201.21 46.033 206.559 45.1852Z" fill="#E7D9C9"/>
</g>
<g style="mix-blend-mode:multiply" opacity="0.82">
<path d="M155.464 16.9932C154.714 18.8565 149.942 19.5925 152.272 22.1824C154.541 22.5178 154.424 20.6918 156.177 20.5614C157.208 21.2758 158.284 21.7114 159.374 21.8563C163.7 19.3409 158.371 16.6671 157.967 15.3349C157.71 14.5243 158.474 12.8753 158.328 12.0928C158.127 11.0027 157.391 9.67049 156.425 8.3662L152.085 8.3103C154.386 10.5462 153.561 14.1424 155.464 16.9932Z" fill="#E7D9C9"/>
</g>
<g style="mix-blend-mode:multiply" opacity="0.82">
<path d="M215.793 44.5327C223.715 45.0357 221.695 36.5578 216.501 37.0795C212.929 37.4429 213.07 42.7439 215.793 44.5327Z" fill="#E7D9C9"/>
</g>
<g style="mix-blend-mode:multiply" opacity="0.82">
<path d="M196.095 8.20752H196.053L195.88 13.7974C196.237 12.0216 196.312 10.0708 196.095 8.20752Z" fill="#E7D9C9"/>
</g>
<g style="mix-blend-mode:multiply" opacity="0.82">
<path d="M192.721 13.7607C189.58 15.2792 185.376 21.6423 190.602 24.1205C191.832 22.7047 192.973 21.0034 194.001 19.0524L192.702 12.4377C192.69 12.879 192.697 13.3215 192.721 13.7607Z" fill="#E7D9C9"/>
</g>
<g style="mix-blend-mode:multiply" opacity="0.82">
<path d="M149.788 75.9565V77.5776H151.92C152.202 75.91 150.903 75.4907 149.788 75.9565Z" fill="#E7D9C9"/>
</g>
<g style="mix-blend-mode:multiply" opacity="0.82">
<path d="M147.669 77.9039V76.6089H145.536C145.039 78.1461 146.834 78.5653 147.669 77.9039Z" fill="#E7D9C9"/>
</g>
<g style="mix-blend-mode:multiply" opacity="0.82">
<path d="M231.403 57.4922C233.812 54.4084 230.873 49.303 226.073 49.7223C224.376 51.0266 224.808 53.5141 225.365 55.8711C227.281 57.3879 229.354 57.9446 231.403 57.4922Z" fill="#E7D9C9"/>
</g>
<g style="mix-blend-mode:multiply" opacity="0.82">
<path d="M180.66 72.0727C182.16 71.8118 183.472 70.284 184.926 69.8088C187.869 68.8772 192.426 68.961 196.645 68.5138C199.457 68.2064 202.612 66.9394 204.806 67.2189C206.474 67.4238 207.97 69.6225 209.77 69.4734C210.415 69.5165 211.055 69.2076 211.618 68.5803C212.182 67.953 212.648 67.0311 212.967 65.9146C208.978 64.9177 205.045 63.865 200.549 63.3246C197.995 60.8744 198.206 56.6261 197.357 53.2815C197.02 51.9679 195.824 50.7847 195.585 49.3966C194.999 46.0613 197.226 41.1888 193.813 39.3535C191.638 40.6951 193.246 42.9403 193.452 44.8595C193.743 47.5613 192.73 50.5891 193.101 52.9555C193.33 54.4274 195.06 55.4709 195.585 57.1665C196.377 59.7471 195.885 61.6849 195.585 64.3028C194.894 64.8509 194.18 65.2841 193.452 65.5978C190.443 66.399 185.98 66.2034 182.807 67.2189C181.016 67.7872 180.036 69.697 178.194 69.8088C176.896 69.8834 175.536 68.6163 174.299 68.8306C171.486 69.7063 170.343 72.1379 167.202 72.7248C162.481 70.5355 158.216 74.3925 155.136 76.6098C158.174 79.4886 160.906 75.8738 163.653 75.3148C165.224 74.9981 167.047 75.6409 168.622 75.3148C171.435 74.7186 172.949 72.0727 176.071 71.7466C177.421 71.6255 179.179 72.3336 180.66 72.0727Z" fill="#E7D9C9"/>
</g>
<g style="mix-blend-mode:multiply" opacity="0.82">
<path d="M212.596 71.1026C213.093 72.7703 215.329 72.3697 216.501 71.4287C216.811 68.9599 212.718 68.9971 212.596 71.1026Z" fill="#E7D9C9"/>
</g>
<g style="mix-blend-mode:multiply" opacity="0.82">
<path d="M310.9 358.467C310.755 359.082 310.136 359.278 310.197 360.088C310.712 361.234 312.114 361.579 313.389 362.035C314.959 360.163 312.911 358.831 310.9 358.467Z" fill="#E7D9C9"/>
</g>
<g style="mix-blend-mode:multiply" opacity="0.82">
<path d="M70.3094 406.419C69.3016 406.904 68.7953 407.845 67.4687 408.04C66.5078 407.723 65.7577 407.23 65.6968 406.093C66.1874 405.243 66.8181 404.782 67.4687 404.798C68.7953 404.798 68.5375 406.196 70.3094 405.776C71.1063 405.189 71.1438 404.137 70.661 403.177C65.6968 401.584 59.5326 403.224 59.3076 408.683C63.3858 409.382 65.4671 411.925 68.8891 413.22C71.6313 412.251 74.7626 407.64 70.3094 406.419Z" fill="#E7D9C9"/>
</g>
<g style="mix-blend-mode:multiply" opacity="0.82">
<path d="M75.639 392.482C76.2344 392.608 76.8364 392.5 77.4109 392.165V391.233C76.4734 391.233 75.3203 391.047 75.2781 391.876C75.5546 391.913 75.6906 392.109 75.639 392.482Z" fill="#E7D9C9"/>
</g>
<g style="mix-blend-mode:multiply" opacity="0.82">
<path d="M178.175 425.211C177.402 426.282 179.216 428.089 177.824 428.77C174.66 427.978 171.374 429.981 170.375 432.981C172.25 435.235 181.565 433.297 183.5 430.391C185.84 426.878 181.494 421.969 178.175 425.211Z" fill="#E7D9C9"/>
</g>
<g style="mix-blend-mode:multiply" opacity="0.82">
<path d="M87.3393 414.841C86.6221 414.934 86.6408 415.716 85.933 415.819C85.8111 417.682 86.5424 418.716 88.0659 419.052C90.4659 418.66 90.1143 414.813 87.3393 414.841Z" fill="#E7D9C9"/>
</g>
<g style="mix-blend-mode:multiply" opacity="0.82">
<path d="M96.9254 389.575C95.266 398.192 106.197 389.044 96.9254 389.575V389.575Z" fill="#E7D9C9"/>
</g>
<g style="mix-blend-mode:multiply" opacity="0.82">
<path d="M200.531 402.208C201.562 403.689 201.965 403.745 202.303 405.776C201.975 406.763 200.582 406.782 200.531 408.04C200.564 409.092 201 409.791 201.937 409.987C203.048 409.922 202.406 408.235 203.709 408.366C204.689 408.878 204.759 410.229 206.522 409.987C211.898 405.412 204.839 401.052 200.531 402.208Z" fill="#E7D9C9"/>
</g>
<g style="mix-blend-mode:multiply" opacity="0.82">
<path d="M57.8964 410.304C57.6292 409.316 58.5011 409.372 58.2433 408.366C56.9355 408.468 55.1026 408.077 54.3385 408.682C54.4229 409.297 53.9401 409.4 53.9917 409.987C54.9198 411.142 56.0589 410.08 57.8964 410.304Z" fill="#E7D9C9"/>
</g>
<g style="mix-blend-mode:multiply" opacity="0.82">
<path d="M186.346 418.726C183.407 418.726 181.841 425.48 187.752 424.884C188.315 423.095 189.59 418.698 186.346 418.726Z" fill="#E7D9C9"/>
</g>
<g style="mix-blend-mode:multiply" opacity="0.82">
<path d="M111.471 424.558C109.554 424.94 109.709 428.014 111.823 428.126C113.74 427.744 113.585 424.66 111.471 424.558Z" fill="#E7D9C9"/>
</g>
<g style="mix-blend-mode:multiply" opacity="0.82">
<path d="M122.459 422.61C123.279 421.623 122.684 419.769 120.673 420.346C120.673 421.11 120.068 421.278 120.326 422.293C121.022 422.647 121.744 422.754 122.459 422.61Z" fill="#E7D9C9"/>
</g>
<g style="mix-blend-mode:multiply" opacity="0.82">
<path d="M22.763 423.589C19.5379 424.428 17.7144 426.543 16.3738 429.095C19.4535 434.965 28.2381 427.139 22.763 423.589Z" fill="#E7D9C9"/>
</g>
<g style="mix-blend-mode:multiply" opacity="0.82">
<path d="M71.0218 426.504C72.5874 427.045 73.8671 425.461 73.8343 423.588C72.0624 421.809 69.7842 424.66 71.0218 426.504Z" fill="#E7D9C9"/>
</g>
<g style="mix-blend-mode:multiply" opacity="0.82">
<path d="M56.4714 422.611C56.5464 422.359 56.7714 422.238 57.1839 422.294C57.9668 420.896 57.2542 419.313 55.7777 419.052C55.1917 419.806 53.7901 419.844 54.0057 421.325C54.4886 422.033 54.9292 422.853 56.4714 422.611Z" fill="#E7D9C9"/>
</g>
<g style="mix-blend-mode:multiply" opacity="0.82">
<path d="M124.948 381.153C125.074 378.358 121.301 379.085 119.271 378.237C117.715 381.097 122.805 382.653 124.948 381.153Z" fill="#E7D9C9"/>
</g>
<g style="mix-blend-mode:multiply" opacity="0.82">
<path d="M119.984 374.994C122.721 375.237 125.351 375.479 127.793 375.311C129.298 371.482 119.665 369.628 119.632 374.379C119.909 374.407 120.045 374.612 119.984 374.994Z" fill="#E7D9C9"/>
</g>
<g style="mix-blend-mode:multiply" opacity="0.82">
<path d="M188.469 383.417C187.129 381.302 184.551 380.306 181.368 379.858C181.078 380.399 180.705 380.728 180.308 380.79C180.06 382.104 180.646 382.653 180.66 383.715C182.46 385.225 187.757 386.203 188.469 383.417Z" fill="#E7D9C9"/>
</g>
<g style="mix-blend-mode:multiply" opacity="0.82">
<path d="M165.758 379.205C167.286 379.718 168.847 379.718 170.375 379.205C169.841 377.538 168.233 376.839 166.119 376.606C165.317 377.202 165.275 378.246 165.758 379.205Z" fill="#E7D9C9"/>
</g>
<g style="mix-blend-mode:multiply" opacity="0.82">
<path d="M120.691 398.966C121.301 399.022 125.904 397.737 126.021 397.681C129.246 395.706 129.771 389.65 130.985 387.302C130.906 387.051 130.685 386.939 130.273 386.976C127.268 387.144 126.523 389.371 126.021 391.839C124.517 394.141 118.788 392.585 117.148 394.755C117.129 397.411 118.54 398.771 120.691 398.966Z" fill="#E7D9C9"/>
</g>
<g style="mix-blend-mode:multiply" opacity="0.82">
<path d="M194.507 404.155C193.569 403.093 190.218 404.527 188.118 404.471C188.404 405.403 187.611 405.31 187.757 406.093C190.33 406.847 193.555 405.906 194.507 404.155Z" fill="#E7D9C9"/>
</g>
<g style="mix-blend-mode:multiply" opacity="0.82">
<path d="M67.8294 390.246C69.4841 388.597 73.792 386.165 71.0216 383.445C66.6762 382.858 62.2652 389.482 67.8294 390.246Z" fill="#E7D9C9"/>
</g>
<g style="mix-blend-mode:multiply" opacity="0.82">
<path d="M169.663 371.426H168.257C168.236 371.691 168.261 371.962 168.326 372.196C168.391 372.43 168.494 372.615 168.617 372.721C169.532 372.814 169.766 372.274 169.663 371.426Z" fill="#E7D9C9"/>
</g>
<g style="mix-blend-mode:multiply" opacity="0.82">
<path d="M94.4411 383.417C95.5239 382.979 99.8505 378.861 99.7568 377.585C99.3865 372.293 90.1144 379.066 94.4411 383.417Z" fill="#E7D9C9"/>
</g>
<g style="mix-blend-mode:multiply" opacity="0.82">
<path d="M111.471 370.132C110.533 373.7 106.568 375.135 107.918 379.858C104.496 381.209 103.507 386.519 108.279 387.311C109.38 386.492 109.465 384.721 109.338 382.774C112.315 380.25 114.963 378.666 114.668 373.709C113.843 372.824 112.882 372.088 112.896 370.467C116.604 369.247 115.591 366.256 113.243 364.309C114.232 362.8 113.768 361.123 111.837 360.741C109.001 362.735 109.516 367.719 111.471 370.132Z" fill="#E7D9C9"/>
</g>
<g style="mix-blend-mode:multiply" opacity="0.82">
<path d="M139.859 378.879C141.95 376.802 144.926 375.516 144.823 371.426C141.589 371.482 139.756 375.376 137.726 377.584C138.106 378.32 138.804 378.768 139.859 378.879Z" fill="#E7D9C9"/>
</g>
<g style="mix-blend-mode:multiply" opacity="0.82">
<path d="M126.021 368.818C128.173 367.336 128.44 364.159 131.337 363.312C129.532 356.706 120.138 366.47 126.021 368.818Z" fill="#E7D9C9"/>
</g>
<g style="mix-blend-mode:multiply" opacity="0.82">
<path d="M62.8608 399.944C68.3312 400.988 70.9282 394.839 66.4047 394.112C63.5124 393.637 59.8842 396.917 62.8608 399.944Z" fill="#E7D9C9"/>
</g>
<g style="mix-blend-mode:multiply" opacity="0.82">
<path d="M77.4111 464.413C76.122 464.823 75.3673 467.05 76.6986 467.982C80.5706 468.261 80.2706 464.851 77.4111 464.413Z" fill="#E7D9C9"/>
</g>
<g style="mix-blend-mode:multiply" opacity="0.82">
<path d="M179.957 449.871C176.207 449.461 178.082 442.287 173.567 443.349C170.685 444.057 170.436 451.734 173.919 453.076C174.927 453.756 176.61 451.352 177.824 453.076C177.111 454.594 176.01 455.74 174.978 456.961C176.713 460.464 171.425 463.035 174.632 466.035C179.052 463.799 179.371 457.827 183.14 455.013C181.873 453.873 180.777 452.101 179.957 449.871Z" fill="#E7D9C9"/>
</g>
<g style="mix-blend-mode:multiply" opacity="0.82">
<path d="M83.0828 466.035H82.0093C82.0093 466.967 81.8031 468.169 83.0828 467.982C83.1884 467.92 83.2811 467.792 83.347 467.616C83.4128 467.441 83.4484 467.228 83.4484 467.009C83.4484 466.79 83.4128 466.577 83.347 466.401C83.2811 466.226 83.1884 466.097 83.0828 466.035Z" fill="#E7D9C9"/>
</g>
<g style="mix-blend-mode:multiply" opacity="0.82">
<path d="M24.5351 453.402C24.2257 454.846 24.8445 456.532 26.6679 456.96C27.7883 456.476 28.0742 455.209 29.8602 455.339C33.2821 456.122 29.6774 460.128 32.6728 460.845C34.7025 460.23 32.9446 457.985 32.6728 456.634C37.4447 451.566 25.4257 449.135 24.5351 453.402Z" fill="#E7D9C9"/>
</g>
<g style="mix-blend-mode:multiply" opacity="0.82">
<path d="M108.987 431.368C108.639 431.42 108.3 431.619 107.995 431.954C107.689 432.288 107.423 432.749 107.215 433.306C110.876 439.212 115.132 430.194 108.987 431.368Z" fill="#E7D9C9"/>
</g>
<g style="mix-blend-mode:multiply" opacity="0.82">
<path d="M156.537 434.601C154.437 436.707 157.808 439.986 158.661 442.38C161.155 441.961 162.223 440.228 164.699 439.79C164.253 435.971 159.753 435.896 156.537 434.601Z" fill="#E7D9C9"/>
</g>
<g style="mix-blend-mode:multiply" opacity="0.82">
<path d="M138.786 432.664C138.622 433.679 139.292 433.931 139.507 434.602C141.054 434.509 142.198 434.043 141.992 432.338C140.989 431.527 139.948 432.627 138.786 432.664Z" fill="#E7D9C9"/>
</g>
<g style="mix-blend-mode:multiply" opacity="0.82">
<path d="M116.44 445.948C119.435 445.743 119.29 440.293 115.034 440.432C113.459 442.659 113.524 446.143 116.44 445.948Z" fill="#E7D9C9"/>
</g>
<g style="mix-blend-mode:multiply" opacity="0.82">
<path d="M74.2141 482.869C75.2511 483.564 76.3741 483.564 77.4111 482.869V481.258C75.6579 481.183 74.5376 481.658 74.2141 482.869Z" fill="#E7D9C9"/>
</g>
<g style="mix-blend-mode:multiply" opacity="0.82">
<path d="M56.4717 467.656C59.8936 460.603 48.9012 462.83 53.631 467.982C54.581 468.059 55.5325 467.95 56.4717 467.656Z" fill="#E7D9C9"/>
</g>
<g style="mix-blend-mode:multiply" opacity="0.82">
<path d="M47.2416 483.53C48.0432 481.211 44.8509 481.201 44.0494 482.226C43.9978 484.192 45.8916 484.425 47.2416 483.53Z" fill="#E7D9C9"/>
</g>
<g style="mix-blend-mode:multiply" opacity="0.82">
<path d="M101.177 460.203C102.363 460.52 102.344 459.756 102.241 458.899C101.313 458.796 101.074 459.346 101.177 460.203Z" fill="#E7D9C9"/>
</g>
<g style="mix-blend-mode:multiply" opacity="0.82">
<path d="M130.624 446.908C129.317 449.07 124.638 448.138 124.948 451.781C129.274 453.895 135.115 448.837 130.624 446.908Z" fill="#E7D9C9"/>
</g>
<g style="mix-blend-mode:multiply" opacity="0.82">
<path d="M111.471 458.899C117.654 458.75 114.307 451.576 110.758 451.129C108.883 448.502 106.507 446.368 104.726 443.676C103.929 442.874 104.59 440.778 102.602 441.076C102.879 443.657 104.66 447.598 106.854 449.461C107.126 453.542 110.454 454.827 112.183 457.566C112.146 458.442 110.524 458.079 111.471 458.899Z" fill="#E7D9C9"/>
</g>
<g style="mix-blend-mode:multiply" opacity="0.82">
<path d="M38.7288 454.045C38.6304 454.706 37.7913 454.687 37.6694 455.34C38.8132 456.551 38.3398 459.252 40.8617 459.224C42.9336 457.79 41.6164 453.84 38.7288 454.045Z" fill="#E7D9C9"/>
</g>
<g style="mix-blend-mode:multiply" opacity="0.82">
<path d="M166.119 453.402C162.556 456.644 164.811 463.976 171.088 460.52C172.766 457.408 171.167 452.451 166.119 453.402Z" fill="#E7D9C9"/>
</g>
<g style="mix-blend-mode:multiply" opacity="0.82">
<path d="M66.4045 451.128C66.0342 452.349 65.467 452.703 66.4045 453.718C68.9405 453.979 68.2186 451.165 66.4045 451.128Z" fill="#E7D9C9"/>
</g>
<g style="mix-blend-mode:multiply" opacity="0.82">
<path d="M40.501 437.526C47.2605 437.19 39.1744 430.557 39.4416 436.864C39.8099 436.974 40.1673 437.197 40.501 437.526Z" fill="#E7D9C9"/>
</g>
<g style="mix-blend-mode:multiply" opacity="0.82">
<path d="M54.3388 440.433C54.217 438.057 54.1748 435.626 51.8591 435.253C49.6512 435.998 49.0465 439.566 51.1466 440.759C52.3232 440.74 52.9185 440.209 54.3388 440.433Z" fill="#E7D9C9"/>
</g>
<g style="mix-blend-mode:multiply" opacity="0.82">
<path d="M30.2117 439.473C31.2008 441.271 34.8993 443.116 36.9571 441.085C37.6415 436.995 30.7039 435.216 30.2117 439.473Z" fill="#E7D9C9"/>
</g>
<g style="mix-blend-mode:multiply" opacity="0.82">
<path d="M42.6384 447.234C42.5234 447.323 42.4246 447.48 42.355 447.682C42.2853 447.885 42.248 448.125 42.248 448.371C42.248 448.616 42.2853 448.856 42.355 449.059C42.4246 449.261 42.5234 449.418 42.6384 449.507C45.1135 450.029 45.4791 446.489 42.6384 447.234Z" fill="#E7D9C9"/>
</g>
<g style="mix-blend-mode:multiply" opacity="0.82">
<path d="M11.405 447.895C11.3254 445.911 9.44094 445.585 8.92531 444.001C13.8145 441.448 11.1425 438.719 8.5503 438.607C8.4753 442.116 8.39717 445.551 8.31592 448.911C9.22537 448.675 10.1411 448.548 11.0582 448.529C11.1285 448.277 11.0582 447.895 11.405 447.895Z" fill="#E7D9C9"/>
</g>
<g style="mix-blend-mode:multiply" opacity="0.82">
<path d="M42.6384 442.418C41.443 442.082 42.0806 443.424 41.9259 444.039C43.1493 444.225 43.1915 442.865 42.6384 442.418Z" fill="#E7D9C9"/>
</g>
<g style="mix-blend-mode:multiply" opacity="0.82">
<path d="M179.244 340.329C176.104 339.835 176.751 342.807 175.691 344.214C174.285 344.763 173 345.434 173.207 347.456C173.342 347.462 173.474 347.523 173.597 347.635C173.719 347.748 173.829 347.908 173.919 348.108C177.73 347.474 180.491 344.54 179.244 340.329Z" fill="#E7D9C9"/>
</g>
<g style="mix-blend-mode:multiply" opacity="0.82">
<path d="M254.11 456.308C253.819 458.525 255.075 459.326 256.589 459.876C259.099 457.204 261.913 455.866 264.76 455.991C265.175 454.027 265.928 452.42 266.883 451.454C265.477 450.522 263.269 450.429 261.207 450.159C259.768 452.292 256.303 452.591 254.11 454.044C253.388 453.83 254.016 452.404 252.703 452.74C250.388 453.653 252.966 455.656 254.11 456.308Z" fill="#E7D9C9"/>
</g>
<g style="mix-blend-mode:multiply" opacity="0.82">
<path d="M263.691 459.878C259.974 460.809 256.285 459.961 255.179 463.436C257.644 465.458 261.54 462.775 266.176 463.12C267.381 463.744 268.206 464.722 270.081 464.731C272.19 464.601 273.16 458.21 270.081 458.21C268.627 459.365 268.524 461.759 266.176 462.095C265.637 461.126 263.837 461.266 263.691 459.878Z" fill="#E7D9C9"/>
</g>
<g style="mix-blend-mode:multiply" opacity="0.82">
<path d="M228.919 468.942C230.948 468.746 232.463 468.075 232.463 466.035C230.925 464.274 227.381 465.103 227.855 467.982C228.254 468.052 228.629 468.391 228.919 468.942Z" fill="#E7D9C9"/>
</g>
<g style="mix-blend-mode:multiply" opacity="0.82">
<path d="M286.056 458.899C287.054 458.955 286.745 457.809 288.174 458.256C288.114 456.476 290.846 457.231 291.02 455.657C290.592 455.177 290.104 454.953 289.614 455.014C288.896 456.924 287.504 457.725 285.362 457.613C284.893 458.657 286.492 457.855 286.056 458.899Z" fill="#E7D9C9"/>
</g>
<g style="mix-blend-mode:multiply" opacity="0.82">
<path d="M301.661 459.876V458.944C300.4 459.103 298.239 458.423 298.464 459.876C298.858 460.519 301.215 460.239 301.661 459.876Z" fill="#E7D9C9"/>
</g>
<g style="mix-blend-mode:multiply" opacity="0.82">
<path d="M225.014 472.509V471.214C224.44 470.878 223.838 470.767 223.242 470.888C223.19 472.016 223.551 472.77 225.014 472.509Z" fill="#E7D9C9"/>
</g>
<g style="mix-blend-mode:multiply" opacity="0.82">
<path d="M326.149 467.982C326.744 466.911 328.188 466.603 327.921 464.731C325.305 464.2 324.128 467.078 326.149 467.982Z" fill="#E7D9C9"/>
</g>
<g style="mix-blend-mode:multiply" opacity="0.82">
<path d="M325.788 482.869C320.964 483.298 322.975 487.965 326.149 488.711C328.83 488.17 327.808 483.67 325.788 482.869Z" fill="#E7D9C9"/>
</g>
<g style="mix-blend-mode:multiply" opacity="0.82">
<path d="M317.266 467.32C318.33 467.218 319.431 467.134 319.75 466.389C319.131 464.842 316.267 466.407 317.266 467.32Z" fill="#E7D9C9"/>
</g>
<g style="mix-blend-mode:multiply" opacity="0.82">
<path d="M267.596 504.903C268.36 505.182 268.852 505.704 268.655 506.85C270.751 506.85 271.088 504.456 270.427 502.956C268.712 502.89 268.594 504.297 267.596 504.903Z" fill="#E7D9C9"/>
</g>
<g style="mix-blend-mode:multiply" opacity="0.82">
<path d="M294.92 464.087C294.034 464.581 293.293 465.196 293.139 466.351C295.848 469.947 300.029 464.897 294.92 464.087Z" fill="#E7D9C9"/>
</g>
<g style="mix-blend-mode:multiply" opacity="0.82">
<path d="M361.625 31.8999C362.014 35.4121 363.828 37.3406 362.332 40.974C363.415 42.1479 364.282 43.5267 366.589 43.564C369.678 42.4833 367.662 38.9058 367.662 36.763C367.662 35.5798 368.928 34.6575 368.722 33.5209C368.164 30.4744 362.356 29.2167 361.625 31.8999Z" fill="#E7D9C9"/>
</g>
<g style="mix-blend-mode:multiply" opacity="0.82">
<path d="M341.397 15.7266C341.725 17.5899 341.449 18.5215 341.758 19.9376C337.793 23.6642 334.628 28.1267 329.331 30.6328C325.581 29.8316 321.461 35.5519 325.08 38.4027C327.138 37.0704 327.62 33.9867 331.816 35.496C333.503 34.1172 334.732 32.3284 337.493 31.9278C340.839 29.1329 339.925 24.2418 344.243 22.5369C347.365 21.2978 351.176 21.8102 352.404 18.3259C349.249 16.9098 345.119 14.6179 341.397 15.7266Z" fill="#E7D9C9"/>
</g>
<g style="mix-blend-mode:multiply" opacity="0.82">
<path d="M181.016 391.176C180.275 389.416 175.958 389.909 177.111 392.788C178.907 393.636 180.618 392.602 181.016 391.176Z" fill="#E7D9C9"/>
</g>
<g style="mix-blend-mode:multiply" opacity="0.82">
<path d="M252.338 410.947C249.371 411.115 249.628 415.689 254.11 415.167C256.388 413.537 254.119 410.863 252.338 410.947Z" fill="#E7D9C9"/>
</g>
<g style="mix-blend-mode:multiply" opacity="0.82">
<path d="M228.567 439.79C228.97 441.15 230.784 441.215 232.823 441.085C236.77 438.514 228.609 435.896 228.567 439.79Z" fill="#E7D9C9"/>
</g>
<g style="mix-blend-mode:multiply" opacity="0.82">
<path d="M311.589 431.685C308.842 431.983 306.944 433.054 306.273 435.253C306.859 437.06 310.548 437.321 312.301 436.184C313.244 434.74 313.244 432.421 311.589 431.685Z" fill="#E7D9C9"/>
</g>
<g style="mix-blend-mode:multiply" opacity="0.82">
<path d="M238.139 439.137C238.091 439.449 238.101 439.784 238.167 440.082C238.233 440.38 238.352 440.62 238.5 440.759C239.573 440.544 240.539 440.255 240.633 439.137C239.817 438.979 238.809 438.495 238.139 439.137Z" fill="#E7D9C9"/>
</g>
<g style="mix-blend-mode:multiply" opacity="0.82">
<path d="M265.463 410.63C259.735 410.798 263.949 424.838 270.08 418.409C269.738 415.288 268.276 410.546 265.463 410.63Z" fill="#E7D9C9"/>
</g>
<g style="mix-blend-mode:multiply" opacity="0.82">
<path d="M123.889 358.793C124.723 355.597 131.604 351.75 127.442 349.076C125.239 352.141 120.818 353.184 120.345 357.824C121.343 358.858 122.042 359.138 123.889 358.793Z" fill="#E7D9C9"/>
</g>
<g style="mix-blend-mode:multiply" opacity="0.82">
<path d="M112.896 355.551C113.894 355.291 113.81 356.008 114.668 355.887C116.44 355.132 116.698 351.312 113.604 351.666C113.376 351.662 113.152 351.798 112.965 352.057C112.777 352.316 112.635 352.684 112.557 353.11C112.479 353.537 112.47 354.001 112.531 354.438C112.592 354.875 112.719 355.264 112.896 355.551Z" fill="#E7D9C9"/>
</g>
<g style="mix-blend-mode:multiply" opacity="0.82">
<path d="M267.596 357.173C267.596 357.937 268.205 358.104 267.957 359.12C273.53 363.116 273.868 352.831 267.596 357.173Z" fill="#E7D9C9"/>
</g>
<g style="mix-blend-mode:multiply" opacity="0.82">
<path d="M171.088 357.499C173.31 357.21 174.116 354.089 173.568 352.319H172.499C170.919 353.138 170.366 354.899 170.375 357.172C170.643 357.256 171.074 357.182 171.088 357.499Z" fill="#E7D9C9"/>
</g>
<g style="mix-blend-mode:multiply" opacity="0.82">
<path d="M304.141 352.98C306.995 353.716 308.622 348.527 304.501 349.412C303.789 350.269 302.753 352.049 304.141 352.98Z" fill="#E7D9C9"/>
</g>
<g style="mix-blend-mode:multiply" opacity="0.82">
<path d="M329.331 353.912V352.98H327.559C327.438 353.912 328.713 353.632 329.331 353.912Z" fill="#E7D9C9"/>
</g>
<g style="mix-blend-mode:multiply" opacity="0.82">
<path d="M305.565 371.428C306.859 372.574 309.583 373.943 311.589 373.375C312.962 372.574 312.241 369.853 314.083 369.481C316.956 369.201 320.177 369.238 320.824 366.891C319.464 365.54 318.48 363.863 316.206 363.332C313.712 366.956 307.262 367.049 305.565 371.428Z" fill="#E7D9C9"/>
</g>
<g style="mix-blend-mode:multiply" opacity="0.82">
<path d="M283.918 396.376H285.686C286.511 395.445 285.803 393.88 285.686 392.808C283.815 392.715 283 394.951 283.918 396.376Z" fill="#E7D9C9"/>
</g>
<g style="mix-blend-mode:multiply" opacity="0.82">
<path d="M249.854 391.512C248.236 391.662 247.327 392.444 247.008 393.786C248.471 397.307 253.397 393.581 249.854 391.512Z" fill="#E7D9C9"/>
</g>
<g style="mix-blend-mode:multiply" opacity="0.82">
<path d="M222.53 375.973C221.512 377.632 219.276 381.312 221.817 382.448C224.189 381.852 224.662 377.976 224.302 375.973H222.53Z" fill="#E7D9C9"/>
</g>
<g style="mix-blend-mode:multiply" opacity="0.82">
<path d="M288.17 377.91C285.357 380.761 282.043 388.307 285.685 392.164C286.553 387.748 288.582 383.341 288.892 378.236C288.812 377.985 288.582 377.854 288.17 377.91Z" fill="#E7D9C9"/>
</g>
<g style="mix-blend-mode:multiply" opacity="0.82">
<path d="M300.587 370.458C298.309 370.737 297.662 376.868 300.939 376.607C302.739 375.889 304.047 370.355 300.587 370.458Z" fill="#E7D9C9"/>
</g>
<g style="mix-blend-mode:multiply" opacity="0.82">
<path d="M110.412 322.236C113.355 320.513 112.184 316.935 111.11 314.131H108.987C108.701 316.796 106.31 317.522 104.726 318.985C105.115 321.407 107.515 322.022 110.412 322.236Z" fill="#E7D9C9"/>
</g>
<g style="mix-blend-mode:multiply" opacity="0.82">
<path d="M105.794 311.821C104.388 308.169 98.6553 310.526 99.7569 313.768C100.755 316.647 107.126 315.277 105.794 311.821Z" fill="#E7D9C9"/>
</g>
<g style="mix-blend-mode:multiply" opacity="0.82">
<path d="M96.2083 331.552C95.1349 331.552 95.3224 332.689 95.1489 333.5C96.9115 333.574 96.3161 332.68 96.2083 331.552Z" fill="#E7D9C9"/>
</g>
<g style="mix-blend-mode:multiply" opacity="0.82">
<path d="M155.464 350.372C157.414 351.304 156.341 356.316 160.081 354.583C160.105 352.599 157.123 350.857 159.734 349.394C160.672 349.31 160.002 350.652 161.141 350.372C161.755 347.493 158.839 346.413 160.438 344.54C157.977 344.428 156.945 343.869 155.112 345.192C154.714 346.702 155.919 347.922 155.464 350.372Z" fill="#E7D9C9"/>
</g>
<g style="mix-blend-mode:multiply" opacity="0.82">
<path d="M101.89 333.854H100.118C99.8412 334.785 99.0678 336.304 99.7568 337.086C100.849 336.993 101.355 336.388 102.241 336.155C102.241 335.279 102.373 334.273 101.89 333.854Z" fill="#E7D9C9"/>
</g>
<g style="mix-blend-mode:multiply" opacity="0.82">
<path d="M324.025 348.107C326.416 346.244 322.193 343.607 320.472 345.508C320.688 347.25 322.047 347.949 324.025 348.107Z" fill="#E7D9C9"/>
</g>
<g style="mix-blend-mode:multiply" opacity="0.82">
<path d="M90.8877 337.085C91.708 341.129 96.9816 342.051 98.6972 338.063C97.53 336.424 95.6456 335.446 94.0799 334.169C92.5565 334.719 91.3096 335.52 90.8877 337.085Z" fill="#E7D9C9"/>
</g>
<g style="mix-blend-mode:multiply" opacity="0.82">
<path d="M142.339 343.235C142.442 342.396 142.217 341.856 141.279 341.949C141.176 342.788 141.401 343.337 142.339 343.235Z" fill="#E7D9C9"/>
</g>
<g style="mix-blend-mode:multiply" opacity="0.82">
<path d="M393.913 156.953C393.338 156.617 392.736 156.506 392.141 156.627C391.527 158.174 394.18 158.416 393.913 156.953Z" fill="#E7D9C9"/>
</g>
<g style="mix-blend-mode:multiply" opacity="0.82">
<path d="M322.956 138.488C323.8 139.652 326.097 139.494 326.5 141.087C324.817 143.006 325.881 145.503 327.906 146.593C333.063 145.466 329.313 141.935 327.545 140.072C337.933 136.839 322.511 128.268 322.956 138.488Z" fill="#E7D9C9"/>
</g>
<g style="mix-blend-mode:multiply" opacity="0.82">
<path d="M142.7 114.843C142.004 114.482 141.282 114.371 140.567 114.517C139.911 116.185 138.692 117.312 138.087 119.045C138.467 119.387 138.823 119.826 139.147 120.349C141.537 119.613 141.331 116.511 142.7 114.843Z" fill="#E7D9C9"/>
</g>
<g style="mix-blend-mode:multiply" opacity="0.82">
<path d="M256.951 118.728C257.654 118.113 257.119 117.191 256.951 116.455C255.544 116.362 255.024 117.079 255.179 118.402C256.055 118.272 255.943 118.989 256.951 118.728Z" fill="#E7D9C9"/>
</g>
<g style="mix-blend-mode:multiply" opacity="0.82">
<path d="M236.016 92.4851C235.627 94.1341 237.056 94.1248 237.788 94.749C237.83 94.1434 238.964 94.5254 238.847 93.8173C238.378 92.746 237.459 91.7491 236.016 92.4851Z" fill="#E7D9C9"/>
</g>
<g style="mix-blend-mode:multiply" opacity="0.82">
<path d="M326.5 199.073C325.826 199.138 325.173 199.563 324.611 200.305C324.048 201.046 323.596 202.075 323.303 203.284C322.835 206.703 324.71 213.467 328.272 213.653C327.55 210.56 330.757 199.259 326.5 199.073Z" fill="#E7D9C9"/>
</g>
<g style="mix-blend-mode:multiply" opacity="0.82">
<path d="M152.272 211.371C146.595 211.585 148.991 220.407 154.756 219.755C156.631 219.56 158.999 217.827 158.31 215.544C158.024 214.659 153.95 211.315 152.272 211.371Z" fill="#E7D9C9"/>
</g>
<g style="mix-blend-mode:multiply" opacity="0.82">
<path d="M357.72 139.141C360.532 136.504 354.565 134.893 354.532 138.163C355.54 138.992 356.633 139.327 357.72 139.141Z" fill="#E7D9C9"/>
</g>
<g style="mix-blend-mode:multiply" opacity="0.82">
<path d="M347.435 196.799C347.918 197.037 348.389 197.365 348.841 197.778C350.543 197.489 351.438 196.473 351.687 194.861C350.59 192.411 346.994 194.107 347.435 196.799Z" fill="#E7D9C9"/>
</g>
<g style="mix-blend-mode:multiply" opacity="0.82">
<path d="M155.464 193.883C153.294 193.175 148.695 193.222 147.668 195.187C151.531 197.833 145.915 203.665 150.148 205.883C154.405 205.035 161.834 195.998 155.464 193.883Z" fill="#E7D9C9"/>
</g>
<g style="mix-blend-mode:multiply" opacity="0.82">
<path d="M277.529 265.49C274.862 266.803 272.963 264.204 271.14 264.838C270.202 266.03 271.543 267.353 271.14 269.058C269.438 271.965 265.894 273.157 261.558 272.617C260.208 272.449 259.022 271.35 257.663 271.322C253.664 271.238 248.349 273.996 248.082 276.502C247.843 278.598 249.657 280.48 251.625 280.713C256.965 281.346 259.89 273.912 265.824 274.881C267.348 275.216 267.409 276.884 269.016 277.154C272.387 273.8 274.088 267.185 281.082 271.322C282.259 269.505 279.165 266.794 277.529 265.49Z" fill="#E7D9C9"/>
</g>
<g style="mix-blend-mode:multiply" opacity="0.82">
<path d="M271.14 284.281C273.549 281.933 270.277 279.353 268.655 277.806C266.565 280.145 266.007 285.623 271.14 284.281Z" fill="#E7D9C9"/>
</g>
<g style="mix-blend-mode:multiply" opacity="0.82">
<path d="M11.405 213.654C10.371 213.677 9.33897 213.839 8.31592 214.138L8.19873 218.265C10.4722 218.433 13.4957 216.514 11.405 213.654Z" fill="#E7D9C9"/>
</g>
<g style="mix-blend-mode:multiply" opacity="0.82">
<path d="M109.699 276.828C110.44 277.014 110.712 277.629 111.823 277.471C112.235 277.089 112.226 276.325 112.184 275.533C110.918 274.918 109.929 275.654 109.699 276.828Z" fill="#E7D9C9"/>
</g>
<g style="mix-blend-mode:multiply" opacity="0.82">
<path d="M130.273 280.713C126.288 279.064 123.579 283.759 119.984 284.598C121.999 287.737 122.327 292.424 126.021 293.998C126.832 293.663 127.001 292.74 127.793 292.377C125.956 288.324 130.071 287.486 130.985 284.924C129.903 283.387 130.273 282.017 130.273 280.713Z" fill="#E7D9C9"/>
</g>
<g style="mix-blend-mode:multiply" opacity="0.82">
<path d="M14.9535 138.162C17.002 138.087 18.8442 137.836 19.2145 136.224C19.0505 133.876 15.4645 134.556 14.2504 135.572C14.206 135.833 14.1891 136.11 14.2009 136.385C14.2127 136.66 14.2528 136.928 14.3187 137.171C14.3847 137.414 14.475 137.627 14.5843 137.797C14.6935 137.968 14.8192 138.092 14.9535 138.162Z" fill="#E7D9C9"/>
</g>
<g style="mix-blend-mode:multiply" opacity="0.82">
<path d="M7.73926 156.04L7.79551 159.413C8.94397 158.155 9.30023 156.525 7.73926 156.04Z" fill="#E7D9C9"/>
</g>
<g style="mix-blend-mode:multiply" opacity="0.82">
<path d="M218.273 288.809C217.378 289.74 215.976 290.169 215.46 291.408C217.096 292.396 220.218 291.641 220.776 289.787C219.969 289.227 219.126 288.898 218.273 288.809Z" fill="#E7D9C9"/>
</g>
<g style="mix-blend-mode:multiply" opacity="0.82">
<path d="M31.2803 170.239C29.3772 171.906 29.3678 176.024 31.9928 176.071C34.6179 176.117 35.1148 170.583 31.2803 170.239Z" fill="#E7D9C9"/>
</g>
<g style="mix-blend-mode:multiply" opacity="0.82">
<path d="M298.464 156.628C296.34 158.361 293.87 166.233 299.176 166.354C299.504 163.084 301.248 158.184 298.464 156.628Z" fill="#E7D9C9"/>
</g>
<g style="mix-blend-mode:multiply" opacity="0.82">
<path d="M182.788 159.199C183.304 158.268 184.265 157.727 185.272 157.252C184.804 154.122 183.397 151.858 180.66 150.731C179.465 153.395 177.669 159.442 182.788 159.199Z" fill="#E7D9C9"/>
</g>
<g style="mix-blend-mode:multiply" opacity="0.82">
<path d="M135.584 154.364C137.304 152.081 133.184 150.768 133.1 153.432C133.386 154.224 134.253 154.541 135.584 154.364Z" fill="#E7D9C9"/>
</g>
<g style="mix-blend-mode:multiply" opacity="0.82">
<path d="M232.111 157.932C230.09 157.55 227.189 156.507 226.786 158.864C227.897 161.249 232.204 161.445 232.111 157.932Z" fill="#E7D9C9"/>
</g>
<g style="mix-blend-mode:multiply" opacity="0.82">
<path d="M150.148 163.112C148.892 169.344 157.044 164.276 150.148 163.112V163.112Z" fill="#E7D9C9"/>
</g>
<g style="mix-blend-mode:multiply" opacity="0.82">
<path d="M199.11 147.88C199.813 150.377 200.516 152.864 202.663 154.047C211.115 152.398 205.199 144.172 199.11 147.88Z" fill="#E7D9C9"/>
</g>
<g style="mix-blend-mode:multiply" opacity="0.82">
<path d="M233.555 128.771C230.855 129.2 232.739 132.023 231.778 133.625C235.111 134.687 236.995 128.212 233.555 128.771Z" fill="#E7D9C9"/>
</g>
<g style="mix-blend-mode:multiply" opacity="0.82">
<path d="M180.66 144.293C189.65 144.181 182.741 137.651 179.957 142.998C180.116 143.501 180.472 143.837 180.66 144.293Z" fill="#E7D9C9"/>
</g>
<g style="mix-blend-mode:multiply" opacity="0.82">
<path d="M190.241 124.561C187.85 126.275 186.078 128.52 184.925 131.362C188.778 134.921 195.627 126.499 190.241 124.561Z" fill="#E7D9C9"/>
</g>
<g style="mix-blend-mode:multiply" opacity="0.82">
<path d="M149.788 171.217C151.086 166.969 145.409 166.046 143.764 162.143C143.97 153.758 139.147 159.46 138.786 162.46C136.376 162.357 134.014 161.006 131.698 161.817C131.511 164.77 133.254 168.534 134.89 170.891C137.29 171.385 137.487 170.369 140.206 170.565C140.761 171.08 141.244 171.857 141.612 172.829C138.303 174.692 138.294 179.518 134.511 180.934C132.359 180.002 127.175 180.859 124.578 181.577C125.196 183.114 127.24 187.167 129.907 187.092C131.886 187.046 132.832 183.636 134.872 183.524C136.686 183.412 139.034 186.85 141.612 186.44C144.191 186.03 143.858 182.937 145.166 181.903C144.528 181.288 144.898 179.769 144.805 178.661C145.573 175.363 149.005 173.807 149.788 171.217Z" fill="#E7D9C9"/>
</g>
<g style="mix-blend-mode:multiply" opacity="0.82">
<path d="M253.758 129.098C255.333 128.613 255.582 129.321 257.302 129.415C257.044 127.784 258.282 127.505 258.376 126.182C256.477 124.673 254.18 127.197 253.758 129.098Z" fill="#E7D9C9"/>
</g>
<g style="mix-blend-mode:multiply" opacity="0.82">
<path d="M234.244 142.429C234.192 143.231 234.173 143.995 234.947 144.041C235.533 143.287 236.934 143.268 236.728 141.777C235.895 141.912 235.066 142.129 234.244 142.429Z" fill="#E7D9C9"/>
</g>
<g style="mix-blend-mode:multiply" opacity="0.82">
<path d="M244.177 176.072C241.589 176.519 241.434 179.183 240.633 181.261C241.458 181.354 241.289 182.379 242.405 182.192C243.867 181.27 246.825 177.693 244.177 176.072Z" fill="#E7D9C9"/>
</g>
<g style="mix-blend-mode:multiply" opacity="0.82">
<path d="M88.0517 173.481C83.9641 174.412 86.5985 183.505 79.8906 182.872C79.9515 183.682 79.3468 183.887 78.8218 184.176C78.4796 188.834 80.9453 190.875 84.1469 192.272C87.0438 190.809 86.8048 186.496 88.7642 184.176C90.9908 183.757 91.5252 184.893 93.0205 185.108C98.4488 183.198 92.608 172.391 88.0517 173.481Z" fill="#E7D9C9"/>
</g>
<g style="mix-blend-mode:multiply" opacity="0.82">
<path d="M222.178 170.565C224.644 169.782 223.036 167.323 221.109 166.997C219.375 167.984 220.172 170.378 222.178 170.565Z" fill="#E7D9C9"/>
</g>
<g style="mix-blend-mode:multiply" opacity="0.82">
<path d="M96.9253 196.8C95.8847 196.343 95.5753 195.011 94.0799 195.868C92.9268 197.144 94.1221 199.846 96.2128 200.079C96.4838 199.738 96.6967 199.243 96.8238 198.658C96.9509 198.073 96.9863 197.425 96.9253 196.8Z" fill="#E7D9C9"/>
</g>
<g style="mix-blend-mode:multiply" opacity="0.82">
<path d="M82.3752 199.073V198.095C79.8017 196.464 79.8017 200.75 82.3752 199.073Z" fill="#E7D9C9"/>
</g>
<g style="mix-blend-mode:multiply" opacity="0.82">
<path d="M116.088 181.558C120.363 180.543 121.849 178.689 125.66 177.031C128.792 177.198 130.906 176.369 131.337 174.757C132.532 170.407 125.712 170.518 123.537 168.282C118.901 169.121 117.57 172.941 114.668 175.4C115.315 177.319 115.057 180.04 116.088 181.558Z" fill="#E7D9C9"/>
</g>
<g style="mix-blend-mode:multiply" opacity="0.82">
<path d="M167.891 196.465C168.405 196.266 168.888 195.821 169.297 195.17C166.124 192.375 172.11 189.292 170.371 185.779C176.244 182.761 167.961 177.395 164.333 176.053C163.611 176.146 163.644 176.929 162.927 176.985C162.997 181.261 166.677 184.727 166.471 188.966C166.316 191.807 164.76 195.282 167.891 196.465Z" fill="#E7D9C9"/>
</g>
<g style="mix-blend-mode:multiply" opacity="0.82">
<path d="M299.523 168.943H300.929V167.648C299.723 167.4 299.254 167.832 299.523 168.943Z" fill="#E7D9C9"/>
</g>
<g style="mix-blend-mode:multiply" opacity="0.82">
<path d="M95.1536 201.989C94.741 202.371 94.7504 203.135 94.7926 203.926C96.2645 204.085 96.977 203.544 97.2723 202.631C96.9348 202.054 96.2973 201.802 95.1536 201.989Z" fill="#E7D9C9"/>
</g>
<g style="mix-blend-mode:multiply" opacity="0.82">
<path d="M119.984 186.756C120.132 186.621 120.251 186.383 120.317 186.086C120.384 185.789 120.394 185.454 120.344 185.145H118.573C118.301 186.356 118.962 186.719 119.984 186.756Z" fill="#E7D9C9"/>
</g>
<g style="mix-blend-mode:multiply" opacity="0.82">
<path d="M123.888 161.491C123.621 160.448 122.909 159.796 121.765 159.544C120.949 160.522 122.032 161.939 123.888 161.491Z" fill="#E7D9C9"/>
</g>
<g style="mix-blend-mode:multiply" opacity="0.82">
<path d="M320.125 503.906L322.572 504.204C322.35 503.972 322.119 503.773 321.883 503.607C321.283 503.766 320.697 503.85 320.125 503.906Z" fill="#E7D9C9"/>
</g>
<g style="mix-blend-mode:multiply" opacity="0.82">
<path d="M353.824 506.85C351.794 503.729 349.033 507.027 345.302 506.524C343.263 506.254 340.657 503.207 338.566 503.608C338.121 503.625 337.682 503.838 337.284 504.233C336.885 504.628 336.535 505.194 336.26 505.89L353.468 508.005C353.58 507.909 353.675 507.747 353.738 507.54C353.802 507.333 353.832 507.092 353.824 506.85Z" fill="#E7D9C9"/>
</g>
<g style="mix-blend-mode:multiply" opacity="0.82">
<path d="M45.4697 487.407C45.554 488.022 45.0665 488.134 45.1181 488.711C46.2525 489.82 47.4619 490.873 50.0869 490.649C52.3229 488.534 48.1275 486.056 45.4697 487.407Z" fill="#E7D9C9"/>
</g>
<g style="mix-blend-mode:multiply" opacity="0.82">
<path d="M40.5009 487.136C39.3478 487.053 38.7946 487.528 38.729 488.431C39 488.458 39.2553 488.691 39.4415 489.084C40.1118 489.149 40.2243 488.72 40.8478 488.757C41.1525 487.789 40.3603 487.863 40.5009 487.136Z" fill="#E7D9C9"/>
</g>
<g style="mix-blend-mode:multiply" opacity="0.82">
<path d="M25.9552 506.206C22.1442 506.206 18.1879 503.16 14.9534 504.576C12.7034 502.358 10.1112 499.321 10.3455 495.837C19.9176 494.803 11.8924 491.617 9.63302 489.036C8.08612 487.256 7.92205 485.505 7.23298 484.312C6.70328 498.949 6.2439 508.731 6.15015 510.762L6.72672 511.116L14.5925 510.361C14.1237 509.048 14.2972 507.734 16.0222 506.523C16.9597 507.65 17.8691 508.815 18.7973 509.961L25.2849 509.336C25.6599 508.265 26.0443 507.24 25.9552 506.206Z" fill="#E7D9C9"/>
</g>
<g style="mix-blend-mode:multiply" opacity="0.82">
<path d="M226.786 132.331C226.095 131.892 225.353 131.892 224.662 132.331C224.808 133.504 225.239 134.399 226.434 134.604C226.148 133.476 226.959 133.355 226.786 132.331Z" fill="#E7D9C9"/>
</g>
<g style="mix-blend-mode:multiply" opacity="0.82">
<path d="M90.1752 489.354C88.7408 490.64 86.7767 491.432 86.2798 493.574C88.8149 495.494 91.4233 497.009 94.0799 498.102C94.5346 494.851 93.7518 490.006 90.1752 489.354Z" fill="#E7D9C9"/>
</g>
<g style="mix-blend-mode:multiply" opacity="0.82">
<path d="M144.823 389.249C143.042 389.817 143.103 392.556 143.417 394.112C141.654 394.774 139.943 396.078 140.932 398.323C137.285 398.882 133.165 405.422 138.8 405.45C142.043 405.45 142.653 401.044 146.258 400.587C147.837 400.447 146.023 403.382 147.664 403.177C149.961 402.823 147.664 400.652 148.011 399.944C152.562 397.159 149.904 390.162 144.823 389.249Z" fill="#E7D9C9"/>
</g>
<g style="mix-blend-mode:multiply" opacity="0.82">
<path d="M179.596 301.74H182.08V299.877H179.596V301.74Z" fill="#E7D9C9"/>
</g>
<g style="mix-blend-mode:multiply" opacity="0.82">
<path d="M237.08 400.261C237.479 400.335 237.853 400.68 238.139 401.24C240.047 401.025 241.42 400.308 241.692 398.64C241.309 398.313 240.952 397.877 240.633 397.345C238.327 397.299 237.014 398.156 237.08 400.261Z" fill="#E7D9C9"/>
</g>
<g style="mix-blend-mode:multiply" opacity="0.82">
<path d="M94.0802 420.058C97.2115 423.029 96.7193 429.318 99.7569 432.365C100.385 434.815 99.9022 438.29 102.602 438.886C103.437 435.094 99.6538 432.737 100.118 428.2C103.737 427.268 105.63 421.25 98.7116 422.368C96.0396 421.231 96.5553 417.449 96.9396 414.589C99.2834 414.17 98.7303 416.406 100.844 416.21C104.379 412.278 96.4756 411.701 95.8662 408.44C98.4631 405.077 101.102 401.769 106.179 400.661C106.273 398.593 105.105 395.267 104.407 392.882C101.037 394.13 101.683 399.04 99.0772 400.978C94.9568 403.502 90.1145 399.627 87.0254 401.63C89.2192 408.03 95.6693 410.108 94.0802 420.058Z" fill="#E7D9C9"/>
</g>
<g style="mix-blend-mode:multiply" opacity="0.82">
<path d="M297.043 358.151C292.253 360.946 297.681 365.66 301.3 366.536C305.05 363.564 299.073 360.005 297.043 358.151Z" fill="#E7D9C9"/>
</g>
<g style="mix-blend-mode:multiply" opacity="0.82">
<path d="M146.956 414.199C143.792 414.376 144.659 419.323 147.669 418.084C148.822 416.984 148.419 414.674 146.956 414.199Z" fill="#E7D9C9"/>
</g>
<g style="mix-blend-mode:multiply" opacity="0.82">
<path d="M201.956 410.946C200.915 411.952 199.977 413.042 200.184 415.167C203.488 418.446 206.273 411.487 201.956 410.946Z" fill="#E7D9C9"/>
</g>
<g style="mix-blend-mode:multiply" opacity="0.82">
<path d="M54.3386 502.974C54.5168 505.089 55.9183 506.076 58.2434 506.226C58.3371 505.769 59.0168 505.853 59.3075 505.583C59.8231 502.834 56.1527 501.53 54.3386 502.974Z" fill="#E7D9C9"/>
</g>
<g style="mix-blend-mode:multiply" opacity="0.82">
<path d="M257.302 301.452C258.797 299.914 256.261 298.368 254.822 299.504C254.574 301.135 255.553 301.638 257.302 301.452Z" fill="#E7D9C9"/>
</g>
<g style="mix-blend-mode:multiply" opacity="0.82">
<path d="M174.28 301.125C172.138 299.876 167.193 300.351 166.119 302.103C168.191 302.811 173.671 303.603 174.28 301.125Z" fill="#E7D9C9"/>
</g>
<g style="mix-blend-mode:multiply" opacity="0.82">
<path d="M136.311 317.326C133.747 317.792 134.487 321.742 136.662 322.832C140.74 322.021 139.714 316.692 136.311 317.326Z" fill="#E7D9C9"/>
</g>
<g style="mix-blend-mode:multiply" opacity="0.82">
<path d="M255.179 316.646C257.419 318.501 259.862 319.171 262.271 318.593C271.665 316.004 253.285 304.013 255.179 316.646Z" fill="#E7D9C9"/>
</g>
<g style="mix-blend-mode:multiply" opacity="0.82">
<path d="M193.434 300.473C195.276 301.703 199.101 299.243 196.279 298.209C194.648 298.349 193.504 298.945 193.434 300.473Z" fill="#E7D9C9"/>
</g>
<g style="mix-blend-mode:multiply" opacity="0.82">
<path d="M199.11 397.345C198.102 397.96 197.966 400.764 199.823 400.587C200.291 399.944 200.16 398.724 200.53 397.997C199.832 397.988 200.081 397.121 199.11 397.345Z" fill="#E7D9C9"/>
</g>
<g style="mix-blend-mode:multiply" opacity="0.82">
<path d="M138.786 486.437C136.939 487.183 134.131 488.589 135.603 491.3C137.571 491.3 138.743 490.509 139.507 489.353C139.343 490.872 140.187 491.431 139.146 492.269C132.687 491.338 133.053 497.682 137.375 498.791C138.715 498.202 140.02 497.337 141.27 496.21L142.676 490.62C142.443 490.436 142.214 490.228 141.992 489.996C142.556 489.607 143.04 488.861 143.37 487.872L144.378 483.913C141.715 482.86 139.1 482.478 138.786 486.437Z" fill="#E7D9C9"/>
</g>
<g style="mix-blend-mode:multiply" opacity="0.82">
<path d="M148.016 486.438V485.506C147.472 485.31 146.858 485.04 146.216 484.742L146.122 486.493C146.744 486.214 147.389 486.195 148.016 486.438Z" fill="#E7D9C9"/>
</g>
<g style="mix-blend-mode:multiply" opacity="0.82">
<path d="M175.339 474.093C176.003 474.738 176.734 475.058 177.472 475.025C177.557 474.888 177.625 474.715 177.671 474.519C177.718 474.323 177.742 474.109 177.742 473.893C177.742 473.676 177.718 473.462 177.671 473.266C177.625 473.071 177.557 472.898 177.472 472.761C176.146 472.705 175.382 473.096 175.339 474.093Z" fill="#E7D9C9"/>
</g>
<g style="mix-blend-mode:multiply" opacity="0.82">
<path d="M109.334 494.588C110.82 494.756 111.035 493.768 111.106 492.641C108.293 492.268 106.39 493.573 103.305 494.262C101.955 493.759 101.318 492.623 99.0397 492.967C98.5709 494.374 96.7427 494.532 96.9209 496.535C98.3834 498.054 99.9819 495.911 101.885 495.883C102.607 496.629 103.596 497.132 104.369 497.83C104.051 498.399 103.38 498.641 103.657 499.768H106.849C107.252 498.222 105.504 498.632 105.077 497.83C106.015 497.588 106.015 496.517 106.484 495.883C107.285 496.489 109.502 495.101 110.027 496.535C107.834 497.355 106.544 502.591 110.388 502.684C112.193 498.995 112.146 497.113 109.334 494.588Z" fill="#E7D9C9"/>
</g>
<g style="mix-blend-mode:multiply" opacity="0.82">
<path d="M93.7283 479.311C90.9158 478.603 90.1048 480.158 88.7642 481.584C90.4423 484.379 92.7627 486.037 96.9253 485.795C98.7159 482.171 92.8752 483.112 93.7283 479.311Z" fill="#E7D9C9"/>
</g>
<g style="mix-blend-mode:multiply" opacity="0.82">
<path d="M133.118 473.814C130.235 473.898 130.925 475.677 130.625 477.689C131.965 478.202 133.315 478.695 134.529 479.31C135.242 477.251 133.292 476.003 133.118 473.814Z" fill="#E7D9C9"/>
</g>
<g style="mix-blend-mode:multiply" opacity="0.82">
<path d="M121.052 469.267C122.599 469.174 122.632 470.199 123.888 469.603C124.259 468.671 124.259 468.242 123.888 467.32C122.065 467.162 121.052 467.777 121.052 469.267Z" fill="#E7D9C9"/>
</g>
<g style="mix-blend-mode:multiply" opacity="0.82">
<path d="M198.759 435.253C194.948 434.322 194.113 430.642 190.602 429.431C187.26 432.542 193.63 433.847 192.721 437.815C195.773 438.635 197.02 442.753 200.184 442.669C204.787 442.585 207.093 432.757 198.759 435.253Z" fill="#E7D9C9"/>
</g>
<g style="mix-blend-mode:multiply" opacity="0.82">
<path d="M116.44 475.752C117.954 473.153 114.612 468.299 118.92 468.625C118.97 468.317 118.963 467.983 118.899 467.685C118.835 467.387 118.719 467.145 118.573 467.004C117.241 466.659 118.006 468.215 116.796 467.982C116.046 467.581 115.76 466.762 114.668 466.678C111.79 473.674 115.306 479.721 119.632 482.87C121.62 479.972 116.932 478.454 116.44 475.752Z" fill="#E7D9C9"/>
</g>
<g style="mix-blend-mode:multiply" opacity="0.82">
<path d="M135.584 479.683C135.472 480.904 137.811 482.078 138.397 480.615C137.881 479.926 137.126 479.432 135.584 479.683Z" fill="#E7D9C9"/>
</g>
<g style="mix-blend-mode:multiply" opacity="0.82">
<path d="M151.92 479.683C152.056 480.754 153.074 481.341 154.733 481.63C160.536 478.379 151.283 474.596 151.92 479.683Z" fill="#E7D9C9"/>
</g>
<g style="mix-blend-mode:multiply" opacity="0.82">
<path d="M172.499 479.963C173.929 479.19 173.258 478.519 173.905 477.047H171.093C171.055 478.482 171.013 479.916 172.499 479.963Z" fill="#E7D9C9"/>
</g>
</svg>
