<svg width="1328" height="547" viewBox="0 0 1328 547" fill="none" xmlns="http://www.w3.org/2000/svg">
<path d="M1305.79 529.954C1305.79 529.954 1298.9 532.39 1297.87 532.744C1296.85 533.097 1293.17 534.799 1293.17 534.799C1293.17 534.799 1301.18 533.088 1305.79 529.954Z" fill="#6D390C"/>
<path opacity="0.32" d="M38.4261 0.567139C35.6712 1.90759 32.7631 3.11976 29.7253 4.19391C26.7557 5.26334 23.6525 6.23977 20.5197 7.14181C17.3868 8.04386 14.1945 8.8622 10.9429 9.57826C7.66128 10.3291 4.29027 10.9168 0.861206 11.3358C3.61757 9.99215 6.53097 8.77983 9.57686 7.70908C12.5464 6.63965 15.6496 5.66321 18.7825 4.76117C21.9154 3.85913 25.0928 3.05008 28.3593 2.32472C31.6386 1.57929 35.004 0.991717 38.4261 0.567139Z" fill="#6D390C"/>
<g style="mix-blend-mode:overlay">
<path d="M39.4654 0C39.4654 0 26.34 6.02601 16.5256 8.25787C11.1356 9.50644 5.61379 10.5194 0 11.2895C6.45221 10.946 12.8168 10.125 18.9606 8.84373C27.409 6.85366 39.4654 0 39.4654 0Z" fill="#FAEFD2"/>
</g>
<path d="M30.052 3.35669C30.052 3.35669 16.7781 6.50919 14.8034 7.07645C12.8286 7.64371 5.55322 9.92207 5.55322 9.92207C5.55322 9.92207 20.5346 8.19238 30.052 3.35669Z" fill="#6D390C"/>
<path d="M1318.62 20.198L1312.33 23.1831L1308.44 24.3548C1308.44 24.3548 1311.27 23.8341 1312.32 23.6853C1313.37 23.5365 1316.52 22.6716 1317.21 23.0994C1317.89 23.5272 1317.86 25.8892 1318.29 25.4429C1318.72 24.9965 1318.62 20.198 1318.62 20.198Z" fill="#6D390C"/>
<path d="M1312.37 23.6855L1308.42 24.541C1308.42 24.541 1312.16 24.1226 1312.35 24.0854C1313.88 23.7979 1315.37 23.4309 1316.8 22.988C1315.3 23.1464 1313.81 23.3796 1312.37 23.6855Z" fill="#F3D632"/>
<path d="M1318.65 16.6272C1318.65 16.6272 1313.09 21.9465 1312.71 22.2068L1308.44 24.355L1312.29 23.1833L1318.56 20.5887L1318.65 16.6272Z" fill="#B06518"/>
<path d="M1327.09 17.7899C1326.9 17.5388 1318.62 20.1985 1318.62 20.1985L1318.33 25.4433L1326.92 27.5822C1326.92 27.5822 1329.23 20.5704 1327.09 17.7899Z" fill="#6D390C"/>
<path d="M40.1781 542.313L42.6873 541.058L36.1543 541.113L37.8024 542.155L37.5351 546.6H40.1186L42.6131 545.698L40.4305 545.187L40.1781 542.313Z" fill="#6D390C"/>
<path d="M50.5567 546.247C50.5567 546.247 44.3504 546.526 44.8552 546.135C45.36 545.745 45.2412 545.149 44.5137 545.103C43.7862 545.056 40.9502 544.089 41.1878 543.959C41.4632 543.352 41.6423 542.729 41.7223 542.099C44.1353 542.161 46.5515 542.049 48.9235 541.764C53.7639 541.29 40.7424 541.923 44.3058 541.011L42.6874 541.067L40.193 542.322L40.4306 545.196L42.6132 545.707L40.2969 547L50.5567 546.247Z" fill="#AB5C16"/>
<g style="mix-blend-mode:multiply" opacity="0.38">
<path d="M1304.64 524.105L1310.11 524.245L1293.48 390.389L1291.3 389.459L1292.36 373.715L1296.82 372.153L1299.95 260.151L1305.76 260.021H1299.97L1300.61 237.228L1291.03 223.167L1296.7 218.518V211.422L1298.73 209.172L1297.25 141.453L1301.41 81.4072L1297.22 81.7327L1297.78 76.153L1302.54 74.7953L1307.94 18.7757L1308.21 16.0603L986.902 22.6815L984.66 29.4328L967.867 29.2469L966.709 26.0944L965.744 23.4719L625.73 19.2686H625.121L624.512 25.1551L615.604 24.7831L612.085 19.2779L611.506 19.3244V19.2779C611.506 19.2779 608.536 19.7057 578.306 19.6964C568.106 19.6964 521.127 19.6406 503.934 19.5104C480.682 19.3337 428.433 19.2779 369.309 19.2779H257.06C167.646 19.2779 35.8279 19.4639 12.8435 19.5011H7.26074L9.14642 67.6441L20.0298 72.6657L22.7321 77.3154L9.75518 74.2838V74.4233L9.13158 74.2838L16.6891 207.33H24.5881L25.5977 218.425L16.6891 220.582L13.3038 256.552L19.332 257.482L19.8962 268.399L13.3038 269.488C13.3038 269.488 12.9326 293.564 17.8472 365.271C22.7618 436.979 9.14642 521.343 9.14642 521.343H9.75518L12.4426 521.259L16.1546 521.148C15.8725 522.431 15.6201 523.575 15.3973 524.505H15.6052C15.0261 527.072 14.6698 528.569 14.6698 528.569L22.4797 528.42V534.93C22.4797 534.93 349.903 527.351 355.441 527.351C360.979 527.351 391.209 527.871 391.209 527.871L393.065 525.23L394.55 523.119L412.724 522.766L452.159 527.797L651.119 531.414L654.371 526.867L654.594 526.56V530.708C654.594 530.708 887.051 531.414 887.051 530.884C887.051 530.717 887.63 528.504 888.446 525.519C888.684 524.663 888.936 523.733 889.189 522.729L900.042 522.58L901.379 525.295L904.125 530.875L938.884 529.945L942.136 522.329L943.427 519.325C946.07 518.767 948.55 518.265 950.257 517.949L951.044 520.543L954.43 530.884L1283.2 535.441V532.744L1305.88 533.841L1304.64 524.105Z" fill="#6D390C"/>
</g>
<path d="M846.768 438.895H75.4862L31.7446 511.142V523.9C31.7446 523.9 352.456 516.321 357.742 516.321C363.028 516.321 392.441 516.851 392.441 516.851L397.326 509.616L451.595 516.758L645.611 520.376L649.041 515.438V519.669C649.041 519.669 877.548 520.376 877.548 519.846C877.548 519.316 883.487 497.443 883.487 497.443L894.192 519.846L927.911 518.916L936.434 498.336L942.789 519.855L1262.65 524.44V502.558L846.768 438.895Z" fill="#A15542"/>
<g style="mix-blend-mode:multiply" opacity="0.4">
<path d="M1262.65 524.375V502.651L846.768 438.988H75.4862L31.7446 511.235V520.115L394.297 514.192L397.267 509.709L442.226 513.606L463.087 486.554L455.663 513.876L484.468 515.968C484.468 515.968 527.022 516.052 611.565 515.968C623.369 515.968 635.9 515.903 648.684 515.828L648.892 515.522V515.828C694.549 515.559 845.18 514.945 878.765 514.48C880.502 507.85 883.22 497.537 883.22 497.537L891.267 514.275C908.624 514.024 919.389 513.848 919.389 513.848C919.389 513.848 925.328 512.527 930.896 511.309L936.241 498.392L939.522 509.551C939.966 509.456 940.423 509.391 940.888 509.356C942.373 509.356 954.073 510.76 954.073 510.76L1262.65 524.375Z" fill="#A15542"/>
</g>
<path d="M1272.81 342.962L1269.44 394.453L1284.69 522.84L954.266 508.026C954.266 508.026 942.537 506.622 941.082 506.622C939.627 506.622 919.582 511.142 919.582 511.142C919.582 511.142 696.182 513.141 611.654 513.215C527.126 513.29 484.557 513.215 484.557 513.215L455.753 511.123L463.176 483.801L442.093 511.123L24.113 517.549C24.113 517.549 35.8428 465.705 35.8428 448.417C35.8428 431.13 29.4879 263.601 29.4879 263.601L27.6765 225.864L34.9816 210.65L33.0217 186.007L35.0262 71.7265L24.113 52.328L597.43 13.1775L661.439 15.9673L995.261 18.6734L1277.8 55.4991L1275.36 80.5423L1275.85 207.516L1261.18 219.866L1272.81 342.962Z" fill="#D07956"/>
<g style="mix-blend-mode:multiply" opacity="0.26">
<path d="M640.622 512.286L653.302 512.211L659.85 512.072L653.822 320.588V14.7678L620.177 13.2799L618.514 29.8236L607.868 12.7406L597.474 12.2849L24.113 51.454L32.5169 66.5376L47.7061 73.7539L34.8183 70.5642L34.9816 70.8525L33.0217 185.133L34.2095 199.677H78.6043L34.551 210.836L27.721 225.055L28.9534 249.912L61.7373 255.269L29.4879 260.765L29.5919 262.774C29.5919 262.774 35.9467 430.311 35.9467 447.59C35.9467 462.292 27.4538 502.001 24.9297 513.541L88.8642 511.607L94.729 504.167L102.791 511.607L437.861 510.017L464.245 477.218L458.752 510.528H458.96H467.542L475.604 495.984L483.265 509.496L509.279 511.077C509.279 511.077 518.44 497.323 521.009 496.263C523.577 495.203 521.009 510.816 521.009 510.816L640.622 512.286Z" fill="#A15542"/>
</g>
<path d="M464.795 473.814L438.366 506.622L103.281 508.203L95.2189 500.764L89.3541 508.203L19.3617 510.323C19.3617 510.323 32.5613 425.931 27.7952 354.242C23.0291 282.553 23.3409 258.458 23.3409 258.458L62.2866 251.902L23.4448 245.551L26.741 209.571L79.1388 196.348H26.741L19.4062 63.292L48.3594 70.4339L19.4062 56.615L17.58 8.4999C17.58 8.4999 434.802 7.96984 501.81 8.4999C568.818 9.02997 607.749 8.25812 607.749 8.25812L619.108 26.4756L620.993 8.25812L953.836 12.4614L964.467 42.3497L974.37 11.6617L1287.02 5.04053L1281.53 63.7755L1251.1 72.768L1280.43 70.3874L1276.4 130.434L1277.89 198.152L1268.36 208.995L1279.71 226.199L1276.06 361.105L1251.5 369.837L1272.77 379.36L1288.8 513.215L1208.16 511.095L1200.47 492.84L1194.25 510.035L989.693 502.103L958.513 505.013L937.993 492.58L924.066 505.274L646.19 508.994L521.558 507.413C521.558 507.413 524.126 491.799 521.558 492.859C518.989 493.919 509.873 507.636 509.873 507.636L483.844 506.055L476.153 492.561L468.061 507.143H459.257L464.795 473.814Z" fill="#EEB980"/>
<path opacity="0.55" d="M17.58 8.4996L19.4062 56.6147L48.3594 70.3778L19.4062 63.2359L20.9801 91.7757L44.7365 81.2209L260.282 8.25781C161.321 8.25781 17.58 8.4996 17.58 8.4996Z" fill="#C48A57"/>
<path opacity="0.29" d="M989.693 502.121L1194.25 510.054L1200.47 492.859L1208.18 511.114L1288.8 513.234L1272.91 381.434L985.744 502.493L989.693 502.121Z" fill="#FFEAB6"/>
<g style="mix-blend-mode:overlay" opacity="0.43">
<path d="M621.305 29.1352L623.131 10.9084L954.712 15.0931L953.776 12.4707L620.934 8.26733L619.182 25.7316L621.305 29.1352Z" fill="#FFEAB6"/>
</g>
<g style="mix-blend-mode:overlay" opacity="0.43">
<path d="M68.6563 198.961L26.741 209.543L23.4448 245.523L25.8502 245.913L28.9385 212.194L81.3363 198.961H68.6563Z" fill="#FFEAB6"/>
</g>
<g style="mix-blend-mode:overlay" opacity="0.43">
<path d="M21.5443 57.6657L19.7774 11.1687C19.7774 11.1687 437 10.6386 504.008 11.1687C561.157 11.6151 607.066 11.1687 609.427 10.9734L607.749 8.25798C607.749 8.25798 568.878 9.02053 501.81 8.49047C434.743 7.9604 17.58 8.49047 17.58 8.49047L19.4062 56.6149L21.5443 57.6657Z" fill="#FFEAB6"/>
</g>
<g style="mix-blend-mode:overlay" opacity="0.43">
<path d="M966.605 45.0091L976.493 14.321L1286.71 7.77426L1286.96 5.05884L974.311 11.68L965.016 40.5081L966.605 45.0091Z" fill="#FFEAB6"/>
</g>
<g style="mix-blend-mode:overlay" opacity="0.43">
<path d="M1272.68 379.378L1255.68 371.762L1253.61 372.497L1272.87 381.127L1272.68 379.378Z" fill="#FFEAB6"/>
</g>
<g style="mix-blend-mode:overlay" opacity="0.43">
<path d="M1280.17 73.2426L1280.37 70.4062L1266.41 71.5408L1253.24 75.4279L1280.17 73.2426Z" fill="#FFEAB6"/>
</g>
<g style="mix-blend-mode:overlay" opacity="0.43">
<path d="M1202.67 495.51L1202.16 496.886L1208.18 511.114L1209.26 511.142L1202.67 495.51Z" fill="#FFEAB6"/>
</g>
<g style="mix-blend-mode:overlay" opacity="0.43">
<path d="M478.351 495.24L478.009 495.853L483.844 506.092L484.557 506.129L478.351 495.24Z" fill="#FFEAB6"/>
</g>
<g style="mix-blend-mode:overlay" opacity="0.43">
<path d="M524.171 507.459C524.78 503.07 525.656 494.728 523.785 495.509C523.37 495.73 523.014 495.99 522.731 496.281C522.731 500.596 521.588 507.44 521.588 507.44L524.171 507.459Z" fill="#FFEAB6"/>
</g>
<g style="mix-blend-mode:overlay" opacity="0.43">
<path d="M30.0522 356.893C25.286 285.204 25.5978 261.109 25.5978 261.109L64.4396 254.497L55.3973 253.018L23.4004 258.468C23.4004 258.468 23.0292 282.544 27.8547 354.252C32.6802 425.959 19.4211 510.333 19.4211 510.333L22.0344 510.249C24.2021 495.24 34.2986 420.993 30.0522 356.893Z" fill="#FFEAB6"/>
</g>
<g style="mix-blend-mode:overlay" opacity="0.43">
<path d="M26.7411 196.32H28.79L21.6037 65.9049L50.5569 73.0469L41.3513 68.6762L19.4062 63.2639L26.7411 196.32Z" fill="#FFEAB6"/>
</g>
<g style="mix-blend-mode:overlay" opacity="0.43">
<path d="M466.992 476.464L463.681 480.583L459.286 507.152H461.929L466.992 476.464Z" fill="#FFEAB6"/>
</g>
<path opacity="0.63" d="M251.655 11.7266L20.4011 91.8037L116.036 56.2056L138.515 69.606L119.154 54.0853L251.655 11.7266Z" fill="#A57142"/>
<path opacity="0.29" d="M1270.46 407.863L1284.64 510.323L1214.28 505.915L1199.61 486.87L1188.39 505.562L1141.96 503.33L1270.46 407.863Z" fill="#FFEAB6"/>
<path opacity="0.1" d="M247.334 18.9431L248.299 130.759L247.334 396.564L252.427 501.693V245.672L247.334 18.9431Z" fill="#A57142"/>
<path opacity="0.1" d="M514.564 18.9431L515.53 130.759L514.564 396.564L519.657 501.693V245.672L514.564 18.9431Z" fill="#A57142"/>
<path opacity="0.1" d="M781.795 18.9431L782.775 130.759L781.795 396.564L786.887 501.693V245.672L781.795 18.9431Z" fill="#A57142"/>
<path opacity="0.1" d="M1049.02 18.9431L1049.99 130.759L1049.02 396.564L1054.12 501.693V245.672L1049.02 18.9431Z" fill="#A57142"/>
<g style="mix-blend-mode:multiply" opacity="0.82">
<path d="M1028.56 89.7301C1049.6 89.4418 1039.14 80.347 1025.16 81.6396C1017.24 82.3836 1020.47 88.9304 1028.56 89.7301Z" fill="#E7D9C9"/>
</g>
<g style="mix-blend-mode:multiply" opacity="0.82">
<path d="M1067.91 102.015C1075.19 102.284 1076.63 100.861 1083.65 101.085C1088.55 102.396 1096.63 107.343 1103.89 104.637C1112.34 101.503 1077.8 98.4436 1082.54 94.296C1076.41 92.9473 1069.95 92.277 1063.46 92.3153C1049.41 94.1937 1060.22 99.9222 1067.91 102.015Z" fill="#E7D9C9"/>
</g>
<g style="mix-blend-mode:multiply" opacity="0.82">
<path d="M973.479 100.397C979.38 102.257 986.051 102.936 992.589 102.34C1003.53 98.2949 974.578 95.7283 973.479 100.397Z" fill="#E7D9C9"/>
</g>
<g style="mix-blend-mode:multiply" opacity="0.82">
<path d="M324.988 136.59C314.209 136.841 308.73 138.598 308.106 141.769C316.05 143.043 325.701 143.825 332.843 145.322C335.322 141.927 324.795 139.649 324.988 136.59Z" fill="#E7D9C9"/>
</g>
<g style="mix-blend-mode:multiply" opacity="0.82">
<path d="M348.581 135.325C345.151 135.567 345.285 134.767 341.826 135.009V136.292C343.711 135.865 348.997 136.413 348.581 135.325Z" fill="#E7D9C9"/>
</g>
<g style="mix-blend-mode:multiply" opacity="0.82">
<path d="M411.536 92.3159C414.505 93.4969 416.688 94.2409 422.761 93.934C442.538 92.9297 417.044 85.983 411.536 92.3159Z" fill="#E7D9C9"/>
</g>
<g style="mix-blend-mode:multiply" opacity="0.82">
<path d="M780.176 98.4622C781.513 100.462 775.321 100.322 775.722 102.015C801.201 107.008 758.617 113.76 777.964 120.446C786.219 118.837 787.11 112.3 802.671 111.723C807.377 112.309 812.069 112.895 816.182 113.667C836.776 111.416 816.182 106.395 815.039 102.015C811.52 101.317 806.13 101.131 803.814 100.071C807.6 94.9098 780.607 90.2322 772.322 95.8769C772.277 97.5322 779.523 97.0301 780.176 98.4622Z" fill="#E7D9C9"/>
</g>
<g style="mix-blend-mode:multiply" opacity="0.82">
<path d="M710.466 145.033C710.169 145.759 710.763 146.242 712.723 146.326C713.079 145.88 714.312 145.703 713.836 145.033H710.466Z" fill="#E7D9C9"/>
</g>
<g style="mix-blend-mode:multiply" opacity="0.82">
<path d="M904.898 261.769C914.564 260.988 919.879 258.979 924.036 256.589C913.984 254.692 900.132 259.435 904.898 261.769Z" fill="#E7D9C9"/>
</g>
<g style="mix-blend-mode:multiply" opacity="0.82">
<path d="M664.378 108.161C658.9 111.621 669.412 113.146 671.149 115.601C667.066 117.247 656.747 118.391 661.023 121.422C671.342 122.185 669.026 116.643 681.26 116.894C680.741 118.66 687.363 118.372 686.873 120.13C685.626 121.171 679.033 120.678 675.648 121.06C673.421 122.762 676.955 124.138 672.248 124.938C667.318 123.645 659.434 124.752 652.055 124.612C644.512 123.738 644.052 121.301 645.299 119.442C644.127 119.341 642.988 119.121 641.929 118.791C631.075 119.349 630.051 122.706 629.561 126.23C639.226 128.09 653.911 127.411 667.749 128.825C676.658 127.56 682.047 123.877 694.742 125.589C701.097 123.459 705.136 117.489 692.485 116.856C696.494 114.997 707.734 113.676 698.098 111.36C697.311 109.947 700.028 109.501 699.241 108.124C689.546 105.325 676.494 108.877 664.378 108.161ZM690.258 121.422C690.912 122.91 687.719 123.282 687.986 124.649C683.532 124.519 689.085 123.115 685.759 122.39C681.557 122.557 687.422 124.333 680.117 124.008C680.013 123.003 681.483 122.464 682.404 121.739C686.324 122.008 686.68 121.255 690.258 121.422Z" fill="#E7D9C9"/>
</g>
<g style="mix-blend-mode:multiply" opacity="0.82">
<path d="M356.451 237.842C358.693 235.052 350.022 235.052 353.08 232.987C348.626 232.141 336.273 231.76 336.213 233.917C337.609 235.647 340.742 236.391 338.455 238.446C344.142 239.906 352.501 239.376 356.451 237.842Z" fill="#E7D9C9"/>
</g>
<g style="mix-blend-mode:multiply" opacity="0.82">
<path d="M357.594 227.807C364.053 227.575 365.968 225.166 360.949 223.929C356.673 222.879 336.302 222.618 333.956 221.344C333.763 221.884 330.794 222.172 330.601 222.646C329.294 225.585 340.846 224.776 346.324 225.557C352.249 226.375 352.501 227.993 357.594 227.807Z" fill="#E7D9C9"/>
</g>
<g style="mix-blend-mode:multiply" opacity="0.82">
<path d="M430.63 197.092C417.935 197.25 415.782 204.485 405.894 204.857C399.301 205.098 396.168 202.922 390.155 201.946H365.448C356.644 205.015 337.683 205.163 328.329 208.083C329.368 210.808 343.37 209.795 348.566 211.32C349.576 212.25 346.25 214.361 350.808 214.23C359.955 213.198 365.374 207.656 376.658 206.791C385.815 206.174 395.075 206.95 403.652 209.051C402.642 209.981 402.642 210.036 403.652 210.994C417.876 210.762 417.015 214.9 426.101 216.165C441.766 214.351 426.205 210.232 426.101 207.107C426.027 203.545 445.448 199.063 430.63 197.092Z" fill="#E7D9C9"/>
</g>
<g style="mix-blend-mode:multiply" opacity="0.82">
<path d="M693.629 139.845C698.588 139.845 703.294 139.845 704.853 138.915C699.508 136.785 690.793 135.632 684.616 133.735C676.004 133.995 678.677 136.069 671.149 136.32C663.116 136.599 652.545 133.316 644.185 136.32C644.052 137.65 643.963 138.98 645.299 139.872C652.411 140.328 664.839 140.886 676.761 140.858C678.944 139.928 676.465 137.743 682.404 137.938C690.095 137.417 687.689 139.826 693.629 139.845Z" fill="#E7D9C9"/>
</g>
<g style="mix-blend-mode:multiply" opacity="0.82">
<path d="M695.885 258.858C695.885 258.663 696.049 258.477 696.984 258.533V257.891C696.301 257.891 695.648 257.845 695.885 257.566H693.629C693.629 257.761 693.436 257.947 692.485 257.891V258.533C693.168 258.533 693.822 258.589 693.629 258.858H695.885Z" fill="#E7D9C9"/>
</g>
<g style="mix-blend-mode:multiply" opacity="0.82">
<path d="M955.499 247.866C955.855 247.429 957.087 247.253 956.627 246.564H952.173C951.148 247.615 953.865 247.587 955.499 247.866Z" fill="#E7D9C9"/>
</g>
<g style="mix-blend-mode:multiply" opacity="0.82">
<path d="M360.949 251.093C363.429 249.373 360.727 248.461 357.594 247.541C349.324 248.294 337.193 247.922 332.843 249.81C342.375 253.706 345.998 257.593 349.725 263.387C382.286 264.233 377.49 254.245 360.949 251.093Z" fill="#E7D9C9"/>
</g>
<g style="mix-blend-mode:multiply" opacity="0.82">
<path d="M122.672 201.621C119.48 204.587 128.612 208.195 135.055 208.084C148.834 207.861 133.259 201.844 122.672 201.621Z" fill="#E7D9C9"/>
</g>
<g style="mix-blend-mode:multiply" opacity="0.82">
<path d="M47.3646 188.667C38.8717 189.438 35.1598 193 35.0261 195.176C47.424 195.176 58.1589 190.629 47.3646 188.667Z" fill="#E7D9C9"/>
</g>
<g style="mix-blend-mode:multiply" opacity="0.82">
<path d="M353.08 116.243C350.823 116.782 347.854 117.117 347.468 118.187C355.634 119.2 366.206 121.153 374.431 121.097C376.376 118.159 360.237 117.638 353.08 116.243Z" fill="#E7D9C9"/>
</g>
<g style="mix-blend-mode:multiply" opacity="0.82">
<path d="M259.777 128.537C273.14 130.88 265.909 139.008 247.409 136.293C243.459 137.715 247.275 139.445 246.295 141.798C251.908 141.528 255.471 143.537 263.177 142.123C260.534 139.585 268.225 137.66 274.402 136.618C272.219 140.208 268.27 146.048 251.908 146.643C250.052 150.409 253.585 154.138 255.308 156.668C258.737 156.9 259.391 156.342 262.034 156.342C262.85 154.743 262.939 154.622 260.92 153.431C267.453 149.544 300.371 148.912 280.014 144.058C282.167 139.408 288.923 136.069 294.639 132.415C294.832 131.392 291.67 131.336 292.382 130.155C294.016 129.55 294.892 128.723 299.138 128.862C302.464 129.839 304.558 131.178 311.506 131.122C312.917 127.002 324.201 125.728 324.988 121.423C322.761 120.976 318.559 121.116 315.976 120.772C306.473 121.925 306.31 125.747 297.995 127.281C283.697 126.872 273.199 125.366 275.545 120.167C268.389 117.443 246.83 118.605 245.196 122.111C251.195 123.896 262.939 124.073 259.777 128.537Z" fill="#E7D9C9"/>
</g>
<g style="mix-blend-mode:multiply" opacity="0.82">
<path d="M478.959 129.504C487.185 126.444 478.559 124.547 468.833 123.357C464.037 123.701 462.182 124.891 463.221 126.918C469.68 127.43 471.031 129.42 478.959 129.504Z" fill="#E7D9C9"/>
</g>
<g style="mix-blend-mode:multiply" opacity="0.82">
<path d="M265.389 167.994C265.849 162.256 248.685 161.587 235.07 159.894C237.297 162.898 227.334 163.065 230.616 165.4C236.718 166.562 249.116 165.902 254.209 167.343V169.277C251.603 168.821 248.827 168.936 246.339 169.603C244.855 171.556 249.71 171.658 253.095 172.188C257.95 170.998 260.564 169.184 265.389 167.994Z" fill="#E7D9C9"/>
</g>
<g style="mix-blend-mode:multiply" opacity="0.82">
<path d="M792.515 252.07C795.677 257.649 806.442 253.325 817.251 253.046C825.15 252.832 828.535 254.72 835.232 253.362C838.008 250.926 841.334 247.783 832.975 247.541C827.333 247.346 824.229 250.284 817.251 250.768C805.536 251.595 794.831 249.336 792.515 252.07Z" fill="#E7D9C9"/>
</g>
<g style="mix-blend-mode:multiply" opacity="0.82">
<path d="M160.891 206.8C155.328 206.695 152.71 207.448 153.036 209.06C155.709 209.794 159.822 209.116 161.945 208.734C162.197 207.934 162.197 207.172 160.891 206.8Z" fill="#E7D9C9"/>
</g>
<g style="mix-blend-mode:multiply" opacity="0.82">
<path d="M48.5078 184.807C59.9851 185.476 64.8403 181.682 64.2316 179.636C61.6184 170.012 28.983 183.672 48.5078 184.807Z" fill="#E7D9C9"/>
</g>
<g style="mix-blend-mode:multiply" opacity="0.82">
<path d="M1277.53 186.007L1277.44 181.413C1273.66 182.826 1272.13 185.086 1277.53 186.007Z" fill="#E7D9C9"/>
</g>
<g style="mix-blend-mode:multiply" opacity="0.82">
<path d="M754.297 140.83C764.052 142.746 777.207 143.183 785.789 144.699C800.636 143.415 797.311 139.696 797.014 135.976C790.525 135.79 791.074 133.577 791.401 131.447C797.34 131.447 797.608 129.782 801.512 129.178C799.025 128.547 796.321 128.326 793.658 128.536C790.288 128.973 789.412 130.117 786.902 130.796C784.23 130.164 781.542 131.122 779.033 130.154C776.167 129.29 779.716 128.453 779.033 127.244C760.726 124.454 759.092 132.702 764.423 137.268C759.478 138.003 753.911 138.552 754.297 140.83Z" fill="#E7D9C9"/>
</g>
<g style="mix-blend-mode:multiply" opacity="0.82">
<path d="M963.353 143.406C968.847 138.161 935.142 137.426 939.76 131.447C944.214 129.922 952.188 129.42 958.854 128.536C965.313 124.891 962.314 120.009 973.479 118.186C992.306 120.288 1013.12 122.529 1025.16 117.256C1015.87 113.257 1041.62 108.012 1027.42 106.906C1014.89 105.976 1014.56 112.671 1003.83 114.02C990.807 113.136 994.919 106.878 981.334 107.231C969.456 107.529 971.683 114.28 957.741 115.312C951.475 115.08 950.406 113.332 943.13 113.369C929.767 115.368 943.353 118.735 942.017 122.752C935.974 125.114 930.139 127.541 919.522 128.573C919.166 127.811 916.033 127.848 915.068 127.281C915.068 126.221 918.231 126.044 917.28 124.686C914.162 123.756 908.936 123.431 906.07 122.426C907.362 120.223 904.304 119.255 901.616 118.223C914.148 118.102 919.73 113.35 924.11 109.854C920.903 108.189 916.167 106.962 910.629 105.967C904.229 107.11 897.533 106.301 890.391 106.896C885.729 108.012 892.618 110.923 885.937 111.751C878.201 110.821 865.833 108.635 856.687 110.133C853.717 111.444 859.656 112.151 856.687 113.694C852.232 114.541 843.324 114.141 839.849 115.303C840.829 117.563 846.679 119.097 855.588 118.539C861.527 118.177 864.007 115.136 869.099 114.978C881.334 114.615 887.243 120.557 875.811 123.068C863.739 122.426 860.384 121.58 848.862 123.068C841.156 122.045 827.422 116.689 821.869 121.766C828.817 123.933 840.993 125.709 837.607 129.857C841.72 129.857 842.656 130.787 845.462 131.149C849.768 130.554 852.544 129.522 856.687 128.89C865.7 130.055 875.055 129.607 883.68 127.597C894.786 129.262 908.03 130.294 912.886 133.735C907.733 135.873 897.355 136.041 898.305 138.589C898.825 140.077 908.461 141.053 911.787 142.467C917.949 145.08 918.246 148.465 926.367 148.614C922.744 145.219 917.949 138.989 925.298 136.645C933.093 137.11 932.44 139.779 930.881 142.15C936.271 144.875 959.864 146.763 963.353 143.406Z" fill="#E7D9C9"/>
</g>
<g style="mix-blend-mode:multiply" opacity="0.82">
<path d="M1092.62 148.586C1091.22 151.013 1094.33 153.45 1089.23 155.7C1093.54 160.666 1088.09 168.217 1103.86 171.221C1110.48 171.574 1118.11 171.649 1122.97 172.513C1128.22 171.77 1131.59 170.477 1136.45 169.603C1139.55 169.9 1144.35 169.705 1146.56 170.254C1150.72 169.24 1159.6 168.301 1160.04 166.05C1160.31 164.73 1155.74 163.958 1154.43 162.489C1148.49 155.756 1159.06 152.985 1183.65 153.431C1190.43 152.148 1194.15 149.981 1198.26 147.935C1199.37 143.434 1191.47 140.682 1183.65 137.91C1174.44 138.189 1178.75 142.3 1180.28 144.057C1168.62 150.837 1149.25 140.524 1131.95 145.034C1129.41 144.039 1129.99 142.142 1126.34 141.472C1107.57 142.114 1095.39 143.713 1092.62 148.586Z" fill="#E7D9C9"/>
</g>
<g style="mix-blend-mode:multiply" opacity="0.82">
<path d="M1079.11 114.95C1092.56 114.541 1080.49 108.608 1073.49 107.51C1062.14 109.538 1069.65 115.201 1079.11 114.95Z" fill="#E7D9C9"/>
</g>
<g style="mix-blend-mode:multiply" opacity="0.82">
<path d="M1092.62 121.711C1090.93 119.953 1088.16 119.46 1084.76 119.451C1070.08 119.451 1072.89 126.063 1085.86 125.598C1090.41 125.431 1095.01 124.278 1092.62 121.711Z" fill="#E7D9C9"/>
</g>
<g style="mix-blend-mode:multiply" opacity="0.82">
<path d="M1244.35 134.358C1238.6 135.678 1230.41 136.441 1225.22 137.91C1219.15 139.649 1216.6 143.49 1212.88 146.642C1210.33 148.8 1201.01 154.259 1213.98 154.407C1218.85 154.463 1218.72 152.78 1223 151.171C1225.85 150.093 1235.77 146.745 1239.83 145.675C1244.93 144.355 1249.93 144.345 1251.07 142.765C1252.56 140.784 1246.28 139.9 1248.85 138.561C1260.81 138.924 1265.09 141.509 1276.58 142.021L1276.4 133.493C1273.82 132.587 1270.9 132.104 1267.94 132.089C1259 132.014 1256.23 136.181 1244.35 134.358Z" fill="#E7D9C9"/>
</g>
<g style="mix-blend-mode:multiply" opacity="0.82">
<path d="M817.251 239.134C823.19 240.203 830.169 238.836 832.975 237.19C830.629 234.112 814.089 235.861 817.251 239.134Z" fill="#E7D9C9"/>
</g>
<g style="mix-blend-mode:multiply" opacity="0.82">
<path d="M1056.66 155.7C1048.21 152.473 1042.76 149.516 1025.16 151.822C1025.52 155.449 1030.26 159.318 1028.56 162.489C1015.77 163.123 1002.89 162.581 990.346 160.88C988.908 161.271 987.417 161.582 985.892 161.81C983.962 169.798 1027.93 164.6 1027.47 172.151C1026.57 172.225 1026.16 172.43 1026.35 172.802C1022.14 173.667 1016.14 172.411 1012.84 173.127C1008.39 173.834 1015.26 176.847 1007.26 177.005C1000.18 177.098 1001.32 174.829 996.003 174.42C977.013 177.61 968.787 173.109 955.543 171.184C951.089 172.588 954.89 174.903 955.543 176.689C958.602 177.74 965.165 177.796 967.911 178.949C967.614 180.269 963.724 180.548 964.541 182.176C967.778 183.254 979.032 183.515 984.749 182.827C993.524 183.756 990.525 186.788 994.89 188.648C997.859 189.922 1004.07 190.061 1008.37 190.917C1015.1 192.238 1021.29 195.446 1029.72 194.144C1031.58 191.447 1031.88 188.304 1035.34 186.063C1026.13 184.203 1009.02 184.575 1006.11 180.892C1012.78 180.223 1017.99 179.125 1024.1 178.298C1034.03 182.947 1043.4 178.298 1048.85 175.387C1048.19 174.066 1043.65 173.862 1043.19 172.476C1050.24 169.11 1035.94 168.431 1035.34 165.362C1037.03 164.666 1038.96 164.223 1040.98 164.07C1049.53 165.483 1047.47 169.956 1060.07 170.217C1068.39 167.864 1082.71 167.25 1081.41 162.126C1076.37 159.931 1064.01 158.518 1056.66 155.7Z" fill="#E7D9C9"/>
</g>
<g style="mix-blend-mode:multiply" opacity="0.82">
<path d="M547.527 246.565C552.248 246.565 553.956 245.635 556.435 244.956C554.282 243.096 568.907 239.004 556.435 237.842C549.353 239.376 540.444 243.979 547.527 246.565Z" fill="#E7D9C9"/>
</g>
<g style="mix-blend-mode:multiply" opacity="0.82">
<path d="M803.769 135.976C812.099 135.567 817.414 134.442 814.994 131.773C809.486 132.442 804.333 133.223 801.512 134.683C800.651 135.567 803.74 135.334 803.769 135.976Z" fill="#E7D9C9"/>
</g>
<g style="mix-blend-mode:multiply" opacity="0.82">
<path d="M962.24 244.956C967.407 243.645 974.519 242.882 975.721 240.427C966.62 239.144 952.915 242.919 962.24 244.956Z" fill="#E7D9C9"/>
</g>
<g style="mix-blend-mode:multiply" opacity="0.82">
<path d="M1003.83 232.671C1000.62 233.731 993.91 233.452 997.072 235.247C1013.03 234.019 1020.72 230.411 1028.56 226.877C1015.02 225.957 1011.49 230.104 1003.83 232.671Z" fill="#E7D9C9"/>
</g>
<g style="mix-blend-mode:multiply" opacity="0.82">
<path d="M434.015 239.813C428.24 239.022 427.037 242.324 418.262 241.747C415.292 238.799 419.494 235.238 422.716 233.015C421.514 231.973 417.193 231.806 414.847 231.071C418.663 227.947 435.47 226.905 431.714 222.702C415.381 221.949 409.992 229.119 400.222 229.165C383.578 229.249 400.786 226.096 402.479 224.636C405.196 222.311 400.845 221.168 402.479 218.499C396.777 215.439 384.201 216.313 372.13 215.253C366.191 216.546 367.913 220.089 369.903 222.051C373.273 222.479 378.811 222.274 382.241 222.702C384.385 224.334 387.07 225.654 390.111 226.571C388.626 228.3 381.068 228.282 376.629 229.165C371.417 230.923 371.091 234.745 376.629 236.605C380.905 237.209 387.69 237.088 390.111 238.213C393.377 240.324 389.784 243.793 394.565 245.978C393.303 247.448 388.7 247.959 387.854 249.54C392.27 251.606 395.416 254.562 396.762 257.91C411.61 257.519 415.144 252.758 407.987 249.54C410.333 247.829 418.529 247.494 422.612 245.978C424.736 245.188 424.097 243.877 425.968 243.068C428.834 241.831 438.648 241.459 434.015 239.813Z" fill="#E7D9C9"/>
</g>
<g style="mix-blend-mode:multiply" opacity="0.82">
<path d="M556.495 226.199C556.331 229.593 573.762 229.984 573.362 226.199C569.59 225.595 560.444 225.809 556.495 226.199Z" fill="#E7D9C9"/>
</g>
<g style="mix-blend-mode:multiply" opacity="0.82">
<path d="M671.149 123.357V122.073C668.18 121.98 666.309 122.185 666.695 123.003C668.142 123.263 669.644 123.382 671.149 123.357Z" fill="#E7D9C9"/>
</g>
<g style="mix-blend-mode:multiply" opacity="0.82">
<path d="M37.2681 381.75C37.2681 379.443 32.4128 377.332 29.369 376.895H28.7751C28.7751 378.709 28.7752 380.522 28.8494 382.335C31.688 382.634 34.6035 382.432 37.2681 381.75Z" fill="#E7D9C9"/>
</g>
<g style="mix-blend-mode:multiply" opacity="0.82">
<path d="M123.786 332.268C124.306 334.807 133.482 335.327 133.912 338.405C134.135 339.893 129.176 341.316 130.542 342.609C131.908 343.901 137.134 344.701 142.91 344.227C146.147 340.07 142.91 335.746 145.167 331.626C137.327 331.357 127.765 329.897 123.786 332.268Z" fill="#E7D9C9"/>
</g>
<g style="mix-blend-mode:multiply" opacity="0.82">
<path d="M272.145 292.82C235.53 293.601 287.349 301.45 272.145 292.82V292.82Z" fill="#E7D9C9"/>
</g>
<g style="mix-blend-mode:multiply" opacity="0.82">
<path d="M100.193 332.593C97.7877 332.593 91.908 333.867 92.3237 335.504C102.806 337.782 112.799 332.435 100.193 332.593Z" fill="#E7D9C9"/>
</g>
<g style="mix-blend-mode:multiply" opacity="0.82">
<path d="M124.929 327.739C134.951 327.739 141.648 322.745 130.542 322.243C125.078 322.922 119.807 326.056 124.929 327.739Z" fill="#E7D9C9"/>
</g>
<g style="mix-blend-mode:multiply" opacity="0.82">
<path d="M224.959 298.306C235.827 297.934 226.919 294.01 220.504 296.046C220 297.358 220.876 298.306 224.959 298.306Z" fill="#E7D9C9"/>
</g>
<g style="mix-blend-mode:multiply" opacity="0.82">
<path d="M56.3623 380.773C59.1685 380.513 62.3756 380.346 61.9747 379.165C59.7792 378.718 57.4146 378.718 55.219 379.165C55.0636 379.474 55.094 379.808 55.3046 380.104C55.5151 380.401 55.8913 380.639 56.3623 380.773Z" fill="#E7D9C9"/>
</g>
<g style="mix-blend-mode:multiply" opacity="0.82">
<path d="M31.6259 419.905C31.7744 418.733 28.9236 418.11 28.2109 417.218C28.1416 419.077 28.0625 420.897 27.9734 422.676C29.6957 421.756 31.5368 420.844 31.6259 419.905Z" fill="#E7D9C9"/>
</g>
<g style="mix-blend-mode:multiply" opacity="0.82">
<path d="M30.5124 390.464C34.7292 390.166 34.7589 388.669 39.4953 388.52C38.352 387.59 38.649 386.177 36.1248 385.609C33.7166 385.459 31.2918 385.444 28.8792 385.563V389.078C29.4285 389.534 29.4137 390.185 30.5124 390.464Z" fill="#E7D9C9"/>
</g>
<g style="mix-blend-mode:multiply" opacity="0.82">
<path d="M48.5079 364.936C53.6897 365.42 59.4061 365.364 60.8612 363.96C61.3215 362.425 57.0156 362.258 57.4759 360.724C53.1998 360.463 53.1404 361.421 51.8635 362.016C46.6074 360.817 32.6356 359.85 39.4953 357.171C35.8576 356.716 31.819 355.814 27.8992 355.135C28.107 358.39 28.2802 361.669 28.4188 364.974C32.002 365.913 35.7079 366.656 39.4953 367.196C43.2815 366.657 47.424 366.285 48.5079 364.936Z" fill="#E7D9C9"/>
</g>
<g style="mix-blend-mode:multiply" opacity="0.82">
<path d="M73.1997 386.929C77.9955 387.218 78.8864 386.399 79.9555 385.627C77.5798 385.33 76.6295 384.642 73.1997 384.698C71.0171 385.544 71.0171 386.027 73.1997 386.929Z" fill="#E7D9C9"/>
</g>
<g style="mix-blend-mode:multiply" opacity="0.82">
<path d="M752.04 79.3802C749.845 79.0277 747.569 78.9176 745.314 79.0547V80.9983C749.204 80.9332 752.634 80.7286 752.04 79.3802Z" fill="#E7D9C9"/>
</g>
<g style="mix-blend-mode:multiply" opacity="0.82">
<path d="M482.657 503.916L483.845 505.999L485.107 506.073C484.518 505.263 483.686 504.53 482.657 503.916Z" fill="#E7D9C9"/>
</g>
<g style="mix-blend-mode:multiply" opacity="0.82">
<path d="M399.168 488.786C392.739 487.856 392.961 484.964 383.429 484.908C389.695 489.279 406.532 493.203 399.168 499.462C404.29 500.922 402.82 502.977 404.78 504.641C405.857 505.438 407.124 506.125 408.537 506.678L438.41 506.538L442.612 501.312C438.425 501.47 434.015 501.572 429.516 501.721C416.629 498.215 406.205 493.975 399.168 488.786Z" fill="#E7D9C9"/>
</g>
<g style="mix-blend-mode:multiply" opacity="0.82">
<path d="M495.827 501.722C499.687 503.833 498.484 505.2 496.346 506.771L509.873 507.599C508.121 506.911 507.2 506.074 508.195 505.292C509.29 505.118 510.426 505.064 511.55 505.134C512.248 504.121 513.035 502.884 514.045 501.582C508.848 502.335 501.573 501.21 495.827 501.722Z" fill="#E7D9C9"/>
</g>
<g style="mix-blend-mode:multiply" opacity="0.82">
<path d="M1169.92 509.031L1194.25 509.961L1195.25 507.171C1190.6 507.673 1185.82 508.194 1181.39 508.482C1176.97 508.77 1172.97 508.752 1169.92 509.031Z" fill="#E7D9C9"/>
</g>
<g style="mix-blend-mode:multiply" opacity="0.82">
<path d="M1262.33 506.25C1251.93 506.632 1253.64 510.193 1244.35 511.746C1238.82 510.872 1232.94 511.049 1227.47 509.812C1221.72 508.51 1221.53 506.297 1213.98 505.925C1211.36 505.843 1208.72 505.918 1206.11 506.148L1208.16 511.04L1288.8 513.151L1288.4 509.859C1277.98 508.78 1271.73 505.916 1262.33 506.25Z" fill="#E7D9C9"/>
</g>
<g style="mix-blend-mode:multiply" opacity="0.82">
<path d="M1221.88 279.884C1221.62 281.031 1223.49 281.57 1227.47 281.502C1231.44 280.377 1225.74 278.731 1221.88 279.884Z" fill="#E7D9C9"/>
</g>
<g style="mix-blend-mode:multiply" opacity="0.82">
<path d="M1155.51 13.4096C1162.24 14.3396 1167.23 12.303 1174.64 11.4661C1189.48 9.79216 1208.5 8.92732 1220.66 6.93725C1221.65 6.7704 1222.62 6.56542 1223.56 6.32349L1154.22 7.79279C1153.27 9.65267 1154.95 11.9775 1155.51 13.4096Z" fill="#E7D9C9"/>
</g>
<g style="mix-blend-mode:multiply" opacity="0.82">
<path d="M1262.33 10.1834C1264.78 8.39742 1267.51 6.77105 1270.48 5.3291L1251.07 5.73828C1253.15 7.50516 1254.83 9.50453 1262.33 10.1834Z" fill="#E7D9C9"/>
</g>
<g style="mix-blend-mode:multiply" opacity="0.82">
<path d="M976.835 21.8167C980.265 24.7553 972.455 28.3262 982.477 28.9307C992.499 29.5352 989.589 25.5643 1000.46 25.6945C1006.69 26.6988 1003.43 30.4558 1009.37 31.5159C1032.23 32.0553 1035.5 26.9685 1050.94 25.3783C1057.76 23.4534 1057.59 19.7987 1065.55 17.2879C1072.65 15.0839 1088.02 14.9537 1079.03 9.84834C1079.31 9.65566 1079.63 9.48958 1079.98 9.35547L1001.47 11.048C1010.08 12.1639 1003.53 16.0324 998.201 16.0231C989.634 16.0231 993.554 12.4801 998.201 11.1224L974.37 11.5966L971.727 19.7522C973.715 20.1133 975.491 20.831 976.835 21.8167Z" fill="#E7D9C9"/>
</g>
<g style="mix-blend-mode:multiply" opacity="0.82">
<path d="M199.109 243.979C199.376 240.018 187.231 233.852 169.874 235.247C168.3 235.991 165.983 236.503 164.261 237.191C162.227 239.832 177.283 239.199 181.128 242.696C185.375 246.574 183.385 252.209 173.229 252.386C166.414 252.516 167.038 250.526 158.649 250.452C152.413 250.814 153.69 253.334 147.379 253.688C146.414 253 143.994 252.758 144.024 251.744C148.27 250.256 159.064 248.369 153.036 245.923C138.797 245.495 140.178 249.559 129.428 250.126C124.677 249.977 123.37 248.852 117.06 249.196C102.509 252.823 126.667 257.566 139.525 256.31C148.923 259.054 137.001 264.429 123.786 264.68C118.827 268.093 109.859 270.362 93.4373 270.501C89.1017 271.877 91.3883 274.593 96.8374 275.03C101.96 274.9 104.053 273.877 109.176 273.737C114.387 274.072 116.778 275.225 122.673 275.346C134.952 273.217 145.523 275.681 158.649 275.997C165.167 274.491 159.391 272.566 158.649 270.501C162.465 268.837 168.508 269.794 175.486 269.218C178.975 266.186 185.597 261.118 190.096 255.948C192.739 252.916 192.056 249.726 194.551 247.215C195.917 245.932 199.005 245.272 199.109 243.979Z" fill="#E7D9C9"/>
</g>
<g style="mix-blend-mode:multiply" opacity="0.82">
<path d="M208.092 292.169C215.516 292.569 220.222 289.695 217.089 287.965C209.873 283.967 193.17 291.36 208.092 292.169Z" fill="#E7D9C9"/>
</g>
<g style="mix-blend-mode:multiply" opacity="0.82">
<path d="M197.965 267.59C193.333 269.013 197.149 271.068 203.578 271.143C209.487 270.064 206.295 267.311 197.965 267.59Z" fill="#E7D9C9"/>
</g>
<g style="mix-blend-mode:multiply" opacity="0.82">
<path d="M95.6941 261.453C88.6414 262.132 88.6414 265.61 95.6941 266.298C106.978 265.991 105.776 261.955 95.6941 261.453Z" fill="#E7D9C9"/>
</g>
<g style="mix-blend-mode:multiply" opacity="0.82">
<path d="M213.704 255.296C211.447 255.836 208.478 256.171 208.092 257.249C213.541 258.477 211.447 261.899 219.346 262.41C226.919 260.95 224.172 255.38 213.704 255.296Z" fill="#E7D9C9"/>
</g>
<g style="mix-blend-mode:multiply" opacity="0.82">
<path d="M1273.58 222.312C1274.75 222.382 1275.93 222.382 1277.1 222.312L1275.42 219.754C1272.34 219.968 1271.33 221.586 1273.58 222.312Z" fill="#E7D9C9"/>
</g>
<g style="mix-blend-mode:multiply" opacity="0.82">
<path d="M471.031 35.0778C469.498 34.7689 467.86 34.7259 466.292 34.9535C464.723 35.1811 463.282 35.6708 462.122 36.3704C465.418 37.0864 472.367 36.6866 471.031 35.0778Z" fill="#E7D9C9"/>
</g>
<g style="mix-blend-mode:multiply" opacity="0.82">
<path d="M610.437 34.426C615.366 32.2871 619.093 25.917 605.982 25.6938C598.395 27.8327 602.285 33.1055 610.437 34.426Z" fill="#E7D9C9"/>
</g>
<g style="mix-blend-mode:multiply" opacity="0.82">
<path d="M208.641 8.25781H197.03C200.886 8.55015 204.785 8.55015 208.641 8.25781Z" fill="#E7D9C9"/>
</g>
<g style="mix-blend-mode:multiply" opacity="0.82">
<path d="M387.883 65.4774C382.494 65.5611 372.798 69.8109 381.128 71.9404C388.106 71.057 403.934 65.2263 387.883 65.4774Z" fill="#E7D9C9"/>
</g>
<g style="mix-blend-mode:multiply" opacity="0.82">
<path d="M654.267 45.1022C670.451 44.2931 660.607 34.3707 650.912 32.1667C642.226 31.9249 638.647 33.1618 635.173 34.4265C637.786 38.8158 637.326 45.9484 654.267 45.1022Z" fill="#E7D9C9"/>
</g>
<g style="mix-blend-mode:multiply" opacity="0.82">
<path d="M492.426 16.9622C490.051 18.8221 474.936 19.5567 482.315 22.142C489.501 22.4767 489.13 20.6541 494.683 20.5239C497.951 21.237 501.357 21.6718 504.809 21.8165C518.514 19.3057 501.632 16.6367 500.355 15.3069C499.539 14.4979 501.959 12.8519 501.498 12.0707C500.86 10.9827 498.529 9.65288 495.47 8.35096L481.721 8.29517C489.011 10.527 486.398 14.1166 492.426 16.9622Z" fill="#E7D9C9"/>
</g>
<g style="mix-blend-mode:multiply" opacity="0.82">
<path d="M683.517 44.4514C708.61 44.9536 702.211 36.4911 685.759 37.0119C674.445 37.3745 674.891 42.6659 683.517 44.4514Z" fill="#E7D9C9"/>
</g>
<g style="mix-blend-mode:multiply" opacity="0.82">
<path d="M621.127 8.19287H620.993L620.444 13.7725C621.576 12 621.815 10.0528 621.127 8.19287Z" fill="#E7D9C9"/>
</g>
<g style="mix-blend-mode:multiply" opacity="0.82">
<path d="M610.437 13.7353C600.489 15.2511 587.17 21.6026 603.725 24.0762C607.621 22.663 611.234 20.9648 614.49 19.0174L610.377 12.4148C610.339 12.8552 610.359 13.2969 610.437 13.7353Z" fill="#E7D9C9"/>
</g>
<g style="mix-blend-mode:multiply" opacity="0.82">
<path d="M474.446 75.818V77.4361H481.202C482.092 75.7715 477.98 75.3531 474.446 75.818Z" fill="#E7D9C9"/>
</g>
<g style="mix-blend-mode:multiply" opacity="0.82">
<path d="M467.735 77.7619V76.4692H460.979C459.405 78.0036 465.092 78.4221 467.735 77.7619Z" fill="#E7D9C9"/>
</g>
<g style="mix-blend-mode:multiply" opacity="0.82">
<path d="M732.96 57.3871C740.592 54.309 731.283 49.213 716.078 49.6314C710.704 50.9333 712.07 53.4163 713.837 55.769C719.903 57.283 726.47 57.8387 732.96 57.3871Z" fill="#E7D9C9"/>
</g>
<g style="mix-blend-mode:multiply" opacity="0.82">
<path d="M572.233 71.9407C576.985 71.6804 581.142 70.1553 585.745 69.681C595.069 68.751 609.501 68.8347 622.864 68.3884C631.773 68.0815 641.765 66.8168 648.714 67.0957C654 67.3003 658.736 69.495 664.438 69.3462C666.483 69.3892 668.507 69.0809 670.292 68.4547C672.077 67.8285 673.555 66.9083 674.564 65.7938C661.929 64.7988 649.471 63.748 635.232 63.2086C627.14 60.7629 627.809 56.5223 625.121 53.1838C624.052 51.8726 620.266 50.6916 619.509 49.306C617.653 45.9768 624.705 41.1132 613.896 39.2812C607.007 40.6204 612.1 42.8615 612.753 44.7772C613.673 47.474 610.466 50.4963 611.639 52.8584C612.367 54.3277 617.846 55.3692 619.509 57.0617C622.018 59.6376 620.459 61.5719 619.509 64.185C617.318 64.7322 615.058 65.1645 612.753 65.4777C603.221 66.2774 589.086 66.0821 579.034 67.0957C573.362 67.663 570.259 69.5694 564.423 69.681C560.311 69.7554 556.005 68.4907 552.085 68.7045C543.176 69.5787 539.553 72.0058 529.605 72.5917C514.654 70.4063 501.142 74.2563 491.387 76.4696C501.009 79.3431 509.665 75.7349 518.366 75.1769C523.34 74.8608 529.115 75.5024 534.104 75.1769C543.013 74.5818 547.809 71.9407 557.697 71.6153C561.974 71.4944 567.541 72.2011 572.233 71.9407Z" fill="#E7D9C9"/>
</g>
<g style="mix-blend-mode:multiply" opacity="0.82">
<path d="M673.391 70.9731C674.965 72.6377 682.047 72.2378 685.759 71.2986C686.739 68.8342 673.777 68.8714 673.391 70.9731Z" fill="#E7D9C9"/>
</g>
<g style="mix-blend-mode:multiply" opacity="0.82">
<path d="M984.763 357.813C984.303 358.427 982.343 358.622 982.536 359.431C984.17 360.575 988.609 360.919 992.648 361.375C997.622 359.505 991.133 358.176 984.763 357.813Z" fill="#E7D9C9"/>
</g>
<g style="mix-blend-mode:multiply" opacity="0.82">
<path d="M222.702 405.677C219.51 406.161 217.906 407.1 213.704 407.295C210.66 406.979 208.285 406.486 208.092 405.352C209.646 404.503 211.643 404.043 213.704 404.059C217.906 404.059 217.09 405.454 222.702 405.035C225.226 404.449 225.345 403.399 223.816 402.441C208.092 400.851 188.567 402.487 187.854 407.937C200.772 408.634 207.364 411.173 218.203 412.466C226.889 411.498 236.807 406.895 222.702 405.677Z" fill="#E7D9C9"/>
</g>
<g style="mix-blend-mode:multiply" opacity="0.82">
<path d="M239.584 391.765C241.47 391.891 243.377 391.784 245.196 391.449V390.519C242.227 390.519 238.574 390.333 238.441 391.161C239.317 391.198 239.747 391.393 239.584 391.765Z" fill="#E7D9C9"/>
</g>
<g style="mix-blend-mode:multiply" opacity="0.82">
<path d="M564.364 424.434C561.914 425.504 567.66 427.308 563.25 427.986C553.228 427.196 542.82 429.195 539.657 432.19C545.596 434.44 575.099 432.506 581.231 429.605C588.64 426.099 574.876 421.198 564.364 424.434Z" fill="#E7D9C9"/>
</g>
<g style="mix-blend-mode:multiply" opacity="0.82">
<path d="M276.644 414.084C274.372 414.177 274.432 414.958 272.19 415.06C271.803 416.92 274.12 417.952 278.945 418.287C286.547 417.897 285.434 414.056 276.644 414.084Z" fill="#E7D9C9"/>
</g>
<g style="mix-blend-mode:multiply" opacity="0.82">
<path d="M307.008 388.864C301.751 397.466 336.376 388.334 307.008 388.864V388.864Z" fill="#E7D9C9"/>
</g>
<g style="mix-blend-mode:multiply" opacity="0.82">
<path d="M635.173 401.474C638.439 402.953 639.716 403.009 640.785 405.036C639.746 406.022 635.336 406.04 635.173 407.296C635.277 408.346 636.658 409.044 639.627 409.239C643.146 409.174 641.112 407.491 645.24 407.621C648.343 408.133 648.566 409.481 654.148 409.239C671.179 404.673 648.818 400.321 635.173 401.474Z" fill="#E7D9C9"/>
</g>
<g style="mix-blend-mode:multiply" opacity="0.82">
<path d="M183.385 409.555C182.539 408.569 185.3 408.625 184.484 407.621C180.341 407.723 174.536 407.333 172.116 407.937C172.383 408.551 170.854 408.653 171.017 409.239C173.957 410.392 177.565 409.332 183.385 409.555Z" fill="#E7D9C9"/>
</g>
<g style="mix-blend-mode:multiply" opacity="0.82">
<path d="M590.244 417.962C580.934 417.962 575.975 424.704 594.698 424.108C596.48 422.323 600.518 417.934 590.244 417.962Z" fill="#E7D9C9"/>
</g>
<g style="mix-blend-mode:multiply" opacity="0.82">
<path d="M353.08 423.783C347.007 424.164 347.497 427.233 354.194 427.345C360.266 426.964 359.776 423.885 353.08 423.783Z" fill="#E7D9C9"/>
</g>
<g style="mix-blend-mode:multiply" opacity="0.82">
<path d="M387.883 421.839C390.482 420.854 388.596 419.003 382.226 419.579C382.226 420.342 380.311 420.509 381.128 421.523C383.332 421.876 385.619 421.983 387.883 421.839Z" fill="#E7D9C9"/>
</g>
<g style="mix-blend-mode:multiply" opacity="0.82">
<path d="M72.101 422.816C61.8858 423.653 56.11 425.764 51.8635 428.312C61.6185 434.17 89.4432 426.359 72.101 422.816Z" fill="#E7D9C9"/>
</g>
<g style="mix-blend-mode:multiply" opacity="0.82">
<path d="M224.959 425.726C229.918 426.266 233.971 424.685 233.867 422.816C228.255 421.04 221.039 423.885 224.959 425.726Z" fill="#E7D9C9"/>
</g>
<g style="mix-blend-mode:multiply" opacity="0.82">
<path d="M178.871 421.84C179.109 421.589 179.822 421.468 181.128 421.524C183.608 420.129 181.351 418.548 176.674 418.287C174.818 419.041 170.378 419.078 171.061 420.556C172.591 421.263 173.986 422.081 178.871 421.84Z" fill="#E7D9C9"/>
</g>
<g style="mix-blend-mode:multiply" opacity="0.82">
<path d="M395.767 380.457C396.168 377.668 384.216 378.393 377.787 377.547C372.857 380.402 388.982 381.955 395.767 380.457Z" fill="#E7D9C9"/>
</g>
<g style="mix-blend-mode:multiply" opacity="0.82">
<path d="M380.044 374.31C388.715 374.552 397.044 374.794 404.78 374.626C409.546 370.804 379.034 368.954 378.93 373.696C379.806 373.724 380.237 373.929 380.044 374.31Z" fill="#E7D9C9"/>
</g>
<g style="mix-blend-mode:multiply" opacity="0.82">
<path d="M596.97 382.717C592.723 380.606 584.557 379.611 574.475 379.165C573.558 379.705 572.374 380.033 571.119 380.095C570.333 381.406 572.189 381.955 572.233 383.015C577.935 384.521 594.713 385.498 596.97 382.717Z" fill="#E7D9C9"/>
</g>
<g style="mix-blend-mode:multiply" opacity="0.82">
<path d="M525.032 378.513C529.873 379.025 534.816 379.025 539.657 378.513C537.965 376.849 532.872 376.151 526.175 375.919C523.637 376.514 523.503 377.556 525.032 378.513Z" fill="#E7D9C9"/>
</g>
<g style="mix-blend-mode:multiply" opacity="0.82">
<path d="M382.286 398.238C384.216 398.294 398.796 397.011 399.168 396.955C409.383 394.983 411.046 388.939 414.891 386.595C414.639 386.344 413.941 386.232 412.635 386.27C403.117 386.437 400.756 388.66 399.168 391.124C394.401 393.421 376.257 391.868 371.061 394.035C371.001 396.685 375.471 398.043 382.286 398.238Z" fill="#E7D9C9"/>
</g>
<g style="mix-blend-mode:multiply" opacity="0.82">
<path d="M616.094 403.417C613.124 402.357 602.508 403.789 595.856 403.734C596.762 404.664 594.252 404.571 594.713 405.352C602.864 406.105 613.079 405.166 616.094 403.417Z" fill="#E7D9C9"/>
</g>
<g style="mix-blend-mode:multiply" opacity="0.82">
<path d="M214.847 389.533C220.089 387.888 233.734 385.46 224.959 382.745C211.195 382.159 197.223 388.771 214.847 389.533Z" fill="#E7D9C9"/>
</g>
<g style="mix-blend-mode:multiply" opacity="0.82">
<path d="M537.4 370.749H532.946C532.882 371.013 532.959 371.283 533.166 371.517C533.373 371.751 533.697 371.935 534.089 372.041C536.985 372.134 537.727 371.595 537.4 370.749Z" fill="#E7D9C9"/>
</g>
<g style="mix-blend-mode:multiply" opacity="0.82">
<path d="M299.138 382.717C302.568 382.28 316.273 378.17 315.976 376.896C314.803 371.614 285.434 378.374 299.138 382.717Z" fill="#E7D9C9"/>
</g>
<g style="mix-blend-mode:multiply" opacity="0.82">
<path d="M353.08 369.456C350.111 373.018 337.549 374.45 341.826 379.165C330.987 380.513 327.854 385.814 342.969 386.604C346.458 385.786 346.725 384.019 346.324 382.076C355.753 379.555 364.142 377.975 363.206 373.027C360.593 372.144 357.549 371.409 357.594 369.791C369.338 368.573 366.131 365.588 358.693 363.644C361.826 362.138 360.356 360.464 354.238 360.083C345.255 362.073 346.889 367.048 353.08 369.456Z" fill="#E7D9C9"/>
</g>
<g style="mix-blend-mode:multiply" opacity="0.82">
<path d="M442.998 378.188C449.62 376.114 459.049 374.831 458.722 370.749C448.477 370.804 442.672 374.691 436.242 376.895C437.445 377.63 439.657 378.076 442.998 378.188Z" fill="#E7D9C9"/>
</g>
<g style="mix-blend-mode:multiply" opacity="0.82">
<path d="M399.168 368.145C405.983 366.666 406.829 363.495 416.005 362.649C410.289 356.055 380.534 365.801 399.168 368.145Z" fill="#E7D9C9"/>
</g>
<g style="mix-blend-mode:multiply" opacity="0.82">
<path d="M199.109 399.214C216.436 400.256 224.662 394.118 210.334 393.393C201.173 392.918 189.68 396.192 199.109 399.214Z" fill="#E7D9C9"/>
</g>
<g style="mix-blend-mode:multiply" opacity="0.82">
<path d="M245.196 463.566C241.113 463.975 238.723 466.198 242.939 467.128C255.204 467.407 254.253 464.003 245.196 463.566Z" fill="#E7D9C9"/>
</g>
<g style="mix-blend-mode:multiply" opacity="0.82">
<path d="M570.006 449.05C558.128 448.64 564.067 441.48 549.769 442.54C540.637 443.247 539.85 450.91 550.882 452.249C554.074 452.927 559.405 450.528 563.25 452.249C560.993 453.764 557.504 454.908 554.238 456.126C559.731 459.623 542.983 462.19 553.139 465.184C567.14 462.952 568.15 456.991 580.088 454.183C576.077 453.044 572.604 451.276 570.006 449.05Z" fill="#E7D9C9"/>
</g>
<g style="mix-blend-mode:multiply" opacity="0.82">
<path d="M263.162 465.184H259.762C259.762 466.114 259.109 467.314 263.162 467.128C263.497 467.066 263.79 466.938 263.999 466.762C264.207 466.587 264.32 466.375 264.32 466.156C264.32 465.938 264.207 465.725 263.999 465.55C263.79 465.375 263.497 465.246 263.162 465.184Z" fill="#E7D9C9"/>
</g>
<g style="mix-blend-mode:multiply" opacity="0.82">
<path d="M77.7134 452.574C76.7334 454.015 78.6933 455.699 84.4691 456.126C88.0177 455.643 88.9234 454.378 94.5804 454.508C105.419 455.289 94.0014 459.288 103.489 460.004C109.918 459.391 104.35 457.149 103.489 455.801C118.604 450.742 80.5344 448.315 77.7134 452.574Z" fill="#E7D9C9"/>
</g>
<g style="mix-blend-mode:multiply" opacity="0.82">
<path d="M345.211 430.581C344.109 430.632 343.037 430.832 342.068 431.165C341.1 431.499 340.258 431.959 339.598 432.515C351.194 438.411 364.676 429.409 345.211 430.581Z" fill="#E7D9C9"/>
</g>
<g style="mix-blend-mode:multiply" opacity="0.82">
<path d="M495.827 433.808C489.175 435.91 499.85 439.183 502.553 441.573C510.452 441.154 513.837 439.425 521.677 438.988C520.266 435.175 506.012 435.1 495.827 433.808Z" fill="#E7D9C9"/>
</g>
<g style="mix-blend-mode:multiply" opacity="0.82">
<path d="M439.598 431.874C439.078 432.887 441.202 433.138 441.885 433.808C446.784 433.715 450.407 433.25 449.754 431.548C446.576 430.739 443.28 431.837 439.598 431.874Z" fill="#E7D9C9"/>
</g>
<g style="mix-blend-mode:multiply" opacity="0.82">
<path d="M368.819 445.135C378.306 444.93 377.846 439.49 364.364 439.629C359.376 441.852 359.583 445.33 368.819 445.135Z" fill="#E7D9C9"/>
</g>
<g style="mix-blend-mode:multiply" opacity="0.82">
<path d="M235.07 481.988C238.355 482.682 241.912 482.682 245.196 481.988V480.379C239.643 480.305 236.095 480.779 235.07 481.988Z" fill="#E7D9C9"/>
</g>
<g style="mix-blend-mode:multiply" opacity="0.82">
<path d="M178.871 466.802C189.71 459.762 154.892 461.985 169.874 467.128C172.883 467.204 175.896 467.095 178.871 466.802Z" fill="#E7D9C9"/>
</g>
<g style="mix-blend-mode:multiply" opacity="0.82">
<path d="M149.636 482.648C152.175 480.333 142.064 480.323 139.525 481.346C139.361 483.308 145.36 483.541 149.636 482.648Z" fill="#E7D9C9"/>
</g>
<g style="mix-blend-mode:multiply" opacity="0.82">
<path d="M320.475 459.363C324.231 459.679 324.172 458.916 323.845 458.061C320.905 457.959 320.148 458.507 320.475 459.363Z" fill="#E7D9C9"/>
</g>
<g style="mix-blend-mode:multiply" opacity="0.82">
<path d="M413.748 446.092C409.606 448.25 394.788 447.32 395.767 450.956C409.472 453.067 427.972 448.017 413.748 446.092Z" fill="#E7D9C9"/>
</g>
<g style="mix-blend-mode:multiply" opacity="0.82">
<path d="M353.08 458.061C372.664 457.912 362.063 450.752 350.823 450.305C344.884 447.683 337.356 445.553 331.714 442.866C329.19 442.066 331.284 439.974 324.988 440.271C325.864 442.847 331.506 446.781 338.455 448.641C339.316 452.714 349.858 453.997 355.337 456.731C355.218 457.605 350.081 457.243 353.08 458.061Z" fill="#E7D9C9"/>
</g>
<g style="mix-blend-mode:multiply" opacity="0.82">
<path d="M122.673 453.215C122.361 453.876 119.703 453.857 119.317 454.508C122.94 455.717 121.44 458.414 129.428 458.386C135.991 456.954 131.819 453.011 122.673 453.215Z" fill="#E7D9C9"/>
</g>
<g style="mix-blend-mode:multiply" opacity="0.82">
<path d="M526.175 452.574C514.891 455.811 522.033 463.129 541.914 459.679C547.23 456.573 542.166 451.626 526.175 452.574Z" fill="#E7D9C9"/>
</g>
<g style="mix-blend-mode:multiply" opacity="0.82">
<path d="M210.334 450.305C209.161 451.523 207.364 451.877 210.334 452.89C218.366 453.151 216.08 450.342 210.334 450.305Z" fill="#E7D9C9"/>
</g>
<g style="mix-blend-mode:multiply" opacity="0.82">
<path d="M128.285 436.728C149.695 436.393 124.083 429.772 124.929 436.067C126.096 436.177 127.228 436.399 128.285 436.728Z" fill="#E7D9C9"/>
</g>
<g style="mix-blend-mode:multiply" opacity="0.82">
<path d="M172.116 439.629C171.73 437.258 171.596 434.83 164.261 434.458C157.268 435.202 155.352 438.764 162.004 439.954C165.731 439.936 167.617 439.406 172.116 439.629Z" fill="#E7D9C9"/>
</g>
<g style="mix-blend-mode:multiply" opacity="0.82">
<path d="M95.6941 438.672C98.827 440.466 110.542 442.308 117.06 440.28C119.228 436.198 97.2531 434.422 95.6941 438.672Z" fill="#E7D9C9"/>
</g>
<g style="mix-blend-mode:multiply" opacity="0.82">
<path d="M135.056 446.418C134.691 446.507 134.378 446.663 134.158 446.865C133.937 447.068 133.819 447.307 133.819 447.552C133.819 447.797 133.937 448.037 134.158 448.239C134.378 448.441 134.691 448.597 135.056 448.687C142.895 449.207 144.053 445.674 135.056 446.418Z" fill="#E7D9C9"/>
</g>
<g style="mix-blend-mode:multiply" opacity="0.82">
<path d="M36.1248 447.078C35.8724 445.097 29.9036 444.772 28.2703 443.191C43.7565 440.643 35.2933 437.918 27.0825 437.807C26.8449 441.309 26.5974 444.738 26.3401 448.092C29.2208 447.857 32.1212 447.73 35.026 447.711C35.2488 447.459 35.026 447.078 36.1248 447.078Z" fill="#E7D9C9"/>
</g>
<g style="mix-blend-mode:multiply" opacity="0.82">
<path d="M135.055 441.61C131.269 441.275 133.289 442.614 132.799 443.228C136.674 443.414 136.808 442.056 135.055 441.61Z" fill="#E7D9C9"/>
</g>
<g style="mix-blend-mode:multiply" opacity="0.82">
<path d="M567.749 339.707C557.801 339.215 559.85 342.181 556.495 343.585C552.04 344.134 547.972 344.804 548.625 346.822C549.052 346.828 549.473 346.889 549.861 347.001C550.249 347.113 550.597 347.273 550.882 347.472C562.953 346.84 571.699 343.911 567.749 339.707Z" fill="#E7D9C9"/>
</g>
<g style="mix-blend-mode:multiply" opacity="0.82">
<path d="M804.883 455.475C803.962 457.688 807.942 458.488 812.737 459.037C820.687 456.37 829.601 455.035 838.617 455.159C839.934 453.199 842.317 451.594 845.343 450.63C840.889 449.7 833.895 449.607 827.362 449.338C822.804 451.467 811.832 451.765 804.883 453.215C802.596 453.002 804.586 451.579 800.429 451.914C793.094 452.825 801.26 454.824 804.883 455.475Z" fill="#E7D9C9"/>
</g>
<g style="mix-blend-mode:multiply" opacity="0.82">
<path d="M835.232 459.038C823.458 459.968 811.772 459.121 808.268 462.59C816.078 464.608 828.417 461.93 843.101 462.274C846.917 462.897 849.53 463.873 855.469 463.883C862.151 463.752 865.224 457.373 855.469 457.373C850.867 458.526 850.54 460.916 843.101 461.251C841.394 460.284 835.692 460.423 835.232 459.038Z" fill="#E7D9C9"/>
</g>
<g style="mix-blend-mode:multiply" opacity="0.82">
<path d="M725.091 468.086C731.52 467.89 736.316 467.221 736.316 465.184C731.446 463.427 720.221 464.254 721.721 467.128C722.985 467.198 724.174 467.536 725.091 468.086Z" fill="#E7D9C9"/>
</g>
<g style="mix-blend-mode:multiply" opacity="0.82">
<path d="M906.07 458.061C909.233 458.117 908.253 456.973 912.782 457.419C912.589 455.643 921.245 456.396 921.794 454.825C920.44 454.346 918.893 454.123 917.34 454.183C915.068 456.089 910.658 456.889 903.873 456.777C902.388 457.819 907.451 457.019 906.07 458.061Z" fill="#E7D9C9"/>
</g>
<g style="mix-blend-mode:multiply" opacity="0.82">
<path d="M955.499 459.037V458.107C951.504 458.265 944.66 457.586 945.372 459.037C946.62 459.679 954.088 459.4 955.499 459.037Z" fill="#E7D9C9"/>
</g>
<g style="mix-blend-mode:multiply" opacity="0.82">
<path d="M712.723 471.647V470.354C710.904 470.019 708.997 469.908 707.11 470.029C706.947 471.154 708.09 471.907 712.723 471.647Z" fill="#E7D9C9"/>
</g>
<g style="mix-blend-mode:multiply" opacity="0.82">
<path d="M1033.06 467.128C1034.95 466.058 1039.52 465.751 1038.68 463.882C1030.39 463.352 1026.66 466.226 1033.06 467.128Z" fill="#E7D9C9"/>
</g>
<g style="mix-blend-mode:multiply" opacity="0.82">
<path d="M1031.92 481.988C1016.64 482.416 1023.01 487.075 1033.06 487.819C1041.56 487.279 1038.32 482.788 1031.92 481.988Z" fill="#E7D9C9"/>
</g>
<g style="mix-blend-mode:multiply" opacity="0.82">
<path d="M1004.93 466.467C1008.3 466.365 1011.79 466.281 1012.8 465.538C1010.84 463.994 1001.76 465.556 1004.93 466.467Z" fill="#E7D9C9"/>
</g>
<g style="mix-blend-mode:multiply" opacity="0.82">
<path d="M847.6 503.981C850.02 504.26 851.579 504.781 850.956 505.924C857.593 505.924 858.662 503.535 856.568 502.037C851.134 501.972 850.763 503.376 847.6 503.981Z" fill="#E7D9C9"/>
</g>
<g style="mix-blend-mode:multiply" opacity="0.82">
<path d="M934.148 463.24C931.341 463.733 928.995 464.347 928.505 465.5C937.087 469.09 950.332 464.049 934.148 463.24Z" fill="#E7D9C9"/>
</g>
<g style="mix-blend-mode:multiply" opacity="0.82">
<path d="M1145.43 31.8413C1146.66 35.3471 1152.41 37.2721 1147.67 40.8989C1151.1 42.0706 1153.85 43.4469 1161.16 43.4841C1170.94 42.4054 1164.56 38.8344 1164.56 36.6956C1164.56 35.5145 1168.56 34.5939 1167.91 33.4594C1166.14 30.4185 1147.75 29.163 1145.43 31.8413Z" fill="#E7D9C9"/>
</g>
<g style="mix-blend-mode:multiply" opacity="0.82">
<path d="M1081.36 15.6975C1082.4 17.5574 1081.53 18.4873 1082.51 19.9008C1069.95 23.6206 1059.92 28.075 1043.14 30.5765C1031.27 29.7768 1018.22 35.4866 1029.68 38.3322C1036.2 37.0024 1037.73 33.9243 1051.01 35.4308C1056.36 34.0545 1060.25 32.269 1068.99 31.8691C1079.6 29.0793 1076.7 24.1971 1090.38 22.4953C1100.26 21.2585 1112.34 21.77 1116.23 18.292C1106.23 16.8785 1093.15 14.5909 1081.36 15.6975Z" fill="#E7D9C9"/>
</g>
<g style="mix-blend-mode:multiply" opacity="0.82">
<path d="M573.362 390.463C571.016 388.705 557.341 389.198 560.994 392.072C566.68 392.918 572.1 391.886 573.362 390.463Z" fill="#E7D9C9"/>
</g>
<g style="mix-blend-mode:multiply" opacity="0.82">
<path d="M799.27 410.197C789.872 410.364 790.688 414.93 804.883 414.41C812.099 412.782 804.913 410.113 799.27 410.197Z" fill="#E7D9C9"/>
</g>
<g style="mix-blend-mode:multiply" opacity="0.82">
<path d="M723.977 438.988C725.254 440.345 731 440.41 737.459 440.28C749.961 437.714 724.111 435.1 723.977 438.988Z" fill="#E7D9C9"/>
</g>
<g style="mix-blend-mode:multiply" opacity="0.82">
<path d="M986.946 430.897C978.245 431.195 972.232 432.264 970.109 434.459C971.965 436.263 983.65 436.523 989.203 435.389C992.187 433.947 992.187 431.632 986.946 430.897Z" fill="#E7D9C9"/>
</g>
<g style="mix-blend-mode:multiply" opacity="0.82">
<path d="M754.297 438.337C754.144 438.647 754.175 438.982 754.385 439.28C754.595 439.577 754.97 439.817 755.44 439.955C758.84 439.741 761.899 439.453 762.196 438.337C759.612 438.179 756.42 437.695 754.297 438.337Z" fill="#E7D9C9"/>
</g>
<g style="mix-blend-mode:multiply" opacity="0.82">
<path d="M840.844 409.881C822.7 410.048 836.048 424.062 855.469 417.646C854.385 414.53 849.753 409.797 840.844 409.881Z" fill="#E7D9C9"/>
</g>
<g style="mix-blend-mode:multiply" opacity="0.82">
<path d="M392.412 358.138C395.055 354.949 416.851 351.108 403.667 348.439C396.688 351.499 382.687 352.54 381.187 357.171C384.35 358.204 386.562 358.483 392.412 358.138Z" fill="#E7D9C9"/>
</g>
<g style="mix-blend-mode:multiply" opacity="0.82">
<path d="M357.594 354.902C360.756 354.642 360.489 355.358 363.206 355.237C368.819 354.484 369.635 350.671 359.836 351.025C359.113 351.02 358.406 351.156 357.812 351.414C357.218 351.673 356.766 352.04 356.52 352.466C356.274 352.891 356.245 353.355 356.437 353.791C356.63 354.228 357.034 354.616 357.594 354.902Z" fill="#E7D9C9"/>
</g>
<g style="mix-blend-mode:multiply" opacity="0.82">
<path d="M847.6 356.521C847.6 357.283 849.53 357.451 848.743 358.464C866.397 362.454 867.466 352.187 847.6 356.521Z" fill="#E7D9C9"/>
</g>
<g style="mix-blend-mode:multiply" opacity="0.82">
<path d="M541.914 356.846C548.952 356.558 551.506 353.443 549.769 351.676H546.383C541.38 352.494 539.628 354.252 539.657 356.521C540.504 356.604 541.87 356.53 541.914 356.846Z" fill="#E7D9C9"/>
</g>
<g style="mix-blend-mode:multiply" opacity="0.82">
<path d="M963.353 352.336C972.395 353.071 977.547 347.891 964.496 348.775C962.239 349.63 958.958 351.406 963.353 352.336Z" fill="#E7D9C9"/>
</g>
<g style="mix-blend-mode:multiply" opacity="0.82">
<path d="M1043.15 353.266V352.336H1037.53C1037.15 353.266 1041.19 352.987 1043.15 353.266Z" fill="#E7D9C9"/>
</g>
<g style="mix-blend-mode:multiply" opacity="0.82">
<path d="M967.867 370.749C971.965 371.893 980.591 373.26 986.946 372.693C991.297 371.893 989.01 369.178 994.845 368.806C1003.95 368.527 1014.15 368.564 1016.2 366.22C1011.89 364.872 1008.77 363.198 1001.57 362.668C993.672 366.285 973.242 366.378 967.867 370.749Z" fill="#E7D9C9"/>
</g>
<g style="mix-blend-mode:multiply" opacity="0.82">
<path d="M899.3 395.653H904.897C907.511 394.723 905.269 393.16 904.897 392.091C898.973 391.998 896.39 394.23 899.3 395.653Z" fill="#E7D9C9"/>
</g>
<g style="mix-blend-mode:multiply" opacity="0.82">
<path d="M791.401 390.799C786.279 390.947 783.398 391.729 782.389 393.068C787.021 396.583 802.626 392.863 791.401 390.799Z" fill="#E7D9C9"/>
</g>
<g style="mix-blend-mode:multiply" opacity="0.82">
<path d="M704.853 375.287C701.631 376.942 694.549 380.615 702.597 381.75C710.11 381.155 711.609 377.286 710.466 375.287H704.853Z" fill="#E7D9C9"/>
</g>
<g style="mix-blend-mode:multiply" opacity="0.82">
<path d="M912.767 377.221C903.858 380.066 893.361 387.599 904.897 391.449C907.644 387.041 914.073 382.642 915.053 377.546C914.801 377.295 914.073 377.165 912.767 377.221Z" fill="#E7D9C9"/>
</g>
<g style="mix-blend-mode:multiply" opacity="0.82">
<path d="M952.099 369.782C944.883 370.061 942.834 376.18 953.212 375.919C958.914 375.203 963.056 369.679 952.099 369.782Z" fill="#E7D9C9"/>
</g>
<g style="mix-blend-mode:multiply" opacity="0.82">
<path d="M349.725 321.648C359.049 319.928 355.337 316.357 351.937 313.558H345.211C344.305 316.217 336.733 316.943 331.714 318.403C332.947 320.82 340.549 321.434 349.725 321.648Z" fill="#E7D9C9"/>
</g>
<g style="mix-blend-mode:multiply" opacity="0.82">
<path d="M335.1 311.251C330.645 307.606 312.486 309.959 315.976 313.195C319.138 316.068 339.316 314.701 335.1 311.251Z" fill="#E7D9C9"/>
</g>
<g style="mix-blend-mode:multiply" opacity="0.82">
<path d="M304.736 330.947C301.336 330.947 301.929 332.082 301.38 332.891C306.963 332.965 305.077 332.072 304.736 330.947Z" fill="#E7D9C9"/>
</g>
<g style="mix-blend-mode:multiply" opacity="0.82">
<path d="M492.426 349.732C498.603 350.662 495.203 355.665 507.051 353.935C507.126 351.955 497.683 350.216 505.953 348.756C508.922 348.672 506.799 350.011 510.407 349.732C512.352 346.859 503.117 345.78 508.18 343.911C500.385 343.799 497.118 343.241 491.313 344.562C490.051 346.068 493.867 347.286 492.426 349.732Z" fill="#E7D9C9"/>
</g>
<g style="mix-blend-mode:multiply" opacity="0.82">
<path d="M322.731 333.244H317.119C316.243 334.174 313.793 335.69 315.976 336.471C319.435 336.378 321.039 335.773 323.845 335.541C323.845 334.667 324.261 333.662 322.731 333.244Z" fill="#E7D9C9"/>
</g>
<g style="mix-blend-mode:multiply" opacity="0.82">
<path d="M1026.34 347.472C1033.91 345.612 1020.53 342.981 1015.08 344.878C1015.77 346.617 1020.07 347.314 1026.34 347.472Z" fill="#E7D9C9"/>
</g>
<g style="mix-blend-mode:multiply" opacity="0.82">
<path d="M287.884 336.471C290.482 340.507 307.186 341.427 312.62 337.447C308.923 335.811 302.954 334.834 297.995 333.56C293.169 334.109 289.22 334.908 287.884 336.471Z" fill="#E7D9C9"/>
</g>
<g style="mix-blend-mode:multiply" opacity="0.82">
<path d="M450.853 342.608C451.179 341.771 450.467 341.232 447.497 341.325C447.17 342.162 447.883 342.711 450.853 342.608Z" fill="#E7D9C9"/>
</g>
<g style="mix-blend-mode:multiply" opacity="0.82">
<path d="M1247.7 156.667C1245.88 156.331 1243.98 156.221 1242.09 156.342C1240.15 157.885 1248.55 158.127 1247.7 156.667Z" fill="#E7D9C9"/>
</g>
<g style="mix-blend-mode:multiply" opacity="0.82">
<path d="M1022.95 138.236C1025.62 139.398 1032.9 139.24 1034.18 140.83C1028.85 142.746 1032.22 145.238 1038.63 146.326C1054.96 145.201 1043.09 141.676 1037.49 139.816C1070.39 136.59 1021.54 128.034 1022.95 138.236Z" fill="#E7D9C9"/>
</g>
<g style="mix-blend-mode:multiply" opacity="0.82">
<path d="M451.996 114.634C449.793 114.273 447.505 114.163 445.24 114.308C443.162 115.973 439.301 117.098 437.386 118.828C438.589 119.17 439.717 119.607 440.741 120.13C448.314 119.395 447.66 116.299 451.996 114.634Z" fill="#E7D9C9"/>
</g>
<g style="mix-blend-mode:multiply" opacity="0.82">
<path d="M813.881 118.511C816.108 117.898 814.415 116.977 813.881 116.242C809.426 116.149 807.778 116.866 808.268 118.186C811.045 118.056 810.688 118.772 813.881 118.511Z" fill="#E7D9C9"/>
</g>
<g style="mix-blend-mode:multiply" opacity="0.82">
<path d="M747.571 92.3154C746.338 93.9614 750.867 93.9521 753.183 94.5752C753.317 93.9707 756.91 94.352 756.539 93.6453C755.054 92.5758 752.144 91.5808 747.571 92.3154Z" fill="#E7D9C9"/>
</g>
<g style="mix-blend-mode:multiply" opacity="0.82">
<path d="M1034.18 198.71C1032.04 198.775 1029.97 199.199 1028.19 199.939C1026.41 200.679 1024.98 201.706 1024.05 202.913C1022.57 206.326 1028.51 213.077 1039.79 213.263C1037.5 210.176 1047.66 198.896 1034.18 198.71Z" fill="#E7D9C9"/>
</g>
<g style="mix-blend-mode:multiply" opacity="0.82">
<path d="M482.315 210.985C464.334 211.199 471.922 220.005 490.184 219.354C496.124 219.159 503.622 217.429 501.439 215.151C500.533 214.268 487.631 210.929 482.315 210.985Z" fill="#E7D9C9"/>
</g>
<g style="mix-blend-mode:multiply" opacity="0.82">
<path d="M1133.06 138.887C1141.97 136.255 1123.07 134.646 1122.97 137.91C1126.16 138.738 1129.62 139.073 1133.06 138.887Z" fill="#E7D9C9"/>
</g>
<g style="mix-blend-mode:multiply" opacity="0.82">
<path d="M1100.49 196.44C1102.02 196.678 1103.51 197.005 1104.94 197.417C1110.33 197.129 1113.17 196.115 1113.95 194.506C1110.48 192.06 1099.09 193.753 1100.49 196.44Z" fill="#E7D9C9"/>
</g>
<g style="mix-blend-mode:multiply" opacity="0.82">
<path d="M492.426 193.53C485.552 192.823 470.986 192.87 467.735 194.832C479.969 197.473 462.182 203.294 475.589 205.507C489.071 204.661 512.605 195.641 492.426 193.53Z" fill="#E7D9C9"/>
</g>
<g style="mix-blend-mode:multiply" opacity="0.82">
<path d="M879.062 265.005C870.614 266.316 864.601 263.722 858.825 264.354C855.855 265.545 860.102 266.865 858.825 268.567C853.435 271.468 842.21 272.659 828.476 272.119C824.2 271.952 820.443 270.855 816.137 270.827C803.472 270.743 786.635 273.496 785.789 275.997C785.031 278.089 790.777 279.968 797.013 280.2C813.925 280.833 823.19 273.412 841.987 274.379C846.813 274.714 847.006 276.378 852.099 276.648C862.774 273.3 868.164 266.698 890.317 270.827C894.044 269.013 884.244 266.307 879.062 265.005Z" fill="#E7D9C9"/>
</g>
<g style="mix-blend-mode:multiply" opacity="0.82">
<path d="M858.825 283.762C866.457 281.419 856.093 278.843 850.956 277.299C844.333 279.633 842.567 285.101 858.825 283.762Z" fill="#E7D9C9"/>
</g>
<g style="mix-blend-mode:multiply" opacity="0.82">
<path d="M36.1249 213.263C32.8496 213.286 29.5807 213.448 26.3402 213.747L25.969 217.866C33.1702 218.034 42.747 216.118 36.1249 213.263Z" fill="#E7D9C9"/>
</g>
<g style="mix-blend-mode:multiply" opacity="0.82">
<path d="M347.468 276.322C349.814 276.508 350.675 277.122 354.194 276.964C355.5 276.583 355.471 275.82 355.337 275.03C351.328 274.416 348.195 275.151 347.468 276.322Z" fill="#E7D9C9"/>
</g>
<g style="mix-blend-mode:multiply" opacity="0.82">
<path d="M412.635 280.2C400.014 278.554 391.432 283.241 380.044 284.078C386.428 287.212 387.468 291.89 399.168 293.461C401.736 293.127 402.271 292.206 404.78 291.843C398.96 287.798 411.996 286.961 414.891 284.404C411.462 282.869 412.635 281.502 412.635 280.2Z" fill="#E7D9C9"/>
</g>
<g style="mix-blend-mode:multiply" opacity="0.82">
<path d="M47.3646 137.91C53.8531 137.835 59.6883 137.584 60.8612 135.976C60.3416 133.632 48.983 134.311 45.1375 135.325C44.9969 135.586 44.9435 135.862 44.9807 136.137C45.018 136.411 45.145 136.678 45.3539 136.92C45.5628 137.163 45.8491 137.376 46.195 137.546C46.5409 137.716 46.939 137.84 47.3646 137.91Z" fill="#E7D9C9"/>
</g>
<g style="mix-blend-mode:multiply" opacity="0.82">
<path d="M24.5139 155.756L24.6921 159.122C28.3298 157.867 29.4582 156.239 24.5139 155.756Z" fill="#E7D9C9"/>
</g>
<g style="mix-blend-mode:multiply" opacity="0.82">
<path d="M691.372 288.281C688.536 289.211 684.096 289.639 682.463 290.876C687.645 291.862 697.534 291.109 699.3 289.258C696.745 288.699 694.075 288.371 691.372 288.281Z" fill="#E7D9C9"/>
</g>
<g style="mix-blend-mode:multiply" opacity="0.82">
<path d="M99.0794 169.928C93.0512 171.593 93.0215 175.703 101.336 175.749C109.651 175.796 111.225 170.272 99.0794 169.928Z" fill="#E7D9C9"/>
</g>
<g style="mix-blend-mode:multiply" opacity="0.82">
<path d="M945.372 156.342C938.646 158.071 930.822 165.929 947.629 166.05C948.669 162.786 954.192 157.895 945.372 156.342Z" fill="#E7D9C9"/>
</g>
<g style="mix-blend-mode:multiply" opacity="0.82">
<path d="M578.974 158.908C580.607 157.979 583.651 157.439 586.843 156.965C585.359 153.84 580.904 151.581 572.233 150.455C568.447 153.115 562.76 159.15 578.974 158.908Z" fill="#E7D9C9"/>
</g>
<g style="mix-blend-mode:multiply" opacity="0.82">
<path d="M429.457 154.082C434.906 151.804 421.855 150.493 421.588 153.152C422.493 153.943 425.24 154.259 429.457 154.082Z" fill="#E7D9C9"/>
</g>
<g style="mix-blend-mode:multiply" opacity="0.82">
<path d="M735.202 157.644C728.803 157.262 719.612 156.221 718.335 158.574C721.854 160.954 735.499 161.15 735.202 157.644Z" fill="#E7D9C9"/>
</g>
<g style="mix-blend-mode:multiply" opacity="0.82">
<path d="M475.589 162.814C471.61 169.035 497.43 163.976 475.589 162.814V162.814Z" fill="#E7D9C9"/>
</g>
<g style="mix-blend-mode:multiply" opacity="0.82">
<path d="M630.674 147.609C632.901 150.102 635.128 152.585 641.929 153.766C668.699 152.12 649.961 143.908 630.674 147.609Z" fill="#E7D9C9"/>
</g>
<g style="mix-blend-mode:multiply" opacity="0.82">
<path d="M739.775 128.536C731.223 128.964 737.192 131.782 734.148 133.381C744.705 134.441 750.674 127.978 739.775 128.536Z" fill="#E7D9C9"/>
</g>
<g style="mix-blend-mode:multiply" opacity="0.82">
<path d="M572.233 144.03C600.711 143.918 578.826 137.399 570.006 142.737C570.511 143.239 571.639 143.574 572.233 144.03Z" fill="#E7D9C9"/>
</g>
<g style="mix-blend-mode:multiply" opacity="0.82">
<path d="M602.582 124.333C595.01 126.044 589.397 128.285 585.745 131.122C597.949 134.674 619.642 126.268 602.582 124.333Z" fill="#E7D9C9"/>
</g>
<g style="mix-blend-mode:multiply" opacity="0.82">
<path d="M474.446 170.905C478.559 166.664 460.578 165.743 455.366 161.847C456.02 153.478 440.741 159.169 439.598 162.163C431.966 162.061 424.483 160.712 417.148 161.521C416.554 164.469 422.078 168.226 427.26 170.579C434.862 171.072 435.485 170.058 444.097 170.254C445.854 170.768 447.383 171.544 448.551 172.513C438.069 174.373 438.039 179.19 426.057 180.604C419.242 179.674 402.82 180.529 394.594 181.246C396.554 182.78 403.028 186.825 411.476 186.751C417.742 186.704 420.741 183.301 427.2 183.189C432.946 183.077 440.385 186.509 448.551 186.1C456.718 185.691 455.663 182.603 459.806 181.571C457.787 180.957 458.96 179.441 458.663 178.335C461.098 175.043 471.966 173.49 474.446 170.905Z" fill="#E7D9C9"/>
</g>
<g style="mix-blend-mode:multiply" opacity="0.82">
<path d="M803.769 128.862C808.758 128.378 809.545 129.085 814.994 129.178C814.178 127.551 818.097 127.272 818.394 125.951C812.381 124.445 805.106 126.965 803.769 128.862Z" fill="#E7D9C9"/>
</g>
<g style="mix-blend-mode:multiply" opacity="0.82">
<path d="M741.958 142.17C741.795 142.969 741.735 143.732 744.185 143.778C746.041 143.025 750.481 143.006 749.827 141.519C747.188 141.653 744.562 141.87 741.958 142.17Z" fill="#E7D9C9"/>
</g>
<g style="mix-blend-mode:multiply" opacity="0.82">
<path d="M773.42 175.75C765.224 176.196 764.735 178.856 762.196 180.93C764.809 181.023 764.274 182.045 767.808 181.859C772.441 180.939 781.809 177.368 773.42 175.75Z" fill="#E7D9C9"/>
</g>
<g style="mix-blend-mode:multiply" opacity="0.82">
<path d="M278.901 173.164C265.953 174.094 274.298 183.17 253.051 182.538C253.244 183.347 251.328 183.551 249.665 183.84C248.582 188.489 256.391 190.526 266.532 191.921C275.708 190.461 274.951 186.155 281.158 183.84C288.21 183.421 289.903 184.556 294.639 184.77C311.833 182.863 293.333 172.076 278.901 173.164Z" fill="#E7D9C9"/>
</g>
<g style="mix-blend-mode:multiply" opacity="0.82">
<path d="M703.74 170.254C711.55 169.472 706.457 167.017 700.355 166.692C694.861 167.678 697.385 170.068 703.74 170.254Z" fill="#E7D9C9"/>
</g>
<g style="mix-blend-mode:multiply" opacity="0.82">
<path d="M307.008 196.441C303.711 195.985 302.731 194.655 297.995 195.511C294.342 196.785 298.129 199.482 304.751 199.714C305.609 199.374 306.283 198.88 306.686 198.296C307.089 197.712 307.201 197.065 307.008 196.441Z" fill="#E7D9C9"/>
</g>
<g style="mix-blend-mode:multiply" opacity="0.82">
<path d="M260.92 198.71V197.733C252.769 196.106 252.769 200.384 260.92 198.71Z" fill="#E7D9C9"/>
</g>
<g style="mix-blend-mode:multiply" opacity="0.82">
<path d="M367.705 181.227C381.246 180.213 385.953 178.363 398.024 176.707C407.943 176.875 414.639 176.047 416.005 174.438C419.791 170.095 398.188 170.207 391.298 167.975C376.614 168.812 372.397 172.625 363.206 175.08C365.255 176.996 364.439 179.711 367.705 181.227Z" fill="#E7D9C9"/>
</g>
<g style="mix-blend-mode:multiply" opacity="0.82">
<path d="M531.788 196.106C533.418 195.907 534.946 195.463 536.242 194.813C526.19 192.023 545.151 188.945 539.642 185.44C558.247 182.427 532.011 177.07 520.519 175.731C518.232 175.824 518.336 176.605 516.064 176.661C516.287 180.929 527.942 184.389 527.289 188.62C526.799 191.456 521.87 194.925 531.788 196.106Z" fill="#E7D9C9"/>
</g>
<g style="mix-blend-mode:multiply" opacity="0.82">
<path d="M948.728 168.635H953.182V167.343C949.362 167.095 947.877 167.525 948.728 168.635Z" fill="#E7D9C9"/>
</g>
<g style="mix-blend-mode:multiply" opacity="0.82">
<path d="M301.395 201.62C300.088 202.002 300.118 202.764 300.252 203.555C304.914 203.713 307.171 203.173 308.106 202.262C307.037 201.685 305.018 201.434 301.395 201.62Z" fill="#E7D9C9"/>
</g>
<g style="mix-blend-mode:multiply" opacity="0.82">
<path d="M380.044 186.416C380.515 186.281 380.891 186.043 381.101 185.747C381.312 185.451 381.342 185.116 381.187 184.807H375.575C374.713 186.016 376.807 186.378 380.044 186.416Z" fill="#E7D9C9"/>
</g>
<g style="mix-blend-mode:multiply" opacity="0.82">
<path d="M392.412 161.196C391.566 160.155 389.309 159.504 385.686 159.253C383.102 160.229 386.532 161.643 392.412 161.196Z" fill="#E7D9C9"/>
</g>
<g style="mix-blend-mode:multiply" opacity="0.82">
<path d="M1013.98 502.986L1021.73 503.284C1021.03 503.053 1020.3 502.854 1019.55 502.688C1017.65 502.847 1015.8 502.93 1013.98 502.986Z" fill="#E7D9C9"/>
</g>
<g style="mix-blend-mode:multiply" opacity="0.82">
<path d="M1120.72 505.925C1114.3 502.809 1105.55 506.101 1093.73 505.599C1087.27 505.33 1079.02 502.289 1072.4 502.689C1070.98 502.705 1069.6 502.918 1068.33 503.312C1067.07 503.706 1065.96 504.272 1065.09 504.967L1119.6 507.078C1119.95 506.982 1120.25 506.82 1120.45 506.614C1120.66 506.407 1120.75 506.166 1120.72 505.925Z" fill="#E7D9C9"/>
</g>
<g style="mix-blend-mode:multiply" opacity="0.82">
<path d="M144.024 486.517C144.291 487.131 142.747 487.243 142.91 487.819C146.503 488.926 150.334 489.977 158.649 489.753C165.731 487.642 152.442 485.169 144.024 486.517Z" fill="#E7D9C9"/>
</g>
<g style="mix-blend-mode:multiply" opacity="0.82">
<path d="M128.285 486.247C124.632 486.164 122.88 486.638 122.672 487.54C123.531 487.566 124.34 487.799 124.929 488.191C127.053 488.256 127.409 487.828 129.384 487.865C130.349 486.898 127.84 486.973 128.285 486.247Z" fill="#E7D9C9"/>
</g>
<g style="mix-blend-mode:multiply" opacity="0.82">
<path d="M82.2123 505.283C70.1411 505.283 57.6095 502.242 47.3646 503.656C40.2376 501.442 32.0268 498.411 32.7692 494.933C63.0884 493.901 37.669 490.72 30.5124 488.144C25.6126 486.368 25.0929 484.62 22.9103 483.429C21.2325 498.039 19.7774 507.803 19.4805 509.83L21.3067 510.184L46.2213 509.431C44.7365 508.119 45.2859 506.808 50.7499 505.599C53.7194 506.724 56.5999 507.887 59.5397 509.031L80.089 508.408C81.2769 507.338 82.4944 506.315 82.2123 505.283Z" fill="#E7D9C9"/>
</g>
<g style="mix-blend-mode:multiply" opacity="0.82">
<path d="M718.335 132.089C716.148 131.652 713.797 131.652 711.609 132.089C712.07 133.261 713.436 134.153 717.222 134.358C716.316 133.233 718.885 133.112 718.335 132.089Z" fill="#E7D9C9"/>
</g>
<g style="mix-blend-mode:multiply" opacity="0.82">
<path d="M285.627 488.46C281.083 489.744 274.862 490.534 273.288 492.673C281.318 494.59 289.58 496.101 297.995 497.193C299.435 493.947 296.956 489.111 285.627 488.46Z" fill="#E7D9C9"/>
</g>
<g style="mix-blend-mode:multiply" opacity="0.82">
<path d="M458.722 388.539C453.08 389.106 453.273 391.84 454.268 393.393C448.685 394.053 443.265 395.355 446.398 397.596C434.847 398.154 421.796 404.682 439.643 404.71C449.917 404.71 451.847 400.312 463.265 399.856C468.269 399.716 462.523 402.646 467.72 402.441C474.995 402.088 467.72 399.921 468.818 399.214C483.236 396.434 474.817 389.45 458.722 388.539Z" fill="#E7D9C9"/>
</g>
<g style="mix-blend-mode:multiply" opacity="0.82">
<path d="M568.863 301.189H576.732V299.329H568.863V301.189Z" fill="#E7D9C9"/>
</g>
<g style="mix-blend-mode:multiply" opacity="0.82">
<path d="M750.941 399.53C752.206 399.604 753.391 399.949 754.297 400.507C760.34 400.293 764.69 399.577 765.551 397.912C764.338 397.586 763.208 397.151 762.196 396.62C754.89 396.573 750.733 397.429 750.941 399.53Z" fill="#E7D9C9"/>
</g>
<g style="mix-blend-mode:multiply" opacity="0.82">
<path d="M297.995 419.291C307.913 422.258 306.354 428.535 315.976 431.576C317.965 434.022 316.436 437.49 324.988 438.085C327.631 434.301 315.649 431.948 317.119 427.419C328.581 426.489 334.58 420.482 312.665 421.598C304.201 420.463 305.835 416.688 307.052 413.833C314.476 413.414 312.724 415.646 319.42 415.451C330.616 411.526 305.582 410.95 303.652 407.695C311.878 404.338 320.237 401.037 336.317 399.93C336.614 397.866 332.917 394.546 330.705 392.165C320.029 393.411 322.078 398.312 313.823 400.246C300.771 402.766 285.434 398.898 275.649 400.897C282.598 407.286 303.028 409.36 297.995 419.291Z" fill="#E7D9C9"/>
</g>
<g style="mix-blend-mode:multiply" opacity="0.82">
<path d="M940.874 357.497C925.699 360.287 942.893 364.992 954.356 365.867C966.234 362.9 947.303 359.348 940.874 357.497Z" fill="#E7D9C9"/>
</g>
<g style="mix-blend-mode:multiply" opacity="0.82">
<path d="M465.478 413.442C455.456 413.619 458.202 418.557 467.735 417.32C471.387 416.223 470.11 413.917 465.478 413.442Z" fill="#E7D9C9"/>
</g>
<g style="mix-blend-mode:multiply" opacity="0.82">
<path d="M639.687 410.196C636.391 411.201 633.421 412.289 634.074 414.409C644.542 417.682 653.362 410.736 639.687 410.196Z" fill="#E7D9C9"/>
</g>
<g style="mix-blend-mode:multiply" opacity="0.82">
<path d="M172.115 502.056C172.68 504.167 177.119 505.153 184.484 505.302C184.781 504.846 186.934 504.93 187.854 504.66C189.487 501.917 177.862 500.615 172.115 502.056Z" fill="#E7D9C9"/>
</g>
<g style="mix-blend-mode:multiply" opacity="0.82">
<path d="M814.994 300.901C819.731 299.367 811.698 297.823 807.14 298.958C806.353 300.585 809.456 301.087 814.994 300.901Z" fill="#E7D9C9"/>
</g>
<g style="mix-blend-mode:multiply" opacity="0.82">
<path d="M552.025 300.576C545.24 299.329 529.576 299.804 526.175 301.552C532.738 302.259 550.095 303.049 552.025 300.576Z" fill="#E7D9C9"/>
</g>
<g style="mix-blend-mode:multiply" opacity="0.82">
<path d="M431.759 316.747C423.637 317.212 425.983 321.155 432.872 322.243C445.79 321.434 442.538 316.114 431.759 316.747Z" fill="#E7D9C9"/>
</g>
<g style="mix-blend-mode:multiply" opacity="0.82">
<path d="M808.268 316.068C815.363 317.919 823.102 318.589 830.733 318.012C860.488 315.426 802.27 303.458 808.268 316.068Z" fill="#E7D9C9"/>
</g>
<g style="mix-blend-mode:multiply" opacity="0.82">
<path d="M612.693 299.924C618.529 301.152 630.644 298.697 621.706 297.665C616.539 297.804 612.916 298.399 612.693 299.924Z" fill="#E7D9C9"/>
</g>
<g style="mix-blend-mode:multiply" opacity="0.82">
<path d="M630.674 396.62C627.482 397.234 627.051 400.033 632.931 399.856C634.416 399.214 634 397.996 635.173 397.271C632.961 397.261 633.747 396.397 630.674 396.62Z" fill="#E7D9C9"/>
</g>
<g style="mix-blend-mode:multiply" opacity="0.82">
<path d="M439.598 485.55C433.748 486.294 424.854 487.698 429.517 490.404C435.753 490.404 439.465 489.614 441.885 488.461C441.365 489.976 444.038 490.534 440.741 491.371C420.281 490.441 421.439 496.774 435.129 497.881C439.374 497.293 443.509 496.43 447.467 495.305L451.922 489.725C451.182 489.542 450.459 489.334 449.754 489.102C451.54 488.714 453.074 487.969 454.119 486.982L457.312 483.03C448.878 481.979 440.593 481.598 439.598 485.55Z" fill="#E7D9C9"/>
</g>
<g style="mix-blend-mode:multiply" opacity="0.82">
<path d="M468.833 485.55V484.62C467.111 484.425 465.166 484.155 463.132 483.857L462.835 485.606C464.807 485.327 466.849 485.308 468.833 485.55Z" fill="#E7D9C9"/>
</g>
<g style="mix-blend-mode:multiply" opacity="0.82">
<path d="M555.381 473.228C557.482 473.872 559.798 474.191 562.137 474.158C562.404 474.021 562.619 473.848 562.767 473.653C562.915 473.458 562.991 473.244 562.991 473.028C562.991 472.812 562.915 472.598 562.767 472.403C562.619 472.207 562.404 472.035 562.137 471.898C557.935 471.842 555.515 472.233 555.381 473.228Z" fill="#E7D9C9"/>
</g>
<g style="mix-blend-mode:multiply" opacity="0.82">
<path d="M346.31 493.686C351.016 493.854 351.699 492.868 351.922 491.743C343.013 491.371 336.985 492.673 327.215 493.361C322.939 492.859 320.92 491.724 313.704 492.068C312.219 493.473 306.428 493.631 306.993 495.63C311.625 497.146 316.688 495.007 322.716 494.979C325.003 495.723 328.136 496.225 330.586 496.923C329.576 497.49 327.453 497.732 328.329 498.857H338.44C339.717 497.313 334.179 497.722 332.828 496.923C335.797 496.681 335.797 495.611 337.282 494.979C339.821 495.583 346.844 494.198 348.507 495.63C341.558 496.448 337.475 501.675 349.65 501.768C355.367 498.085 355.218 496.207 346.31 493.686Z" fill="#E7D9C9"/>
</g>
<g style="mix-blend-mode:multiply" opacity="0.82">
<path d="M296.881 478.436C287.973 477.729 285.404 479.282 281.157 480.705C286.473 483.494 293.823 485.15 307.007 484.908C312.679 481.291 294.179 482.23 296.881 478.436Z" fill="#E7D9C9"/>
</g>
<g style="mix-blend-mode:multiply" opacity="0.82">
<path d="M421.647 472.949C412.516 473.033 414.698 474.809 413.748 476.818C417.995 477.329 422.271 477.822 426.116 478.436C428.373 476.381 422.197 475.135 421.647 472.949Z" fill="#E7D9C9"/>
</g>
<g style="mix-blend-mode:multiply" opacity="0.82">
<path d="M383.429 468.411C388.329 468.318 388.433 469.341 392.412 468.745C393.585 467.815 393.585 467.388 392.412 466.467C386.636 466.309 383.429 466.923 383.429 468.411Z" fill="#E7D9C9"/>
</g>
<g style="mix-blend-mode:multiply" opacity="0.82">
<path d="M629.561 434.459C617.489 433.529 614.846 429.856 603.725 428.647C593.139 431.753 613.317 433.055 610.437 437.016C620.103 437.835 624.052 441.945 634.074 441.861C648.655 441.778 655.96 431.967 629.561 434.459Z" fill="#E7D9C9"/>
</g>
<g style="mix-blend-mode:multiply" opacity="0.82">
<path d="M368.819 474.884C373.615 472.289 363.028 467.444 376.673 467.77C376.833 467.462 376.809 467.129 376.607 466.832C376.405 466.534 376.039 466.293 375.575 466.151C371.358 465.807 373.778 467.36 369.947 467.128C367.572 466.728 366.666 465.91 363.206 465.826C354.09 472.81 365.226 478.845 378.93 481.988C385.226 479.096 370.378 477.58 368.819 474.884Z" fill="#E7D9C9"/>
</g>
<g style="mix-blend-mode:multiply" opacity="0.82">
<path d="M429.457 478.808C429.101 480.026 436.51 481.198 438.366 479.738C436.732 479.049 434.342 478.557 429.457 478.808Z" fill="#E7D9C9"/>
</g>
<g style="mix-blend-mode:multiply" opacity="0.82">
<path d="M481.202 478.808C481.632 479.877 484.854 480.463 490.11 480.751C508.492 477.506 479.182 473.73 481.202 478.808Z" fill="#E7D9C9"/>
</g>
<g style="mix-blend-mode:multiply" opacity="0.82">
<path d="M546.383 479.086C550.912 478.315 548.789 477.645 550.838 476.176H541.929C541.81 477.608 541.676 479.04 546.383 479.086Z" fill="#E7D9C9"/>
</g>
<path opacity="0.63" d="M59 256.512L245.352 255.174L719.06 254.332L925 250L467.599 251.488L59 256.512Z" fill="#A57142"/>
</svg>
