<svg width="300" height="61" viewBox="0 0 300 61" fill="none" xmlns="http://www.w3.org/2000/svg">
<path d="M72.116 55V46.36H74.096V55H72.116ZM73.106 44.776C72.77 44.776 72.488 44.662 72.26 44.434C72.044 44.206 71.936 43.924 71.936 43.588C71.936 43.252 72.044 42.97 72.26 42.742C72.488 42.514 72.77 42.4 73.106 42.4C73.454 42.4 73.736 42.514 73.952 42.742C74.168 42.97 74.276 43.252 74.276 43.588C74.276 43.924 74.168 44.206 73.952 44.434C73.736 44.662 73.454 44.776 73.106 44.776Z" fill="black"/>
<path d="M82.2388 55V50.014C82.2388 49.438 82.0528 48.964 81.6808 48.592C81.3208 48.22 80.8528 48.034 80.2768 48.034C79.8928 48.034 79.5508 48.118 79.2508 48.286C78.9508 48.454 78.7168 48.688 78.5488 48.988C78.3808 49.288 78.2968 49.63 78.2968 50.014L77.5228 49.582C77.5228 48.922 77.6668 48.34 77.9548 47.836C78.2428 47.32 78.6388 46.918 79.1428 46.63C79.6588 46.33 80.2348 46.18 80.8708 46.18C81.5188 46.18 82.0948 46.348 82.5988 46.684C83.1028 47.008 83.4988 47.434 83.7868 47.962C84.0748 48.478 84.2188 49.018 84.2188 49.582V55H82.2388ZM76.3168 55V46.36H78.2968V55H76.3168Z" fill="black"/>
<path d="M94.4604 55.18C93.8004 55.18 93.2124 55.042 92.6964 54.766C92.1804 54.478 91.7724 54.088 91.4724 53.596C91.1844 53.104 91.0404 52.546 91.0404 51.922V49.438C91.0404 48.814 91.1904 48.256 91.4904 47.764C91.7904 47.272 92.1984 46.888 92.7144 46.612C93.2304 46.324 93.8124 46.18 94.4604 46.18C95.2404 46.18 95.9424 46.384 96.5664 46.792C97.2024 47.188 97.7004 47.728 98.0604 48.412C98.4324 49.084 98.6184 49.846 98.6184 50.698C98.6184 51.538 98.4324 52.3 98.0604 52.984C97.7004 53.656 97.2024 54.19 96.5664 54.586C95.9424 54.982 95.2404 55.18 94.4604 55.18ZM94.1364 53.308C94.6164 53.308 95.0364 53.2 95.3964 52.984C95.7684 52.756 96.0564 52.444 96.2604 52.048C96.4764 51.652 96.5844 51.196 96.5844 50.68C96.5844 50.164 96.4764 49.708 96.2604 49.312C96.0564 48.916 95.7684 48.61 95.3964 48.394C95.0364 48.166 94.6164 48.052 94.1364 48.052C93.6564 48.052 93.2304 48.166 92.8584 48.394C92.4864 48.61 92.1984 48.916 91.9944 49.312C91.7904 49.708 91.6884 50.164 91.6884 50.68C91.6884 51.196 91.7904 51.652 91.9944 52.048C92.1984 52.444 92.4864 52.756 92.8584 52.984C93.2304 53.2 93.6564 53.308 94.1364 53.308ZM89.8344 55V42.04H91.8144V48.484L91.4724 50.572L91.8144 52.678V55H89.8344Z" fill="black"/>
<path d="M104.236 55.18C103.396 55.18 102.634 54.982 101.95 54.586C101.266 54.178 100.72 53.632 100.312 52.948C99.9158 52.264 99.7178 51.502 99.7178 50.662C99.7178 49.822 99.9158 49.066 100.312 48.394C100.72 47.722 101.266 47.188 101.95 46.792C102.634 46.384 103.396 46.18 104.236 46.18C105.088 46.18 105.856 46.378 106.54 46.774C107.224 47.17 107.764 47.71 108.16 48.394C108.568 49.066 108.772 49.822 108.772 50.662C108.772 51.502 108.568 52.264 108.16 52.948C107.764 53.632 107.224 54.178 106.54 54.586C105.856 54.982 105.088 55.18 104.236 55.18ZM104.236 53.272C104.728 53.272 105.16 53.164 105.532 52.948C105.916 52.72 106.21 52.408 106.414 52.012C106.63 51.616 106.738 51.166 106.738 50.662C106.738 50.158 106.63 49.714 106.414 49.33C106.198 48.946 105.904 48.646 105.532 48.43C105.16 48.202 104.728 48.088 104.236 48.088C103.756 48.088 103.324 48.202 102.94 48.43C102.568 48.646 102.274 48.946 102.058 49.33C101.854 49.714 101.752 50.158 101.752 50.662C101.752 51.166 101.854 51.616 102.058 52.012C102.274 52.408 102.568 52.72 102.94 52.948C103.324 53.164 103.756 53.272 104.236 53.272Z" fill="black"/>
<path d="M116.34 55V50.014C116.34 49.438 116.154 48.964 115.782 48.592C115.422 48.22 114.954 48.034 114.378 48.034C113.994 48.034 113.652 48.118 113.352 48.286C113.052 48.454 112.818 48.688 112.65 48.988C112.482 49.288 112.398 49.63 112.398 50.014L111.624 49.582C111.624 48.922 111.768 48.34 112.056 47.836C112.344 47.32 112.74 46.918 113.244 46.63C113.76 46.33 114.336 46.18 114.972 46.18C115.62 46.18 116.196 46.348 116.7 46.684C117.204 47.008 117.6 47.434 117.888 47.962C118.176 48.478 118.32 49.018 118.32 49.582V55H116.34ZM110.418 55V46.36H112.398V55H110.418Z" fill="black"/>
<path d="M123.878 55.18C123.146 55.18 122.492 55.018 121.916 54.694C121.352 54.37 120.908 53.926 120.584 53.362C120.272 52.786 120.116 52.126 120.116 51.382V46.36H122.096V51.292C122.096 51.712 122.162 52.072 122.294 52.372C122.438 52.66 122.642 52.882 122.906 53.038C123.182 53.194 123.506 53.272 123.878 53.272C124.454 53.272 124.892 53.104 125.192 52.768C125.504 52.42 125.66 51.928 125.66 51.292V46.36H127.64V51.382C127.64 52.138 127.478 52.804 127.154 53.38C126.842 53.944 126.404 54.388 125.84 54.712C125.276 55.024 124.622 55.18 123.878 55.18Z" fill="black"/>
<path d="M132.457 55.18C131.977 55.18 131.515 55.12 131.071 55C130.627 54.868 130.219 54.688 129.847 54.46C129.475 54.22 129.151 53.932 128.875 53.596L130.135 52.336C130.435 52.684 130.777 52.948 131.161 53.128C131.557 53.296 132.001 53.38 132.493 53.38C132.937 53.38 133.273 53.314 133.501 53.182C133.729 53.05 133.843 52.858 133.843 52.606C133.843 52.342 133.735 52.138 133.519 51.994C133.303 51.85 133.021 51.73 132.673 51.634C132.337 51.526 131.977 51.418 131.593 51.31C131.221 51.202 130.861 51.058 130.513 50.878C130.177 50.686 129.901 50.428 129.685 50.104C129.469 49.78 129.361 49.36 129.361 48.844C129.361 48.292 129.487 47.818 129.739 47.422C130.003 47.026 130.369 46.72 130.837 46.504C131.317 46.288 131.887 46.18 132.547 46.18C133.243 46.18 133.855 46.306 134.383 46.558C134.923 46.798 135.373 47.164 135.733 47.656L134.473 48.916C134.221 48.604 133.933 48.37 133.609 48.214C133.285 48.058 132.913 47.98 132.493 47.98C132.097 47.98 131.791 48.04 131.575 48.16C131.359 48.28 131.251 48.454 131.251 48.682C131.251 48.922 131.359 49.108 131.575 49.24C131.791 49.372 132.067 49.486 132.403 49.582C132.751 49.678 133.111 49.786 133.483 49.906C133.867 50.014 134.227 50.17 134.563 50.374C134.911 50.566 135.193 50.83 135.409 51.166C135.625 51.49 135.733 51.916 135.733 52.444C135.733 53.284 135.439 53.95 134.851 54.442C134.263 54.934 133.465 55.18 132.457 55.18Z" fill="black"/>
<path d="M144.587 55.18C143.807 55.18 143.099 54.982 142.463 54.586C141.839 54.19 141.341 53.656 140.969 52.984C140.609 52.3 140.429 51.538 140.429 50.698C140.429 49.846 140.609 49.084 140.969 48.412C141.341 47.728 141.839 47.188 142.463 46.792C143.099 46.384 143.807 46.18 144.587 46.18C145.247 46.18 145.829 46.324 146.333 46.612C146.849 46.888 147.257 47.272 147.557 47.764C147.857 48.256 148.007 48.814 148.007 49.438V51.922C148.007 52.546 147.857 53.104 147.557 53.596C147.269 54.088 146.867 54.478 146.351 54.766C145.835 55.042 145.247 55.18 144.587 55.18ZM144.911 53.308C145.643 53.308 146.231 53.062 146.675 52.57C147.131 52.078 147.359 51.448 147.359 50.68C147.359 50.164 147.257 49.708 147.053 49.312C146.849 48.916 146.561 48.61 146.189 48.394C145.829 48.166 145.403 48.052 144.911 48.052C144.431 48.052 144.005 48.166 143.633 48.394C143.273 48.61 142.985 48.916 142.769 49.312C142.565 49.708 142.463 50.164 142.463 50.68C142.463 51.196 142.565 51.652 142.769 52.048C142.985 52.444 143.273 52.756 143.633 52.984C144.005 53.2 144.431 53.308 144.911 53.308ZM147.233 55V52.678L147.575 50.572L147.233 48.484V46.36H149.213V55H147.233Z" fill="black"/>
<path d="M157.333 55V50.014C157.333 49.438 157.147 48.964 156.775 48.592C156.415 48.22 155.947 48.034 155.371 48.034C154.987 48.034 154.645 48.118 154.345 48.286C154.045 48.454 153.811 48.688 153.643 48.988C153.475 49.288 153.391 49.63 153.391 50.014L152.617 49.582C152.617 48.922 152.761 48.34 153.049 47.836C153.337 47.32 153.733 46.918 154.237 46.63C154.753 46.33 155.329 46.18 155.965 46.18C156.613 46.18 157.189 46.348 157.693 46.684C158.197 47.008 158.593 47.434 158.881 47.962C159.169 48.478 159.313 49.018 159.313 49.582V55H157.333ZM151.411 55V46.36H153.391V55H151.411Z" fill="black"/>
<path d="M164.943 55.18C164.163 55.18 163.455 54.982 162.819 54.586C162.195 54.19 161.697 53.656 161.325 52.984C160.965 52.3 160.785 51.538 160.785 50.698C160.785 49.846 160.965 49.084 161.325 48.412C161.697 47.728 162.195 47.188 162.819 46.792C163.455 46.384 164.163 46.18 164.943 46.18C165.603 46.18 166.185 46.324 166.689 46.612C167.205 46.888 167.613 47.272 167.913 47.764C168.213 48.256 168.363 48.814 168.363 49.438V51.922C168.363 52.546 168.213 53.104 167.913 53.596C167.625 54.088 167.223 54.478 166.707 54.766C166.191 55.042 165.603 55.18 164.943 55.18ZM165.267 53.308C165.759 53.308 166.185 53.2 166.545 52.984C166.917 52.756 167.205 52.444 167.409 52.048C167.613 51.652 167.715 51.196 167.715 50.68C167.715 50.164 167.613 49.708 167.409 49.312C167.205 48.916 166.917 48.61 166.545 48.394C166.185 48.166 165.765 48.052 165.285 48.052C164.793 48.052 164.361 48.166 163.989 48.394C163.629 48.61 163.341 48.916 163.125 49.312C162.921 49.708 162.819 50.164 162.819 50.68C162.819 51.196 162.921 51.652 163.125 52.048C163.341 52.444 163.629 52.756 163.989 52.984C164.361 53.2 164.787 53.308 165.267 53.308ZM169.569 55H167.589V52.678L167.931 50.572L167.589 48.484V42.04H169.569V55Z" fill="black"/>
<path d="M174.776 53.776L179.42 48.844C179.804 48.436 180.116 48.07 180.356 47.746C180.596 47.422 180.77 47.116 180.878 46.828C180.986 46.54 181.04 46.246 181.04 45.946C181.04 45.382 180.854 44.944 180.482 44.632C180.122 44.308 179.66 44.146 179.096 44.146C178.496 44.146 177.968 44.296 177.512 44.596C177.056 44.896 176.648 45.364 176.288 46L174.848 44.812C175.34 43.96 175.946 43.318 176.666 42.886C177.386 42.442 178.22 42.22 179.168 42.22C179.948 42.22 180.632 42.376 181.22 42.688C181.808 43 182.264 43.438 182.588 44.002C182.912 44.554 183.074 45.196 183.074 45.928C183.074 46.456 183.008 46.93 182.876 47.35C182.756 47.758 182.546 48.172 182.246 48.592C181.946 49 181.532 49.48 181.004 50.032L177.44 53.722L174.776 53.776ZM174.776 55V53.776L176.558 53.146H183.326V55H174.776Z" fill="black"/>
<path d="M188.456 55.18C187.58 55.18 186.8 55.03 186.116 54.73C185.432 54.418 184.856 53.968 184.388 53.38L185.792 51.976C186.044 52.36 186.398 52.666 186.854 52.894C187.322 53.122 187.844 53.236 188.42 53.236C188.948 53.236 189.41 53.14 189.806 52.948C190.202 52.756 190.514 52.48 190.742 52.12C190.97 51.76 191.084 51.334 191.084 50.842C191.084 50.326 190.97 49.9 190.742 49.564C190.526 49.216 190.232 48.958 189.86 48.79C189.5 48.61 189.11 48.52 188.69 48.52C188.21 48.52 187.778 48.574 187.394 48.682C187.022 48.79 186.656 48.982 186.296 49.258L186.35 47.962C186.542 47.71 186.764 47.506 187.016 47.35C187.268 47.182 187.562 47.056 187.898 46.972C188.234 46.888 188.63 46.846 189.086 46.846C189.974 46.846 190.718 47.032 191.318 47.404C191.93 47.776 192.392 48.274 192.704 48.898C193.016 49.51 193.172 50.194 193.172 50.95C193.172 51.766 192.968 52.492 192.56 53.128C192.164 53.764 191.612 54.268 190.904 54.64C190.196 55 189.38 55.18 188.456 55.18ZM186.296 49.258L185.162 48.124L185.72 42.4H187.61L186.962 48.358L186.296 49.258ZM186.08 44.254L185.72 42.4H192.47V44.254H186.08Z" fill="black"/>
<path d="M199.74 55.18C198.792 55.18 197.922 54.916 197.13 54.388C196.35 53.848 195.726 53.092 195.258 52.12C194.79 51.148 194.556 50.002 194.556 48.682C194.556 47.362 194.784 46.222 195.24 45.262C195.708 44.29 196.332 43.54 197.112 43.012C197.892 42.484 198.756 42.22 199.704 42.22C200.664 42.22 201.534 42.484 202.314 43.012C203.094 43.54 203.712 44.29 204.168 45.262C204.636 46.222 204.87 47.368 204.87 48.7C204.87 50.02 204.636 51.166 204.168 52.138C203.712 53.11 203.094 53.86 202.314 54.388C201.546 54.916 200.688 55.18 199.74 55.18ZM199.704 53.236C200.328 53.236 200.868 53.068 201.324 52.732C201.78 52.396 202.134 51.892 202.386 51.22C202.65 50.548 202.782 49.702 202.782 48.682C202.782 47.674 202.65 46.834 202.386 46.162C202.134 45.49 201.774 44.992 201.306 44.668C200.85 44.332 200.316 44.164 199.704 44.164C199.092 44.164 198.552 44.332 198.084 44.668C197.628 44.992 197.274 45.49 197.022 46.162C196.77 46.822 196.644 47.662 196.644 48.682C196.644 49.702 196.77 50.548 197.022 51.22C197.274 51.892 197.628 52.396 198.084 52.732C198.552 53.068 199.092 53.236 199.704 53.236Z" fill="black"/>
<path d="M214.941 55.18C214.281 55.18 213.693 55.042 213.177 54.766C212.661 54.478 212.253 54.088 211.953 53.596C211.665 53.104 211.521 52.546 211.521 51.922V49.438C211.521 48.814 211.671 48.256 211.971 47.764C212.271 47.272 212.679 46.888 213.195 46.612C213.711 46.324 214.293 46.18 214.941 46.18C215.721 46.18 216.423 46.384 217.047 46.792C217.683 47.188 218.181 47.728 218.541 48.412C218.913 49.084 219.099 49.846 219.099 50.698C219.099 51.538 218.913 52.3 218.541 52.984C218.181 53.656 217.683 54.19 217.047 54.586C216.423 54.982 215.721 55.18 214.941 55.18ZM214.617 53.308C215.097 53.308 215.517 53.2 215.877 52.984C216.249 52.756 216.537 52.444 216.741 52.048C216.957 51.652 217.065 51.196 217.065 50.68C217.065 50.164 216.957 49.708 216.741 49.312C216.537 48.916 216.249 48.61 215.877 48.394C215.517 48.166 215.097 48.052 214.617 48.052C214.137 48.052 213.711 48.166 213.339 48.394C212.967 48.61 212.679 48.916 212.475 49.312C212.271 49.708 212.169 50.164 212.169 50.68C212.169 51.196 212.271 51.652 212.475 52.048C212.679 52.444 212.967 52.756 213.339 52.984C213.711 53.2 214.137 53.308 214.617 53.308ZM210.315 55V42.04H212.295V48.484L211.953 50.572L212.295 52.678V55H210.315Z" fill="black"/>
<path d="M224.716 55.18C223.876 55.18 223.114 54.982 222.43 54.586C221.746 54.178 221.2 53.632 220.792 52.948C220.396 52.264 220.198 51.502 220.198 50.662C220.198 49.822 220.396 49.066 220.792 48.394C221.2 47.722 221.746 47.188 222.43 46.792C223.114 46.384 223.876 46.18 224.716 46.18C225.568 46.18 226.336 46.378 227.02 46.774C227.704 47.17 228.244 47.71 228.64 48.394C229.048 49.066 229.252 49.822 229.252 50.662C229.252 51.502 229.048 52.264 228.64 52.948C228.244 53.632 227.704 54.178 227.02 54.586C226.336 54.982 225.568 55.18 224.716 55.18ZM224.716 53.272C225.208 53.272 225.64 53.164 226.012 52.948C226.396 52.72 226.69 52.408 226.894 52.012C227.11 51.616 227.218 51.166 227.218 50.662C227.218 50.158 227.11 49.714 226.894 49.33C226.678 48.946 226.384 48.646 226.012 48.43C225.64 48.202 225.208 48.088 224.716 48.088C224.236 48.088 223.804 48.202 223.42 48.43C223.048 48.646 222.754 48.946 222.538 49.33C222.334 49.714 222.232 50.158 222.232 50.662C222.232 51.166 222.334 51.616 222.538 52.012C222.754 52.408 223.048 52.72 223.42 52.948C223.804 53.164 224.236 53.272 224.716 53.272Z" fill="black"/>
<path d="M236.821 55V50.014C236.821 49.438 236.635 48.964 236.263 48.592C235.903 48.22 235.435 48.034 234.859 48.034C234.475 48.034 234.133 48.118 233.833 48.286C233.533 48.454 233.299 48.688 233.131 48.988C232.963 49.288 232.879 49.63 232.879 50.014L232.105 49.582C232.105 48.922 232.249 48.34 232.537 47.836C232.825 47.32 233.221 46.918 233.725 46.63C234.241 46.33 234.817 46.18 235.453 46.18C236.101 46.18 236.677 46.348 237.181 46.684C237.685 47.008 238.081 47.434 238.369 47.962C238.657 48.478 238.801 49.018 238.801 49.582V55H236.821ZM230.899 55V46.36H232.879V55H230.899Z" fill="black"/>
<path d="M244.359 55.18C243.627 55.18 242.973 55.018 242.397 54.694C241.833 54.37 241.389 53.926 241.065 53.362C240.753 52.786 240.597 52.126 240.597 51.382V46.36H242.577V51.292C242.577 51.712 242.643 52.072 242.775 52.372C242.919 52.66 243.123 52.882 243.387 53.038C243.663 53.194 243.987 53.272 244.359 53.272C244.935 53.272 245.373 53.104 245.673 52.768C245.985 52.42 246.141 51.928 246.141 51.292V46.36H248.121V51.382C248.121 52.138 247.959 52.804 247.635 53.38C247.323 53.944 246.885 54.388 246.321 54.712C245.757 55.024 245.103 55.18 244.359 55.18Z" fill="black"/>
<path d="M252.938 55.18C252.458 55.18 251.996 55.12 251.552 55C251.108 54.868 250.7 54.688 250.328 54.46C249.956 54.22 249.632 53.932 249.356 53.596L250.616 52.336C250.916 52.684 251.258 52.948 251.642 53.128C252.038 53.296 252.482 53.38 252.974 53.38C253.418 53.38 253.754 53.314 253.982 53.182C254.21 53.05 254.324 52.858 254.324 52.606C254.324 52.342 254.216 52.138 254 51.994C253.784 51.85 253.502 51.73 253.154 51.634C252.818 51.526 252.458 51.418 252.074 51.31C251.702 51.202 251.342 51.058 250.994 50.878C250.658 50.686 250.382 50.428 250.166 50.104C249.95 49.78 249.842 49.36 249.842 48.844C249.842 48.292 249.968 47.818 250.22 47.422C250.484 47.026 250.85 46.72 251.318 46.504C251.798 46.288 252.368 46.18 253.028 46.18C253.724 46.18 254.336 46.306 254.864 46.558C255.404 46.798 255.854 47.164 256.214 47.656L254.954 48.916C254.702 48.604 254.414 48.37 254.09 48.214C253.766 48.058 253.394 47.98 252.974 47.98C252.578 47.98 252.272 48.04 252.056 48.16C251.84 48.28 251.732 48.454 251.732 48.682C251.732 48.922 251.84 49.108 252.056 49.24C252.272 49.372 252.548 49.486 252.884 49.582C253.232 49.678 253.592 49.786 253.964 49.906C254.348 50.014 254.708 50.17 255.044 50.374C255.392 50.566 255.674 50.83 255.89 51.166C256.106 51.49 256.214 51.916 256.214 52.444C256.214 53.284 255.92 53.95 255.332 54.442C254.744 54.934 253.946 55.18 252.938 55.18Z" fill="black"/>
<path d="M264.276 55.18C263.796 55.18 263.334 55.12 262.89 55C262.446 54.868 262.038 54.688 261.666 54.46C261.294 54.22 260.97 53.932 260.694 53.596L261.954 52.336C262.254 52.684 262.596 52.948 262.98 53.128C263.376 53.296 263.82 53.38 264.312 53.38C264.756 53.38 265.092 53.314 265.32 53.182C265.548 53.05 265.662 52.858 265.662 52.606C265.662 52.342 265.554 52.138 265.338 51.994C265.122 51.85 264.84 51.73 264.492 51.634C264.156 51.526 263.796 51.418 263.412 51.31C263.04 51.202 262.68 51.058 262.332 50.878C261.996 50.686 261.72 50.428 261.504 50.104C261.288 49.78 261.18 49.36 261.18 48.844C261.18 48.292 261.306 47.818 261.558 47.422C261.822 47.026 262.188 46.72 262.656 46.504C263.136 46.288 263.706 46.18 264.366 46.18C265.062 46.18 265.674 46.306 266.202 46.558C266.742 46.798 267.192 47.164 267.552 47.656L266.292 48.916C266.04 48.604 265.752 48.37 265.428 48.214C265.104 48.058 264.732 47.98 264.312 47.98C263.916 47.98 263.61 48.04 263.394 48.16C263.178 48.28 263.07 48.454 263.07 48.682C263.07 48.922 263.178 49.108 263.394 49.24C263.61 49.372 263.886 49.486 264.222 49.582C264.57 49.678 264.93 49.786 265.302 49.906C265.686 50.014 266.046 50.17 266.382 50.374C266.73 50.566 267.012 50.83 267.228 51.166C267.444 51.49 267.552 51.916 267.552 52.444C267.552 53.284 267.258 53.95 266.67 54.442C266.082 54.934 265.284 55.18 264.276 55.18Z" fill="black"/>
<path d="M273.81 55.18C273.15 55.18 272.562 55.042 272.046 54.766C271.53 54.478 271.122 54.088 270.822 53.596C270.534 53.104 270.39 52.546 270.39 51.922V49.438C270.39 48.814 270.54 48.256 270.84 47.764C271.14 47.272 271.548 46.888 272.064 46.612C272.58 46.324 273.162 46.18 273.81 46.18C274.59 46.18 275.292 46.384 275.916 46.792C276.552 47.188 277.05 47.728 277.41 48.412C277.782 49.084 277.968 49.846 277.968 50.698C277.968 51.538 277.782 52.3 277.41 52.984C277.05 53.656 276.552 54.19 275.916 54.586C275.292 54.982 274.59 55.18 273.81 55.18ZM273.486 53.308C273.966 53.308 274.386 53.2 274.746 52.984C275.118 52.756 275.406 52.444 275.61 52.048C275.826 51.652 275.934 51.196 275.934 50.68C275.934 50.164 275.826 49.708 275.61 49.312C275.406 48.916 275.118 48.61 274.746 48.394C274.386 48.166 273.966 48.052 273.486 48.052C273.006 48.052 272.58 48.166 272.208 48.394C271.836 48.61 271.548 48.916 271.344 49.312C271.14 49.708 271.038 50.164 271.038 50.68C271.038 51.196 271.14 51.652 271.344 52.048C271.548 52.444 271.836 52.756 272.208 52.984C272.58 53.2 273.006 53.308 273.486 53.308ZM269.184 58.6V46.36H271.164V48.682L270.822 50.788L271.164 52.876V58.6H269.184Z" fill="black"/>
<path d="M279.643 55V46.36H281.623V55H279.643ZM280.633 44.776C280.297 44.776 280.015 44.662 279.787 44.434C279.571 44.206 279.463 43.924 279.463 43.588C279.463 43.252 279.571 42.97 279.787 42.742C280.015 42.514 280.297 42.4 280.633 42.4C280.981 42.4 281.263 42.514 281.479 42.742C281.695 42.97 281.803 43.252 281.803 43.588C281.803 43.924 281.695 44.206 281.479 44.434C281.263 44.662 280.981 44.776 280.633 44.776Z" fill="black"/>
<path d="M289.766 55V50.014C289.766 49.438 289.58 48.964 289.208 48.592C288.848 48.22 288.38 48.034 287.804 48.034C287.42 48.034 287.078 48.118 286.778 48.286C286.478 48.454 286.244 48.688 286.076 48.988C285.908 49.288 285.824 49.63 285.824 50.014L285.05 49.582C285.05 48.922 285.194 48.34 285.482 47.836C285.77 47.32 286.166 46.918 286.67 46.63C287.186 46.33 287.762 46.18 288.398 46.18C289.046 46.18 289.622 46.348 290.126 46.684C290.63 47.008 291.026 47.434 291.314 47.962C291.602 48.478 291.746 49.018 291.746 49.582V55H289.766ZM283.844 55V46.36H285.824V55H283.844Z" fill="black"/>
<path d="M296.584 55.18C296.104 55.18 295.642 55.12 295.198 55C294.754 54.868 294.346 54.688 293.974 54.46C293.602 54.22 293.278 53.932 293.002 53.596L294.262 52.336C294.562 52.684 294.904 52.948 295.288 53.128C295.684 53.296 296.128 53.38 296.62 53.38C297.064 53.38 297.4 53.314 297.628 53.182C297.856 53.05 297.97 52.858 297.97 52.606C297.97 52.342 297.862 52.138 297.646 51.994C297.43 51.85 297.148 51.73 296.8 51.634C296.464 51.526 296.104 51.418 295.72 51.31C295.348 51.202 294.988 51.058 294.64 50.878C294.304 50.686 294.028 50.428 293.812 50.104C293.596 49.78 293.488 49.36 293.488 48.844C293.488 48.292 293.614 47.818 293.866 47.422C294.13 47.026 294.496 46.72 294.964 46.504C295.444 46.288 296.014 46.18 296.674 46.18C297.37 46.18 297.982 46.306 298.51 46.558C299.05 46.798 299.5 47.164 299.86 47.656L298.6 48.916C298.348 48.604 298.06 48.37 297.736 48.214C297.412 48.058 297.04 47.98 296.62 47.98C296.224 47.98 295.918 48.04 295.702 48.16C295.486 48.28 295.378 48.454 295.378 48.682C295.378 48.922 295.486 49.108 295.702 49.24C295.918 49.372 296.194 49.486 296.53 49.582C296.878 49.678 297.238 49.786 297.61 49.906C297.994 50.014 298.354 50.17 298.69 50.374C299.038 50.566 299.32 50.83 299.536 51.166C299.752 51.49 299.86 51.916 299.86 52.444C299.86 53.284 299.566 53.95 298.978 54.442C298.39 54.934 297.592 55.18 296.584 55.18Z" fill="black"/>
<path d="M76.148 24.1505C75.152 24.1505 74.264 23.9345 73.484 23.5025C72.716 23.0585 72.11 22.4525 71.666 21.6845C71.222 20.9165 71 20.0465 71 19.0745V11.3165H73.448V19.1465C73.448 19.7105 73.562 20.1965 73.79 20.6045C74.03 21.0125 74.354 21.3305 74.762 21.5585C75.182 21.7745 75.644 21.8825 76.148 21.8825C76.664 21.8825 77.12 21.7745 77.516 21.5585C77.912 21.3305 78.224 21.0125 78.452 20.6045C78.692 20.1965 78.812 19.7165 78.812 19.1645V11.3165H81.278V19.0925C81.278 20.0645 81.056 20.9345 80.612 21.7025C80.168 22.4585 79.562 23.0585 78.794 23.5025C78.038 23.9345 77.156 24.1505 76.148 24.1505Z" fill="black"/>
<path d="M88.2672 24.1505C87.6432 24.1505 87.0792 24.0245 86.5752 23.7725C86.0712 23.5085 85.6692 23.1545 85.3692 22.7105C85.0692 22.2665 84.9072 21.7565 84.8832 21.1805V18.1025C84.9072 17.5265 85.0692 17.0165 85.3692 16.5725C85.6812 16.1165 86.0832 15.7565 86.5752 15.4925C87.0792 15.2285 87.6432 15.0965 88.2672 15.0965C89.0712 15.0965 89.7912 15.2945 90.4272 15.6905C91.0632 16.0865 91.5612 16.6265 91.9212 17.3105C92.2932 17.9945 92.4792 18.7685 92.4792 19.6325C92.4792 20.4845 92.2932 21.2525 91.9212 21.9365C91.5612 22.6205 91.0632 23.1605 90.4272 23.5565C89.7912 23.9525 89.0712 24.1505 88.2672 24.1505ZM87.8532 21.9725C88.2852 21.9725 88.6692 21.8765 89.0052 21.6845C89.3412 21.4805 89.5992 21.2045 89.7792 20.8565C89.9712 20.4965 90.0672 20.0825 90.0672 19.6145C90.0672 19.1585 89.9712 18.7565 89.7792 18.4085C89.5992 18.0485 89.3412 17.7725 89.0052 17.5805C88.6692 17.3765 88.2852 17.2745 87.8532 17.2745C87.4332 17.2745 87.0552 17.3765 86.7192 17.5805C86.3832 17.7725 86.1192 18.0485 85.9272 18.4085C85.7472 18.7565 85.6572 19.1585 85.6572 19.6145C85.6572 20.0825 85.7472 20.4965 85.9272 20.8565C86.1192 21.2045 86.3772 21.4805 86.7012 21.6845C87.0372 21.8765 87.4212 21.9725 87.8532 21.9725ZM83.4432 27.6065V15.2765H85.8012V17.5625L85.4052 19.6685L85.7832 21.7745V27.6065H83.4432Z" fill="black"/>
<path d="M98.8189 23.9705V11.6585H101.177V23.9705H98.8189ZM96.7849 17.3465V15.2765H103.211V17.3465H96.7849Z" fill="black"/>
<path d="M108.412 24.1505C107.536 24.1505 106.744 23.9525 106.036 23.5565C105.34 23.1485 104.782 22.6025 104.362 21.9185C103.954 21.2225 103.75 20.4485 103.75 19.5965C103.75 18.7445 103.954 17.9825 104.362 17.3105C104.77 16.6265 105.328 16.0865 106.036 15.6905C106.744 15.2825 107.53 15.0785 108.394 15.0785C109.282 15.0785 110.074 15.2825 110.77 15.6905C111.478 16.0865 112.036 16.6265 112.444 17.3105C112.852 17.9825 113.056 18.7445 113.056 19.5965C113.056 20.4485 112.852 21.2225 112.444 21.9185C112.036 22.6025 111.478 23.1485 110.77 23.5565C110.074 23.9525 109.288 24.1505 108.412 24.1505ZM108.394 21.9545C108.838 21.9545 109.228 21.8585 109.564 21.6665C109.912 21.4625 110.176 21.1865 110.356 20.8385C110.548 20.4785 110.644 20.0705 110.644 19.6145C110.644 19.1585 110.548 18.7565 110.356 18.4085C110.164 18.0605 109.9 17.7905 109.564 17.5985C109.228 17.3945 108.838 17.2925 108.394 17.2925C107.962 17.2925 107.578 17.3945 107.242 17.5985C106.906 17.7905 106.642 18.0605 106.45 18.4085C106.258 18.7565 106.162 19.1585 106.162 19.6145C106.162 20.0705 106.258 20.4785 106.45 20.8385C106.642 21.1865 106.906 21.4625 107.242 21.6665C107.578 21.8585 107.962 21.9545 108.394 21.9545Z" fill="black"/>
<path d="M126.136 29.5969C124.567 29.5969 123.201 29.3477 122.038 28.8492C120.874 28.3508 119.804 27.5662 118.825 26.4954L121.871 23.3662C122.536 24.0677 123.238 24.6123 123.976 25C124.733 25.3877 125.573 25.5816 126.496 25.5816C127.308 25.5816 127.936 25.4431 128.379 25.1662C128.822 24.8708 129.044 24.4646 129.044 23.9477C129.044 23.4862 128.878 23.1077 128.545 22.8123C128.213 22.4985 127.779 22.2308 127.244 22.0092C126.727 21.7692 126.145 21.5477 125.499 21.3446C124.871 21.1231 124.234 20.8646 123.588 20.5692C122.961 20.2554 122.379 19.8769 121.844 19.4339C121.327 18.9908 120.902 18.4369 120.57 17.7723C120.256 17.1077 120.099 16.2862 120.099 15.3077C120.099 14.0523 120.385 12.9816 120.958 12.0954C121.548 11.2092 122.361 10.5262 123.394 10.0462C124.447 9.56617 125.656 9.32617 127.022 9.32617C128.388 9.32617 129.653 9.56617 130.816 10.0462C131.979 10.5262 132.939 11.1908 133.696 12.04L130.622 15.1692C130.05 14.56 129.468 14.1077 128.878 13.8123C128.287 13.5169 127.65 13.3692 126.967 13.3692C126.302 13.3692 125.776 13.4892 125.388 13.7292C125.001 13.9508 124.807 14.3016 124.807 14.7816C124.807 15.2246 124.964 15.5846 125.278 15.8616C125.61 16.1385 126.044 16.3877 126.579 16.6092C127.114 16.8123 127.696 17.0246 128.324 17.2462C128.97 17.4677 129.607 17.7262 130.234 18.0216C130.881 18.3169 131.462 18.6954 131.979 19.1569C132.514 19.6185 132.948 20.2 133.281 20.9016C133.613 21.6031 133.779 22.4523 133.779 23.4492C133.779 25.4062 133.105 26.92 131.758 27.9908C130.428 29.0616 128.554 29.5969 126.136 29.5969ZM124.973 27.0216H128.434V32.0892H124.973V27.0216ZM128.434 11.5139H124.973V6.83386H128.434V11.5139Z" fill="url(#paint0_linear_1248_1245)"/>
<path d="M139.187 29.2923V9.65848H144.088V29.2923H139.187ZM135.448 13.7846V9.65848H143.811V13.7846H135.448Z" fill="url(#paint1_linear_1248_1245)"/>
<path d="M152.885 29.5969C151.5 29.5969 150.226 29.3662 149.063 28.9046C147.9 28.4246 146.912 27.7508 146.1 26.8831L149.257 23.7816C149.589 24.2616 150.079 24.6585 150.725 24.9723C151.389 25.2677 152.082 25.4154 152.802 25.4154C153.411 25.4154 153.946 25.3139 154.408 25.1108C154.888 24.8892 155.257 24.5846 155.516 24.1969C155.792 23.7908 155.931 23.3108 155.931 22.7569C155.931 22.2031 155.792 21.7323 155.516 21.3446C155.239 20.9385 154.842 20.6339 154.325 20.4308C153.826 20.2277 153.226 20.1262 152.525 20.1262C152.156 20.1262 151.768 20.1539 151.362 20.2092C150.974 20.2462 150.66 20.3108 150.42 20.4031L152.58 17.6892C153.171 17.5416 153.706 17.4216 154.186 17.3292C154.685 17.2185 155.128 17.1631 155.516 17.1631C156.512 17.1631 157.408 17.4031 158.202 17.8831C158.996 18.3446 159.623 19.0092 160.085 19.8769C160.546 20.7262 160.777 21.7323 160.777 22.8954C160.777 24.2246 160.454 25.3969 159.808 26.4123C159.162 27.4092 158.239 28.1939 157.039 28.7662C155.857 29.32 154.472 29.5969 152.885 29.5969ZM150.42 20.4031V17.6892L154.989 12.3446H160.362L155.654 17.6892L150.42 20.4031ZM147.457 13.7846V9.65848H160.362V12.3446L156.623 13.7846H147.457Z" fill="url(#paint2_linear_1248_1245)"/>
<path d="M170.894 29.5969C169.251 29.5969 167.783 29.1723 166.491 28.3231C165.199 27.4554 164.174 26.2554 163.417 24.7231C162.679 23.1908 162.309 21.4277 162.309 19.4339C162.309 17.4585 162.679 15.7139 163.417 14.2C164.156 12.6677 165.162 11.4769 166.436 10.6277C167.728 9.76002 169.186 9.32617 170.811 9.32617C172.473 9.32617 173.949 9.76002 175.242 10.6277C176.534 11.4769 177.549 12.6677 178.288 14.2C179.026 15.7139 179.396 17.4769 179.396 19.4892C179.396 21.4831 179.026 23.2462 178.288 24.7785C177.549 26.2923 176.534 27.4739 175.242 28.3231C173.968 29.1723 172.519 29.5969 170.894 29.5969ZM170.839 25.3323C171.596 25.3323 172.242 25.1108 172.777 24.6677C173.313 24.2062 173.719 23.5416 173.996 22.6739C174.291 21.8062 174.439 20.7354 174.439 19.4616C174.439 18.2062 174.291 17.1446 173.996 16.2769C173.719 15.4092 173.313 14.7539 172.777 14.3108C172.242 13.8492 171.586 13.6185 170.811 13.6185C170.091 13.6185 169.463 13.84 168.928 14.2831C168.393 14.7262 167.977 15.3816 167.682 16.2492C167.405 17.1169 167.266 18.1785 167.266 19.4339C167.266 20.7077 167.405 21.7877 167.682 22.6739C167.977 23.5416 168.393 24.2062 168.928 24.6677C169.463 25.1108 170.1 25.3323 170.839 25.3323Z" fill="url(#paint3_linear_1248_1245)"/>
<path d="M189.473 29.5969C187.83 29.5969 186.362 29.1723 185.07 28.3231C183.777 27.4554 182.753 26.2554 181.996 24.7231C181.257 23.1908 180.888 21.4277 180.888 19.4339C180.888 17.4585 181.257 15.7139 181.996 14.2C182.734 12.6677 183.741 11.4769 185.014 10.6277C186.307 9.76002 187.765 9.32617 189.39 9.32617C191.051 9.32617 192.528 9.76002 193.821 10.6277C195.113 11.4769 196.128 12.6677 196.867 14.2C197.605 15.7139 197.974 17.4769 197.974 19.4892C197.974 21.4831 197.605 23.2462 196.867 24.7785C196.128 26.2923 195.113 27.4739 193.821 28.3231C192.547 29.1723 191.097 29.5969 189.473 29.5969ZM189.417 25.3323C190.174 25.3323 190.821 25.1108 191.356 24.6677C191.891 24.2062 192.297 23.5416 192.574 22.6739C192.87 21.8062 193.017 20.7354 193.017 19.4616C193.017 18.2062 192.87 17.1446 192.574 16.2769C192.297 15.4092 191.891 14.7539 191.356 14.3108C190.821 13.8492 190.165 13.6185 189.39 13.6185C188.67 13.6185 188.042 13.84 187.507 14.2831C186.971 14.7262 186.556 15.3816 186.261 16.2492C185.984 17.1169 185.845 18.1785 185.845 19.4339C185.845 20.7077 185.984 21.7877 186.261 22.6739C186.556 23.5416 186.971 24.2062 187.507 24.6677C188.042 25.1108 188.679 25.3323 189.417 25.3323Z" fill="url(#paint4_linear_1248_1245)"/>
<g style="mix-blend-mode:multiply" opacity="0.29">
<path d="M41.4008 60.0124L0 57.2571L28.3175 47.178L41.4008 60.0124Z" fill="#BD4013"/>
</g>
<path d="M26.291 14.7008L41.4897 42.0763L41.4008 60.0125L26.1132 50.6089L10.9146 23.2513L11.0034 5.29724L26.291 14.7008Z" fill="url(#paint5_linear_1248_1245)"/>
<path d="M11.0034 5.29734L20.5137 0L50.9111 54.733L41.4008 60.0126L26.1132 50.6089L10.9146 23.2513L11.0034 5.29734Z" fill="url(#paint6_radial_1248_1245)"/>
<path d="M35.8013 9.42138L50.9999 36.779L50.9111 54.733L35.6235 45.3294L20.4248 17.954L20.5137 0L35.8013 9.42138Z" fill="url(#paint7_radial_1248_1245)"/>
<g style="mix-blend-mode:soft-light">
<path d="M38.4323 15.4119L47.3027 31.3927L47.2493 41.8629L38.3257 36.3701L29.4553 20.407L29.5086 9.91907L38.4323 15.4119Z" fill="#FFEFA2"/>
</g>
<path opacity="0.74" d="M50.9109 54.733L47.2489 41.863L38.3253 36.3701L35.6233 45.3294L50.9109 54.733Z" fill="#FFEFA2"/>
<g style="mix-blend-mode:multiply" opacity="0.78">
<path d="M20.4248 17.954L29.4551 20.4071L29.5085 9.91917L20.5137 0L20.4248 17.954Z" fill="#BD4013"/>
</g>
<g style="mix-blend-mode:soft-light" opacity="0.7">
<path d="M26.1133 50.609L35.6236 45.3295L50.9112 54.7331L41.4009 60.0127L26.1133 50.609Z" fill="#FFEFA2"/>
</g>
<path opacity="0.74" d="M50.9111 54.7329L47.2491 41.8629L38.0055 37.4189L28.7618 20.7803L21.1714 18.1672L28.9041 19.3227L29.5084 9.91907L29.4551 20.407L38.3255 36.3701L47.2491 40.8497L50.9111 54.7329Z" fill="#FFEFA2"/>
<path opacity="0.74" d="M36.5835 45.9161L26.1133 50.609L35.6236 45.3295L36.5835 45.9161Z" fill="#FFEFA2"/>
<path style="mix-blend-mode:color-dodge" opacity="0.64" d="M47.2493 40.8497L47.3027 31.3927L38.4323 15.4119L29.5086 9.91907L29.4553 20.407L37.7035 18.8427L46.0939 31.215L47.2493 40.8497Z" fill="url(#paint8_linear_1248_1245)"/>
<g style="mix-blend-mode:multiply" opacity="0.78">
<path d="M10.9146 23.2513L18.5939 18.9849L11.0034 5.29724L10.9146 23.2513Z" fill="#BD4013"/>
</g>
<path style="mix-blend-mode:color-dodge" opacity="0.64" d="M12.7454 23.838L21.2602 23.7668L32.6547 44.2806L26.1131 50.609L12.7454 23.838Z" fill="url(#paint9_linear_1248_1245)"/>
<g style="mix-blend-mode:soft-light">
<path d="M41.4009 60.0125L37.9879 51.7465L27.0732 51.1954L41.4009 60.0125Z" fill="#FFEFA2"/>
</g>
<path style="mix-blend-mode:color-dodge" opacity="0.64" d="M50.9111 54.733L35.8546 44.5828L21.1714 18.1673L20.5137 0L20.4248 17.954L35.6235 45.3294L50.9111 54.733Z" fill="url(#paint10_linear_1248_1245)"/>
<defs>
<linearGradient id="paint0_linear_1248_1245" x1="29.7529" y1="-9.16919" x2="55.7529" y2="54.8308" gradientUnits="userSpaceOnUse">
<stop stop-color="#FFE600"/>
<stop offset="1" stop-color="#D07C13"/>
</linearGradient>
<linearGradient id="paint1_linear_1248_1245" x1="29.7529" y1="-9.16919" x2="55.7529" y2="54.8308" gradientUnits="userSpaceOnUse">
<stop stop-color="#FFE600"/>
<stop offset="1" stop-color="#D07C13"/>
</linearGradient>
<linearGradient id="paint2_linear_1248_1245" x1="29.7529" y1="-9.16919" x2="55.7529" y2="54.8308" gradientUnits="userSpaceOnUse">
<stop stop-color="#FFE600"/>
<stop offset="1" stop-color="#D07C13"/>
</linearGradient>
<linearGradient id="paint3_linear_1248_1245" x1="29.7529" y1="-9.16919" x2="55.7529" y2="54.8308" gradientUnits="userSpaceOnUse">
<stop stop-color="#FFE600"/>
<stop offset="1" stop-color="#D07C13"/>
</linearGradient>
<linearGradient id="paint4_linear_1248_1245" x1="29.7529" y1="-9.16919" x2="55.7529" y2="54.8308" gradientUnits="userSpaceOnUse">
<stop stop-color="#FFE600"/>
<stop offset="1" stop-color="#D07C13"/>
</linearGradient>
<linearGradient id="paint5_linear_1248_1245" x1="39.3947" y1="62.8594" x2="8.71687" y2="8.39049" gradientUnits="userSpaceOnUse">
<stop offset="0.02" stop-color="#9F0E25"/>
<stop offset="0.11" stop-color="#950C26"/>
<stop offset="0.5" stop-color="#6F0628"/>
<stop offset="0.81" stop-color="#580229"/>
<stop offset="1" stop-color="#4F002A"/>
</linearGradient>
<radialGradient id="paint6_radial_1248_1245" cx="0" cy="0" r="1" gradientUnits="userSpaceOnUse" gradientTransform="translate(24.9683 35.1111) rotate(-119.389) scale(23.1632 23.1632)">
<stop offset="0.02" stop-color="#E50025"/>
<stop offset="0.3" stop-color="#BD0027"/>
<stop offset="0.6" stop-color="#970029"/>
<stop offset="0.85" stop-color="#80002A"/>
<stop offset="1" stop-color="#77002A"/>
</radialGradient>
<radialGradient id="paint7_radial_1248_1245" cx="0" cy="0" r="1" gradientUnits="userSpaceOnUse" gradientTransform="translate(33.536 30.2856) rotate(-119.389) scale(22.9502 22.9502)">
<stop stop-color="#F82E3E"/>
<stop offset="1" stop-color="#A90628"/>
</radialGradient>
<linearGradient id="paint8_linear_1248_1245" x1="44.6995" y1="43.9211" x2="27.2352" y2="12.9131" gradientUnits="userSpaceOnUse">
<stop/>
<stop offset="1" stop-color="#544200"/>
</linearGradient>
<linearGradient id="paint9_linear_1248_1245" x1="27.9008" y1="51.386" x2="13.25" y2="25.3733" gradientUnits="userSpaceOnUse">
<stop/>
<stop offset="1" stop-color="#544200"/>
</linearGradient>
<linearGradient id="paint10_linear_1248_1245" x1="45.0396" y1="59.6802" x2="14.3617" y2="5.21128" gradientUnits="userSpaceOnUse">
<stop/>
<stop offset="1" stop-color="#544200"/>
</linearGradient>
</defs>
</svg>
